{"glyphs":{"0":{"ha":815,"x_min":96,"x_max":748,"o":"m 706 391 l 741 597 q 747 669 745 631 q 745 740 748 706 q 726 833 741 787 q 686 913 712 878 q 613 977 659 953 q 502 1002 567 1001 q 399 986 446 1002 q 314 941 352 970 q 247 873 276 913 q 195 789 217 834 q 158 695 173 744 q 136 597 144 646 l 102 391 q 96 298 96 345 q 104 206 96 251 q 129 122 112 161 q 176 52 146 82 q 245 5 204 23 q 341 -14 286 -13 q 434 -1 391 -14 q 512 36 477 12 q 590 107 556 65 q 648 199 623 150 q 684 293 669 244 q 706 391 699 342 m 499 932 q 576 915 544 931 q 628 871 608 899 q 659 806 649 843 q 671 729 669 770 l 178 334 q 181 380 179 358 q 188 431 183 403 l 218 611 q 235 686 224 648 q 262 759 246 724 q 301 827 279 795 q 352 882 323 859 q 418 919 381 906 q 499 932 454 932 m 345 56 q 269 72 300 56 q 217 115 237 88 q 186 177 197 142 q 173 252 175 213 l 665 645 q 659 591 662 615 q 652 541 656 568 l 624 378 q 607 304 618 342 q 581 232 597 267 q 540 158 564 193 q 483 100 515 124 q 420 67 455 79 q 345 56 386 55 z "},"1":{"ha":815,"x_min":206,"x_max":587,"o":"m 419 0 l 587 987 l 574 987 l 220 846 l 206 766 l 492 881 l 339 0 l 419 0 z "},"2":{"ha":815,"x_min":22,"x_max":696,"o":"m 624 0 l 634 70 l 134 70 l 450 380 q 527 456 487 416 q 600 539 566 495 q 659 631 634 583 q 690 734 683 680 q 681 842 696 793 q 632 926 665 890 q 551 981 599 962 q 445 1001 503 1000 q 322 979 379 1002 q 222 916 266 956 q 150 820 179 875 q 113 703 121 766 l 192 703 q 222 793 201 751 q 275 865 243 835 q 348 914 307 897 q 441 932 390 932 q 518 916 485 931 q 574 873 552 900 q 606 810 597 846 q 608 732 614 774 q 580 645 602 686 q 528 566 558 604 q 465 495 498 528 q 399 430 431 461 l 32 66 l 22 0 l 624 0 z "},"3":{"ha":815,"x_min":34,"x_max":711,"o":"m 287 538 l 275 469 l 361 468 q 447 454 407 467 q 515 418 487 442 q 556 356 543 393 q 562 269 569 319 q 532 181 554 220 q 475 113 509 141 q 399 71 442 85 q 308 56 357 56 q 224 72 261 56 q 161 116 186 88 q 125 183 137 144 q 118 268 114 222 l 39 268 q 52 154 34 205 q 105 66 70 102 q 192 8 141 28 q 305 -14 243 -13 q 427 6 369 -14 q 529 64 484 26 q 604 154 574 102 q 641 271 633 207 q 639 349 646 313 q 613 415 632 385 q 566 468 595 445 q 497 504 536 490 q 570 539 536 518 q 633 589 605 560 q 680 652 661 616 q 704 730 699 688 q 697 839 711 789 q 650 924 682 888 q 570 981 618 960 q 463 1002 522 1001 q 347 982 401 1002 q 248 926 292 962 q 175 840 204 890 q 136 729 145 789 l 214 729 q 247 811 224 774 q 300 875 269 848 q 373 917 332 902 q 460 932 414 932 q 538 916 505 931 q 593 875 572 901 q 623 812 614 848 q 624 733 631 776 q 592 649 616 685 q 531 589 567 613 q 452 551 495 564 q 363 538 408 538 l 287 538 z "},"4":{"ha":815,"x_min":28,"x_max":720,"o":"m 570 319 l 686 987 l 596 987 l 37 300 l 28 250 l 478 250 l 435 0 l 515 0 l 558 250 l 708 250 l 720 319 l 570 319 m 138 319 l 542 815 l 590 880 l 490 319 l 138 319 z "},"5":{"ha":815,"x_min":112,"x_max":798,"o":"m 189 507 l 252 489 q 345 541 297 522 q 448 558 392 559 q 535 536 499 557 q 592 481 571 515 q 620 405 613 448 q 621 316 627 361 q 593 219 613 266 q 543 135 574 172 q 468 77 511 99 q 368 56 424 55 q 288 72 322 56 q 232 115 254 88 q 199 180 210 143 q 188 260 188 217 l 112 260 q 129 152 112 202 q 178 66 146 102 q 257 8 210 29 q 366 -14 304 -13 q 496 12 437 -14 q 597 83 554 39 q 666 189 640 129 q 701 317 692 250 q 697 434 709 377 q 657 534 686 490 q 580 605 628 578 q 465 633 532 632 q 368 620 415 633 q 279 578 321 606 l 374 909 l 785 909 l 798 987 l 318 987 l 189 507 z "},"6":{"ha":815,"x_min":81,"x_max":686,"o":"m 659 995 l 644 995 q 495 973 564 994 q 370 915 426 952 q 269 825 313 877 q 191 712 224 774 q 136 579 158 650 q 102 436 114 509 l 90 349 q 93 220 81 284 q 138 104 105 155 q 223 19 170 52 q 350 -14 276 -13 q 474 13 418 -14 q 574 87 530 41 q 644 197 616 134 q 680 326 671 260 q 676 443 686 385 q 637 546 666 500 q 562 620 609 591 q 448 648 514 648 q 373 640 410 649 q 304 613 337 630 q 244 573 273 596 q 193 522 216 550 q 229 623 208 574 q 277 714 250 671 q 344 798 307 760 q 427 864 382 836 q 525 905 472 890 q 640 920 578 920 l 650 920 l 659 995 m 433 578 q 520 554 486 577 q 575 494 555 531 q 601 413 595 458 q 601 323 607 368 q 574 228 594 275 q 524 142 555 180 q 449 79 492 103 q 353 56 406 56 q 268 77 303 56 q 211 130 233 97 q 185 181 195 153 q 171 239 176 210 q 167 294 167 267 q 170 348 167 322 l 180 410 q 221 478 194 447 q 281 531 248 509 q 355 566 316 553 q 433 578 395 578 z "},"7":{"ha":815,"x_min":155,"x_max":803,"o":"m 795 937 l 803 987 l 172 987 l 161 914 l 704 914 l 155 0 l 241 0 l 795 937 z "},"8":{"ha":815,"x_min":83,"x_max":766,"o":"m 759 736 q 750 843 766 795 q 701 926 734 891 q 620 981 668 961 q 515 1001 572 1000 q 400 983 454 1002 q 303 928 346 964 q 233 842 260 892 q 198 730 205 791 q 201 657 194 692 q 226 592 208 622 q 265 545 241 566 q 317 509 288 524 q 236 471 275 494 q 167 416 197 448 q 117 346 137 385 q 92 259 98 307 q 101 146 83 196 q 157 61 119 96 q 245 6 193 25 q 357 -14 297 -13 q 478 5 420 -14 q 584 60 537 24 q 662 148 631 96 q 701 265 693 200 q 698 342 706 305 q 671 409 690 378 q 623 465 652 440 q 557 505 594 489 q 630 542 595 520 q 691 593 664 564 q 735 658 718 622 q 759 736 753 694 m 621 264 q 590 177 614 216 q 530 111 566 138 q 450 70 494 84 q 359 56 406 55 q 277 71 315 56 q 213 111 239 85 q 176 175 187 138 q 172 258 164 212 q 203 346 179 306 q 262 414 227 385 q 342 457 298 442 q 434 472 387 473 q 515 456 478 471 q 578 413 553 441 q 616 348 604 386 q 621 264 629 310 m 678 737 q 650 658 671 694 q 597 595 629 622 q 526 555 566 570 q 443 541 486 541 q 369 556 403 542 q 313 595 336 570 q 281 656 291 621 q 278 731 271 690 q 305 811 284 774 q 357 875 326 848 q 428 917 389 902 q 512 932 468 932 q 586 916 553 931 q 642 874 619 901 q 674 812 665 848 q 678 737 684 777 z "},"9":{"ha":815,"x_min":134,"x_max":734,"o":"m 195 67 l 179 67 l 171 -7 l 191 -7 q 390 31 303 -7 q 541 134 477 69 q 655 310 612 207 q 716 529 699 412 l 728 607 q 733 699 734 652 q 722 790 732 746 q 693 872 712 833 q 645 939 675 910 q 573 984 614 968 q 478 1001 532 1001 q 390 988 431 1001 q 313 952 349 975 q 245 892 275 927 q 193 816 214 857 q 159 736 172 779 q 141 652 146 694 q 144 536 134 594 q 183 431 155 478 q 258 354 212 384 q 371 324 305 325 q 450 334 412 323 q 521 363 488 344 q 580 408 553 382 q 630 464 608 433 q 596 353 615 401 q 550 262 576 305 q 482 178 521 216 q 394 115 444 140 q 303 80 353 92 q 195 67 253 67 m 383 394 q 298 420 332 395 q 245 483 264 445 q 219 567 225 521 q 220 656 214 613 q 247 754 227 705 q 300 842 268 803 q 377 906 333 882 q 477 931 422 931 q 548 916 518 930 q 599 877 578 901 q 632 821 619 853 q 650 754 644 789 q 655 683 655 719 q 650 616 654 648 l 645 576 q 603 505 630 538 q 541 446 576 471 q 465 408 505 422 q 383 394 425 393 z "}," ":{"ha":815,"x_min":0,"x_max":0,"o":""},"A":{"ha":815,"x_min":-5,"x_max":688,"o":"m 573 275 l 610 0 l 688 0 l 549 987 l 477 987 l -5 0 l 78 0 l 212 275 l 573 275 m 245 349 l 496 864 l 564 349 l 245 349 z "},"B":{"ha":815,"x_min":57,"x_max":759,"o":"m 57 0 l 365 0 q 485 20 427 1 q 590 77 544 40 q 668 165 637 113 q 705 281 699 217 q 702 358 710 321 q 675 425 694 395 q 626 478 655 456 q 555 515 597 501 q 629 551 597 531 q 687 597 662 570 q 729 657 713 623 q 751 732 746 690 q 739 842 759 795 q 682 920 720 888 q 593 969 644 953 q 485 987 541 985 l 229 987 l 57 0 m 219 475 l 455 475 q 530 458 496 473 q 588 418 564 444 q 622 357 611 393 q 626 280 633 322 q 594 195 618 233 q 536 130 570 157 q 457 87 500 102 q 368 71 414 72 l 149 72 l 219 475 m 231 545 l 296 916 l 486 916 q 563 903 526 914 q 626 869 600 891 q 665 813 652 846 q 671 734 678 779 q 640 653 663 688 q 581 594 616 618 q 505 558 547 570 q 419 545 463 545 l 231 545 z "},"C":{"ha":815,"x_min":79,"x_max":773,"o":"m 702 300 l 625 299 q 584 206 609 251 q 525 127 559 161 q 446 74 490 94 q 346 56 401 54 q 266 75 299 57 q 210 121 233 92 q 177 188 189 151 q 160 265 165 225 q 158 346 156 306 q 165 422 159 387 l 190 566 q 210 649 197 606 q 241 732 222 692 q 285 810 260 773 q 342 873 310 846 q 414 917 374 901 q 501 932 454 932 q 591 910 555 932 q 650 854 627 889 q 683 777 673 821 q 694 686 694 732 l 773 686 q 756 806 772 749 q 707 905 741 863 q 624 975 674 949 q 505 1001 573 1001 q 396 983 446 1002 q 306 934 347 965 q 232 860 264 902 q 175 768 199 817 q 134 668 151 720 q 109 565 118 616 l 85 422 q 79 326 79 376 q 89 227 79 275 q 118 136 98 179 q 168 60 137 92 q 242 7 199 27 q 342 -14 286 -12 q 472 10 413 -15 q 576 78 531 35 q 654 178 623 121 q 702 300 686 236 z "},"D":{"ha":815,"x_min":46,"x_max":770,"o":"m 46 0 l 283 0 q 405 18 347 1 q 511 67 462 36 q 596 137 557 96 q 665 226 635 178 q 716 331 696 275 q 747 446 737 387 l 762 542 q 767 648 770 595 q 750 749 764 701 q 709 840 735 798 q 646 914 684 883 q 557 967 608 947 q 444 987 507 986 l 217 987 l 46 0 m 286 918 l 442 918 q 533 899 494 916 q 602 856 573 883 q 648 794 629 829 q 676 721 667 760 q 688 634 687 680 q 683 544 690 589 l 667 446 q 641 351 658 397 q 600 264 625 305 q 543 187 575 222 q 471 127 511 152 q 385 85 431 100 q 285 69 338 71 l 138 70 l 286 918 z "},"E":{"ha":815,"x_min":62,"x_max":796,"o":"m 646 473 l 658 545 l 235 545 l 300 916 l 784 916 l 796 987 l 233 987 l 62 0 l 628 0 l 640 72 l 153 72 l 223 473 l 646 473 z "},"F":{"ha":815,"x_min":68,"x_max":806,"o":"m 651 461 l 663 533 l 239 533 l 307 916 l 793 916 l 806 987 l 239 987 l 68 0 l 147 0 l 227 461 l 651 461 z "},"G":{"ha":815,"x_min":75,"x_max":774,"o":"m 675 118 l 732 470 l 429 470 l 417 398 l 644 398 l 600 144 q 488 76 551 96 q 357 59 425 56 q 276 78 311 60 q 218 125 242 96 q 181 190 195 153 q 160 268 167 227 q 155 349 154 308 q 161 428 155 391 l 185 568 q 205 650 192 608 q 238 733 219 693 q 284 809 258 773 q 342 872 310 846 q 415 914 376 899 q 503 929 455 930 q 587 911 551 928 q 646 863 623 893 q 682 793 669 833 q 696 709 694 753 l 774 709 q 756 823 774 770 q 703 915 738 876 q 620 978 669 955 q 506 1001 570 1000 q 397 984 447 1002 q 306 935 347 966 q 231 861 264 903 q 172 770 197 819 q 130 669 147 722 q 104 566 113 617 l 81 429 q 76 329 75 380 q 88 229 77 277 q 121 137 100 180 q 175 61 142 94 q 252 8 208 28 q 355 -13 297 -12 q 529 18 446 -16 q 675 118 612 52 z "},"H":{"ha":815,"x_min":35,"x_max":805,"o":"m 634 0 l 805 987 l 730 987 l 653 545 l 203 545 l 280 987 l 205 987 l 35 0 l 109 0 l 191 473 l 641 473 l 559 0 l 634 0 z "},"I":{"ha":815,"x_min":56,"x_max":783,"o":"m 227 987 l 215 914 l 448 914 l 302 73 l 68 73 l 56 0 l 612 0 l 624 73 l 384 73 l 530 914 l 770 914 l 783 987 l 227 987 z "},"J":{"ha":815,"x_min":49,"x_max":774,"o":"m 694 987 l 576 300 q 543 208 566 252 q 486 131 520 164 q 407 78 451 98 q 312 58 363 58 q 228 76 263 58 q 169 123 192 94 q 137 194 146 154 q 131 279 127 234 l 51 279 q 64 164 49 218 q 113 72 80 111 q 194 10 145 33 q 308 -14 243 -13 q 435 11 376 -14 q 539 79 494 36 q 615 179 585 121 q 657 300 646 236 l 774 987 l 694 987 z "},"K":{"ha":815,"x_min":62,"x_max":854,"o":"m 353 488 l 614 0 l 706 0 l 412 545 l 854 987 l 749 987 l 359 600 l 222 468 l 313 987 l 232 987 l 62 0 l 142 0 l 202 351 l 353 488 z "},"L":{"ha":815,"x_min":74,"x_max":654,"o":"m 167 72 l 325 987 l 245 987 l 74 0 l 642 0 l 654 72 l 167 72 z "},"M":{"ha":815,"x_min":39,"x_max":814,"o":"m 311 987 l 210 987 l 39 0 l 117 0 l 192 433 l 262 865 l 360 297 l 413 297 l 721 863 l 642 442 l 566 0 l 644 0 l 814 987 l 708 987 l 406 432 l 311 987 z "},"N":{"ha":815,"x_min":36,"x_max":804,"o":"m 633 0 l 804 987 l 724 987 l 580 155 l 283 987 l 206 987 l 36 0 l 115 0 l 260 835 l 557 0 l 633 0 z "},"O":{"ha":815,"x_min":79,"x_max":759,"o":"m 731 429 l 752 559 q 759 655 759 605 q 750 755 759 706 q 723 848 741 804 q 673 926 704 892 q 601 980 644 960 q 500 1001 557 1000 q 392 983 441 1002 q 302 932 342 965 q 229 856 261 899 q 172 762 196 812 q 132 661 149 713 q 107 559 116 608 l 86 429 q 79 332 79 382 q 89 233 79 281 q 117 140 98 184 q 166 62 136 96 q 239 7 197 28 q 340 -14 282 -13 q 448 4 398 -14 q 537 56 497 23 q 610 132 578 88 q 666 224 642 176 q 706 327 690 274 q 731 429 722 379 m 674 561 l 652 429 q 632 346 644 389 q 602 262 620 303 q 558 184 583 221 q 502 119 534 147 q 431 75 470 91 q 344 60 391 59 q 264 78 297 60 q 210 125 231 96 q 176 193 188 155 q 160 272 164 231 q 157 353 155 313 q 164 428 159 393 l 187 560 q 207 642 194 599 q 237 726 219 684 q 281 803 256 766 q 338 868 306 840 q 409 912 370 896 q 496 927 448 928 q 575 909 542 926 q 629 862 608 891 q 663 795 651 833 q 679 717 675 758 q 681 636 683 677 q 674 561 679 595 z "},"P":{"ha":815,"x_min":72,"x_max":804,"o":"m 222 407 l 450 406 q 574 428 514 407 q 680 486 633 448 q 758 578 727 524 q 797 698 789 631 q 788 813 804 760 q 737 903 772 865 q 652 963 703 941 q 539 987 601 985 l 243 987 l 72 0 l 151 0 l 222 407 m 234 477 l 311 918 l 538 918 q 621 898 585 916 q 682 851 658 880 q 715 782 705 821 q 718 696 725 743 q 685 607 709 647 q 625 537 661 566 q 545 493 589 509 q 451 476 500 477 l 234 477 z "},"Q":{"ha":815,"x_min":68,"x_max":774,"o":"m 748 435 l 767 552 q 774 652 774 600 q 763 753 773 703 q 733 848 753 803 q 682 926 713 892 q 605 980 650 960 q 502 1001 560 1000 q 391 983 441 1002 q 298 932 340 964 q 221 855 255 899 q 163 761 188 811 q 121 657 138 711 q 95 552 104 604 l 75 435 q 68 336 68 387 q 79 235 69 284 q 109 141 89 185 q 161 62 130 96 q 237 8 193 28 q 340 -13 281 -12 q 391 -9 366 -13 q 440 2 416 -5 l 589 -172 l 648 -123 l 513 39 q 602 116 563 72 q 671 212 642 160 q 719 320 700 263 q 748 435 738 377 m 688 554 l 668 435 q 647 350 661 393 q 614 264 634 306 q 569 184 595 222 q 510 119 543 147 q 435 75 477 91 q 345 60 394 59 q 262 78 297 60 q 205 126 228 96 q 169 194 182 155 q 151 273 156 232 q 147 356 146 315 q 155 435 149 398 l 175 553 q 195 638 182 595 q 228 724 209 682 q 274 803 248 766 q 334 868 300 840 q 408 912 368 896 q 498 927 449 928 q 581 909 546 926 q 638 862 615 891 q 674 794 661 833 q 692 715 687 756 q 695 632 697 674 q 688 554 694 591 z "},"R":{"ha":815,"x_min":64,"x_max":770,"o":"m 452 413 l 590 0 l 673 0 l 674 9 l 527 431 q 612 474 572 449 q 684 532 652 499 q 735 608 715 566 q 762 700 756 649 q 753 815 770 763 q 701 905 736 867 q 613 964 665 943 q 500 987 562 985 l 235 987 l 64 0 l 142 0 l 214 413 l 452 413 m 226 483 l 301 918 l 498 918 q 582 899 545 916 q 644 854 619 882 q 679 786 669 825 q 682 701 690 747 q 652 614 675 654 q 595 545 629 574 q 518 500 561 517 q 429 482 475 483 l 226 483 z "},"S":{"ha":815,"x_min":66,"x_max":779,"o":"m 625 246 q 594 164 618 199 q 534 105 569 128 q 455 70 498 81 q 368 58 412 58 q 278 74 318 58 q 209 117 237 90 q 164 186 180 146 q 149 275 149 226 l 69 275 q 88 156 66 210 q 150 66 110 103 q 246 7 191 28 q 366 -14 301 -13 q 483 3 425 -14 q 589 52 542 20 q 669 135 637 85 q 708 248 701 184 q 696 349 714 306 q 642 431 678 393 q 557 492 610 465 q 452 538 503 520 q 373 569 414 551 q 303 613 333 588 q 261 669 276 637 q 254 745 247 701 q 284 824 260 789 q 343 882 309 859 q 420 918 378 905 q 503 929 462 930 q 587 911 551 928 q 647 865 623 895 q 684 797 671 836 q 696 713 696 758 l 776 713 q 761 827 779 774 q 706 918 742 880 q 620 978 671 956 q 506 1001 568 1000 q 392 985 449 1002 q 288 934 334 968 q 209 852 241 901 q 172 743 178 804 q 186 639 165 684 q 244 562 207 595 q 329 505 281 528 q 425 464 376 481 q 506 430 465 449 q 576 383 547 412 q 617 325 604 359 q 625 246 631 291 z "},"T":{"ha":815,"x_min":150,"x_max":851,"o":"m 839 916 l 851 987 l 162 987 l 150 916 l 456 916 l 297 0 l 375 0 l 533 916 l 839 916 z "},"U":{"ha":815,"x_min":81,"x_max":806,"o":"m 806 987 l 729 987 l 612 319 q 580 222 603 269 q 523 138 557 175 q 443 80 488 102 q 342 58 397 58 q 253 82 290 59 q 195 143 217 106 q 168 226 174 180 q 167 318 161 272 l 281 987 l 205 987 l 90 318 q 93 197 81 256 q 138 91 106 138 q 220 16 170 45 q 338 -14 271 -13 q 469 13 409 -14 q 574 86 529 41 q 651 193 621 132 q 692 319 681 254 l 806 987 z "},"V":{"ha":815,"x_min":149,"x_max":838,"o":"m 303 0 l 377 0 l 838 987 l 751 987 l 378 174 l 356 125 l 350 176 l 232 987 l 149 988 l 303 0 z "},"W":{"ha":815,"x_min":127,"x_max":867,"o":"m 127 0 l 208 0 l 458 743 l 481 817 l 483 743 l 499 1 l 578 0 l 867 987 l 791 987 l 586 273 l 559 185 l 560 271 l 541 987 l 471 987 l 232 284 l 201 188 l 204 281 l 221 987 l 146 987 l 127 0 z "},"X":{"ha":815,"x_min":5,"x_max":843,"o":"m 437 567 l 261 988 l 172 988 l 385 505 l 5 0 l 103 0 l 422 435 l 606 0 l 694 0 l 475 496 l 843 987 l 745 987 l 437 567 z "},"Y":{"ha":815,"x_min":152,"x_max":844,"o":"m 400 451 l 240 988 l 152 988 l 352 377 l 288 0 l 362 0 l 427 367 l 844 987 l 749 987 l 400 451 z "},"Z":{"ha":815,"x_min":22,"x_max":770,"o":"m 127 72 l 762 924 l 770 987 l 191 987 l 180 916 l 663 916 l 31 67 l 22 0 l 635 0 l 646 72 l 127 72 z "},"a":{"ha":815,"x_min":71,"x_max":702,"o":"m 549 0 l 633 0 l 633 9 q 629 81 629 45 q 635 154 629 117 l 695 509 q 686 609 702 565 q 637 684 670 654 q 558 731 604 715 q 458 748 512 747 q 357 734 408 748 q 264 693 307 720 q 192 626 222 666 q 152 532 161 585 l 232 532 q 263 596 241 569 q 315 642 286 624 q 380 670 345 661 q 452 679 416 680 q 524 668 491 679 q 578 635 556 656 q 611 582 601 613 q 616 510 622 551 l 603 427 l 444 428 q 363 422 404 427 q 283 407 322 418 q 208 378 243 396 q 144 334 173 360 q 98 273 117 308 q 75 192 80 238 q 86 107 71 144 q 130 43 101 69 q 198 2 159 16 q 283 -13 238 -12 q 369 -3 328 -14 q 449 28 411 8 q 505 63 478 43 q 554 109 531 84 q 548 55 549 81 q 549 0 546 28 m 294 59 q 236 69 263 60 q 189 97 209 79 q 160 141 170 115 q 156 200 151 167 q 175 256 161 232 q 210 298 189 280 q 254 326 230 315 q 304 345 278 337 q 380 360 341 356 q 454 365 420 365 l 592 364 l 564 203 q 511 143 541 170 q 448 98 481 117 q 375 68 414 79 q 294 59 336 58 z "},"b":{"ha":815,"x_min":61,"x_max":705,"o":"m 698 361 l 700 376 q 705 460 705 417 q 696 545 705 504 q 672 623 688 587 q 629 687 656 659 q 564 730 602 714 q 476 747 526 747 q 401 738 437 748 q 334 709 366 728 q 287 675 309 694 q 245 632 264 655 l 321 1042 l 241 1042 l 61 0 l 136 0 l 158 96 q 190 54 172 73 q 230 22 208 36 q 291 -4 258 5 q 359 -14 324 -14 q 454 1 411 -14 q 532 43 497 16 q 595 107 568 71 q 644 185 623 143 q 677 272 664 227 q 698 361 691 317 m 620 376 l 617 362 q 599 283 611 323 q 568 208 587 244 q 530 149 552 176 q 481 101 508 121 q 420 69 454 81 q 348 58 387 58 q 286 68 315 58 q 235 96 257 78 q 197 137 213 113 q 173 191 181 161 l 233 530 q 272 588 248 562 q 326 635 296 615 q 389 665 355 654 q 458 676 423 676 q 525 663 496 675 q 572 629 553 651 q 603 581 591 608 q 619 523 614 553 q 625 449 626 487 q 620 376 625 411 z "},"c":{"ha":815,"x_min":92,"x_max":713,"o":"m 353 56 q 282 69 313 56 q 231 104 252 82 q 197 155 210 125 q 178 217 184 184 q 172 284 172 250 q 176 352 172 319 l 181 380 q 199 454 187 417 q 229 523 211 490 q 269 584 246 556 q 321 633 292 612 q 387 667 351 655 q 465 678 422 679 q 539 663 506 677 q 594 622 572 648 q 626 562 616 596 q 635 487 637 527 l 711 486 q 697 590 713 543 q 648 672 681 637 q 570 727 616 707 q 467 747 524 747 q 328 718 391 748 q 218 637 264 688 q 142 518 172 585 q 101 380 112 451 l 97 352 q 94 271 92 311 q 103 193 95 231 q 134 113 114 151 q 184 47 154 75 q 256 3 214 20 q 351 -14 298 -13 q 457 3 405 -14 q 551 52 509 20 q 623 128 593 83 q 663 227 653 172 l 587 227 q 553 156 576 187 q 500 102 531 124 q 432 67 469 79 q 353 56 394 55 z "},"d":{"ha":815,"x_min":91,"x_max":787,"o":"m 98 372 l 96 357 q 92 274 91 317 q 101 191 92 231 q 126 113 109 149 q 170 48 143 76 q 233 4 196 20 q 320 -14 271 -13 q 392 -5 357 -14 q 457 20 426 3 q 507 53 484 34 q 550 94 530 71 l 533 0 l 607 0 l 787 1042 l 707 1042 l 634 634 q 603 678 621 659 q 563 712 585 698 q 505 738 536 729 q 439 747 473 747 q 345 733 388 748 q 265 691 301 718 q 202 628 230 664 q 153 549 174 591 q 118 462 132 507 q 98 372 104 416 m 176 357 l 178 372 q 207 480 186 425 q 261 578 228 534 q 341 650 294 623 q 451 676 389 677 q 511 666 484 676 q 560 637 538 656 q 597 594 582 619 q 621 538 612 568 l 559 185 q 519 136 541 159 q 470 96 496 113 q 408 68 441 78 q 338 58 374 58 q 269 73 298 59 q 220 109 239 86 q 190 162 201 132 q 174 224 179 191 q 170 292 170 258 q 176 357 171 326 z "},"e":{"ha":815,"x_min":81,"x_max":720,"o":"m 365 -14 q 520 19 446 -14 q 645 115 593 52 l 597 155 q 494 82 551 109 q 370 56 437 55 q 271 82 313 57 q 203 148 229 108 q 168 247 176 194 q 172 361 161 300 l 703 361 l 711 411 q 709 534 720 474 q 669 642 699 595 q 589 718 639 689 q 469 747 539 747 q 372 734 418 748 q 287 693 326 720 q 215 632 248 667 q 157 555 182 596 q 116 467 132 513 q 93 375 100 421 l 89 345 q 95 215 81 278 q 141 104 109 153 q 233 20 176 52 q 365 -14 289 -13 m 466 677 q 549 656 513 677 q 606 602 584 635 q 635 527 628 569 q 635 441 643 484 l 633 431 l 183 431 q 225 522 199 477 q 287 602 252 567 q 367 657 322 636 q 466 677 412 679 z "},"f":{"ha":815,"x_min":164,"x_max":848,"o":"m 242 0 l 325 0 l 439 667 l 723 667 l 734 734 l 450 734 l 460 792 q 490 879 469 842 q 542 942 511 916 q 615 980 574 967 q 705 993 656 993 q 768 988 737 993 q 830 975 800 984 l 848 1044 q 774 1058 811 1053 q 700 1064 738 1063 q 580 1046 634 1064 q 485 993 526 1027 q 417 907 444 958 q 379 792 390 857 l 370 734 l 176 734 l 164 667 l 358 667 l 242 0 z "},"g":{"ha":815,"x_min":45,"x_max":735,"o":"m 99 372 l 97 357 q 92 274 92 317 q 102 190 93 231 q 126 113 110 149 q 170 48 143 76 q 234 4 197 20 q 321 -14 271 -13 q 392 -5 357 -14 q 458 20 427 3 q 506 51 483 33 q 548 91 528 69 l 532 9 q 500 -82 522 -39 q 446 -156 478 -125 q 371 -206 414 -188 q 275 -223 328 -224 q 171 -194 216 -222 q 94 -117 126 -165 l 45 -166 q 146 -258 85 -225 q 278 -292 207 -292 q 403 -270 347 -294 q 503 -205 460 -246 q 573 -107 545 -163 q 612 13 601 -52 l 735 734 l 660 734 l 637 631 q 606 676 624 656 q 566 711 588 696 q 507 738 539 729 q 440 748 475 747 q 345 733 388 749 q 266 691 302 718 q 202 628 230 665 q 153 549 174 591 q 119 462 133 507 q 99 372 106 416 m 176 357 l 179 372 q 208 480 188 425 q 262 578 229 534 q 342 650 295 623 q 452 676 389 677 q 515 665 486 676 q 566 633 544 653 q 600 589 586 614 q 621 534 614 564 l 560 189 q 517 135 542 159 q 465 92 493 110 q 405 67 437 76 q 338 58 373 58 q 270 73 298 59 q 221 109 241 86 q 190 162 201 132 q 175 224 179 192 q 171 292 170 258 q 176 357 172 326 z "},"h":{"ha":815,"x_min":57,"x_max":708,"o":"m 235 591 l 317 1042 l 237 1042 l 57 0 l 137 0 l 224 505 q 268 571 241 540 q 329 625 295 602 q 401 663 363 649 q 479 676 439 676 q 556 659 526 675 q 603 613 587 642 q 624 547 620 585 q 622 469 627 510 l 542 0 l 622 0 l 701 469 q 701 573 708 523 q 669 662 694 624 q 604 724 646 701 q 501 747 563 747 q 421 736 459 748 q 349 703 382 724 q 287 653 315 682 q 235 591 258 624 z "},"i":{"ha":815,"x_min":75,"x_max":661,"o":"m 201 734 l 190 661 l 441 661 l 338 73 l 87 73 l 75 0 l 648 0 l 661 73 l 418 73 l 533 734 l 201 734 m 465 934 q 479 891 464 907 q 522 875 495 875 q 566 892 549 875 q 585 935 584 909 q 572 980 587 962 q 529 997 556 998 q 485 979 502 996 q 465 934 467 961 z "},"j":{"ha":815,"x_min":11,"x_max":643,"o":"m 254 734 l 242 661 l 499 661 l 385 -1 q 358 -90 377 -49 q 309 -161 339 -131 q 239 -209 279 -191 q 147 -227 198 -227 q 85 -224 116 -227 q 24 -217 54 -222 l 11 -286 q 80 -294 46 -291 q 150 -297 115 -297 q 271 -274 217 -296 q 364 -212 324 -251 q 430 -118 404 -172 q 465 0 455 -64 l 591 734 l 254 734 m 520 935 q 534 891 518 907 q 577 875 550 874 q 622 893 604 876 q 641 936 639 909 q 627 981 643 963 q 584 998 612 998 q 539 979 557 997 q 520 935 522 962 z "},"k":{"ha":815,"x_min":72,"x_max":758,"o":"m 321 370 l 561 0 l 657 0 l 381 421 l 758 734 l 648 734 l 313 460 l 218 378 l 332 1042 l 252 1042 l 72 0 l 152 0 l 199 275 l 321 370 z "},"l":{"ha":815,"x_min":75,"x_max":661,"o":"m 255 1042 l 243 969 l 496 969 l 340 73 l 87 73 l 75 0 l 648 0 l 661 73 l 420 73 l 588 1042 l 255 1042 z "},"m":{"ha":815,"x_min":-12,"x_max":779,"o":"m 186 734 l 115 734 l -12 0 l 63 0 l 161 559 q 184 605 170 583 q 216 642 198 626 q 259 667 235 658 q 311 676 283 676 q 356 666 338 676 q 382 639 373 656 q 392 599 391 621 q 391 553 394 577 l 296 0 l 372 0 l 469 566 q 490 605 476 585 q 524 643 504 626 q 566 667 543 659 q 618 676 589 676 q 665 666 647 677 q 692 636 683 654 q 701 594 700 618 q 699 547 702 571 l 606 0 l 681 0 l 774 545 q 775 620 779 583 q 756 684 771 656 q 712 730 741 713 q 640 747 684 747 q 541 721 585 747 q 467 652 498 694 q 451 692 462 675 q 426 722 441 710 q 387 742 409 735 q 339 747 365 748 q 242 721 284 747 q 170 651 201 695 l 186 734 z "},"n":{"ha":815,"x_min":56,"x_max":707,"o":"m 56 0 l 136 0 l 223 502 q 266 569 239 537 q 327 625 293 601 q 399 662 360 648 q 477 676 437 676 q 555 659 524 676 q 602 614 585 642 q 622 548 618 586 q 620 469 625 511 l 540 0 l 620 0 l 699 467 q 699 573 707 522 q 667 663 692 625 q 602 724 644 701 q 500 747 561 747 q 419 736 457 748 q 347 703 381 724 q 284 653 313 682 q 232 591 256 625 l 256 734 l 183 734 l 56 0 z "},"o":{"ha":815,"x_min":72,"x_max":723,"o":"m 81 375 l 78 353 q 76 260 72 307 q 93 173 79 214 q 123 107 104 138 q 167 51 142 76 q 242 4 199 22 q 340 -14 285 -13 q 481 17 417 -14 q 593 100 545 47 q 672 218 642 151 q 714 357 703 286 l 717 378 q 720 471 723 425 q 703 559 716 517 q 671 630 691 597 q 623 687 650 663 q 550 731 593 715 q 456 747 508 747 q 315 718 378 749 q 205 637 252 688 q 124 517 155 585 q 81 375 92 448 m 157 353 l 161 375 q 194 484 171 430 q 255 582 218 538 q 341 652 292 625 q 453 678 391 679 q 543 653 507 677 q 602 592 580 629 q 637 490 630 548 q 637 378 645 433 l 634 357 q 602 251 626 307 q 541 151 577 194 q 454 81 503 108 q 342 56 404 54 q 246 82 285 56 q 186 149 207 109 q 156 248 163 193 q 157 353 150 302 z "},"p":{"ha":815,"x_min":10,"x_max":703,"o":"m 695 362 l 697 376 q 702 461 703 418 q 694 545 702 504 q 669 623 686 587 q 627 687 653 659 q 562 730 600 714 q 473 747 524 747 q 399 738 435 748 q 332 711 364 728 q 283 676 307 696 q 241 633 260 656 l 260 734 l 186 734 l 10 -282 l 90 -282 l 157 90 q 190 49 171 66 q 231 18 209 31 q 291 -5 259 3 q 357 -14 323 -14 q 446 0 405 -14 q 522 38 488 14 q 592 105 562 65 q 644 191 623 146 q 676 276 663 232 q 695 362 689 319 m 617 376 l 615 362 q 599 291 610 327 q 572 222 588 256 q 532 155 555 186 q 479 101 509 123 q 417 68 451 80 q 342 56 382 56 q 283 65 311 56 q 233 89 256 73 q 195 127 212 104 q 169 180 178 151 l 232 538 q 271 591 250 566 q 319 633 293 615 q 381 665 348 654 q 452 676 415 676 q 522 662 492 675 q 570 627 551 649 q 599 580 588 606 q 615 524 610 554 q 622 449 623 488 q 617 376 622 411 z "},"q":{"ha":815,"x_min":91,"x_max":734,"o":"m 98 372 l 96 357 q 92 274 91 317 q 101 190 93 231 q 126 112 109 149 q 170 48 143 75 q 234 4 197 20 q 321 -14 272 -13 q 389 -6 356 -14 q 451 16 421 1 q 502 47 477 29 q 547 87 526 64 l 479 -282 l 559 -282 l 734 734 l 659 734 l 637 636 q 604 681 623 661 q 562 714 585 701 q 505 739 536 730 q 441 747 475 747 q 346 733 389 748 q 266 692 302 718 q 202 629 231 665 q 153 550 174 592 q 119 463 133 508 q 98 372 106 417 m 176 357 l 179 372 q 195 440 184 406 q 220 508 205 475 q 260 575 237 543 q 313 631 283 608 q 376 666 341 653 q 453 678 411 679 q 512 667 485 677 q 562 639 540 657 q 598 597 583 621 q 623 543 614 572 l 558 180 q 515 129 539 152 q 463 90 492 106 q 404 65 435 74 q 339 56 373 56 q 270 71 298 57 q 221 108 241 85 q 191 161 201 131 q 175 224 180 191 q 171 292 170 257 q 176 357 172 326 z "},"r":{"ha":815,"x_min":166,"x_max":763,"o":"m 652 748 q 561 738 604 748 q 478 707 517 727 q 406 656 439 686 q 345 589 372 626 l 351 623 l 369 734 l 293 734 l 166 0 l 248 0 l 329 470 q 382 558 349 519 q 457 621 415 596 q 542 656 496 644 q 635 668 587 668 q 689 664 662 668 q 743 655 716 661 l 763 733 q 708 744 736 741 q 652 748 680 748 z "},"s":{"ha":815,"x_min":91,"x_max":720,"o":"m 589 190 q 559 127 583 153 q 503 85 536 101 q 434 63 471 70 q 365 56 397 56 q 294 64 328 56 q 232 90 259 73 q 189 137 205 108 q 172 206 172 165 l 92 207 q 114 109 91 150 q 176 41 138 67 q 263 0 214 13 q 363 -14 312 -13 q 464 -3 412 -14 q 559 35 516 9 q 633 99 604 59 q 669 194 663 138 q 657 271 674 237 q 609 330 641 305 q 549 365 581 351 q 485 389 517 378 q 432 406 460 398 q 378 421 404 413 q 330 437 354 428 q 286 461 305 447 q 257 496 267 475 q 251 548 246 517 q 279 609 257 584 q 332 649 301 633 q 396 671 361 664 q 463 677 431 677 q 529 668 496 677 q 587 641 562 659 q 627 594 612 622 q 640 528 641 566 l 719 528 q 700 624 720 583 q 644 692 679 665 q 562 733 608 720 q 465 747 515 747 q 374 738 420 748 q 287 705 328 727 q 209 641 242 682 q 172 545 176 600 q 184 471 168 503 q 226 418 199 440 q 281 383 250 397 q 345 359 313 368 q 397 343 370 351 q 450 328 424 336 q 499 311 473 321 q 548 286 526 301 q 584 245 572 268 q 589 190 595 222 z "},"t":{"ha":815,"x_min":157,"x_max":711,"o":"m 479 922 l 399 922 l 366 734 l 168 734 l 157 667 l 355 667 l 276 207 q 281 117 271 157 q 315 48 291 77 q 377 4 340 20 q 465 -13 415 -12 q 543 -9 503 -14 q 617 9 582 -5 l 610 72 q 546 62 578 66 q 481 59 514 58 q 421 70 447 60 q 380 99 396 80 q 358 145 364 118 q 357 207 352 172 l 435 667 l 699 667 l 711 734 l 447 734 l 479 922 z "},"u":{"ha":815,"x_min":103,"x_max":740,"o":"m 307 -14 q 450 20 386 -14 q 559 116 513 55 l 538 0 l 613 0 l 740 734 l 659 734 l 570 216 q 529 150 554 180 q 471 100 503 121 q 399 68 438 79 q 320 58 361 58 q 243 79 272 59 q 201 131 215 99 q 185 202 187 163 q 190 281 184 242 l 267 734 l 186 734 l 110 283 q 109 175 103 228 q 138 80 115 122 q 202 13 161 39 q 307 -14 244 -13 z "},"v":{"ha":815,"x_min":123,"x_max":788,"o":"m 309 0 l 374 0 l 788 734 l 702 734 l 372 135 l 353 95 l 347 135 l 201 734 l 123 734 l 309 0 z "},"w":{"ha":815,"x_min":98,"x_max":834,"o":"m 130 0 l 195 0 l 404 496 l 446 613 l 446 506 l 486 0 l 550 0 l 834 734 l 759 734 l 576 238 l 531 112 l 528 233 l 492 734 l 436 734 l 232 244 l 183 118 l 184 234 l 170 734 l 98 734 l 130 0 z "},"x":{"ha":815,"x_min":20,"x_max":781,"o":"m 412 436 l 239 734 l 149 734 l 363 378 l 20 0 l 120 0 l 400 311 l 584 0 l 673 0 l 450 370 l 781 733 l 680 734 l 412 436 z "},"y":{"ha":815,"x_min":-20,"x_max":815,"o":"m 348 153 l 194 734 l 108 734 l 304 24 l 233 -90 q 199 -138 218 -114 q 158 -182 180 -162 q 109 -213 136 -201 q 51 -224 82 -224 q 23 -222 37 -224 q -5 -219 9 -220 l -20 -288 q 15 -294 -3 -292 q 50 -297 32 -297 q 130 -282 93 -297 q 198 -243 167 -267 q 255 -185 229 -218 q 301 -118 280 -153 l 815 734 l 721 734 l 361 122 l 348 153 z "},"z":{"ha":815,"x_min":35,"x_max":740,"o":"m 153 70 l 730 671 l 740 734 l 163 734 l 153 663 l 619 663 l 45 64 l 35 0 l 660 0 l 670 70 l 153 70 z "},"¹":{"ha":815,"x_min":345,"x_max":587,"o":"m 497 451 l 587 987 l 576 987 l 355 916 l 345 852 l 505 898 l 427 451 l 497 451 z "},"²":{"ha":815,"x_min":239,"x_max":660,"o":"m 616 452 l 626 513 l 342 513 l 505 646 q 553 686 528 665 q 600 732 578 707 q 637 785 622 757 q 656 844 652 812 q 648 909 660 881 q 614 956 637 937 q 563 985 593 975 q 498 996 532 996 q 424 984 459 996 q 362 949 389 972 q 316 896 334 927 q 291 826 298 865 l 362 826 q 399 891 374 865 q 462 922 425 917 q 502 929 481 929 q 541 920 522 928 q 576 893 564 913 q 583 844 589 873 q 567 801 579 821 q 538 762 555 780 q 502 727 521 743 q 467 696 484 711 l 248 507 l 239 452 l 616 452 z "},"³":{"ha":815,"x_min":254,"x_max":672,"o":"m 614 683 q 586 707 603 697 q 550 724 570 717 q 592 743 572 732 q 627 769 612 754 q 654 803 644 784 q 668 847 665 822 q 660 911 672 884 q 624 958 647 939 q 570 985 601 976 q 506 995 538 995 q 437 985 470 995 q 378 957 404 975 q 333 910 351 938 q 307 846 314 882 l 378 846 q 428 912 393 889 q 507 935 462 935 q 546 929 528 935 q 576 911 564 923 q 596 884 590 901 q 598 845 602 867 q 580 803 594 821 q 546 774 566 786 q 504 758 527 764 q 458 751 481 752 l 409 752 l 403 696 l 456 696 q 500 690 479 695 q 539 675 522 686 q 564 647 555 665 q 568 603 573 629 q 551 559 564 578 q 519 529 538 541 q 477 511 500 517 q 431 505 454 505 q 387 511 408 505 q 353 529 367 517 q 331 559 339 541 q 324 601 323 577 l 255 601 q 268 534 254 563 q 305 485 281 505 q 361 455 329 465 q 429 444 393 445 q 500 454 465 444 q 566 483 536 463 q 614 532 595 503 q 637 601 634 562 q 634 647 640 626 q 614 683 628 667 z "},"ª":{"ha":815,"x_min":231,"x_max":668,"o":"m 552 477 l 625 478 q 622 540 621 509 q 628 601 623 570 q 646 707 640 672 q 663 814 652 743 q 660 887 668 853 q 631 947 651 922 q 580 986 611 972 q 508 1001 549 1001 q 433 992 469 1002 q 366 962 396 983 q 315 913 336 943 q 286 844 294 883 l 357 840 q 379 883 366 865 q 412 913 393 901 q 454 930 431 925 q 503 935 477 936 q 548 925 530 935 q 576 899 566 915 q 590 861 587 882 q 589 815 593 839 l 582 774 l 476 774 q 396 766 437 774 q 321 739 355 758 q 263 690 287 720 q 235 614 239 660 q 242 553 231 580 q 273 507 252 526 q 321 478 293 488 q 383 469 350 469 q 477 492 434 469 q 552 553 519 515 q 550 515 550 534 q 552 477 550 497 m 400 533 q 362 538 380 533 q 331 553 345 543 q 312 579 318 564 q 309 617 305 595 q 331 665 313 646 q 372 696 348 684 q 422 712 395 707 q 475 718 450 717 l 575 718 l 558 622 q 531 589 547 604 q 498 562 516 574 q 450 541 475 549 q 400 533 425 534 z "},"º":{"ha":815,"x_min":237,"x_max":686,"o":"m 253 774 l 242 694 q 247 609 237 650 q 279 536 256 568 q 338 487 302 506 q 422 468 374 469 q 514 485 472 467 q 588 534 556 503 q 641 606 620 565 q 669 694 662 648 l 680 774 q 676 860 686 819 q 644 932 667 901 q 585 982 621 963 q 500 1001 549 1000 q 409 984 451 1002 q 334 935 367 966 q 281 862 302 904 q 253 774 260 821 m 315 694 l 326 774 q 346 836 332 806 q 381 887 360 865 q 431 923 402 910 q 494 936 459 936 q 552 921 528 935 q 589 884 576 907 q 607 833 603 862 q 608 774 612 804 l 596 694 q 577 633 591 663 q 541 581 563 604 q 492 546 520 559 q 429 533 464 532 q 371 547 395 533 q 334 583 347 561 q 316 634 320 606 q 315 694 311 663 z "},"½":{"ha":815,"x_min":115,"x_max":743,"o":"m 259 507 l 340 989 l 330 989 l 131 925 l 121 867 l 265 909 l 196 507 l 259 507 m 703 0 l 713 54 l 457 54 l 604 174 q 647 211 625 191 q 690 252 670 230 q 723 299 709 274 q 740 353 736 324 q 733 411 743 386 q 703 454 722 437 q 656 480 683 471 q 598 489 629 489 q 531 479 562 490 q 475 448 500 468 q 434 399 450 427 q 411 336 418 371 l 475 336 q 492 376 481 358 q 517 407 503 394 q 553 428 533 420 q 599 435 574 435 q 632 430 617 435 q 659 413 648 424 q 673 388 669 403 q 675 353 678 372 q 660 314 671 332 q 633 279 648 295 q 602 248 618 262 q 570 220 585 233 l 373 49 l 364 0 l 703 0 m 168 123 l 633 829 l 581 863 l 115 158 l 168 123 z "},"¼":{"ha":815,"x_min":123,"x_max":725,"o":"m 261 509 l 342 991 l 332 991 l 133 928 l 123 870 l 267 911 l 198 509 l 261 509 m 650 168 l 704 481 l 635 481 l 347 157 l 342 114 l 577 114 l 557 0 l 621 0 l 641 114 l 715 114 l 725 168 l 650 168 m 420 168 l 606 370 l 629 399 l 587 168 l 420 168 m 195 123 l 661 829 l 608 863 l 143 158 l 195 123 z "},"¾":{"ha":815,"x_min":79,"x_max":744,"o":"m 669 169 l 722 482 l 654 481 l 366 158 l 361 115 l 596 114 l 576 1 l 640 1 l 659 114 l 734 114 l 744 169 l 669 169 m 439 169 l 625 371 l 648 400 l 605 169 l 439 169 m 218 774 l 212 724 l 260 724 q 300 720 281 724 q 335 706 320 715 q 358 680 350 696 q 361 641 366 665 q 346 602 358 618 q 317 574 334 585 q 279 557 300 563 q 237 552 258 552 q 198 558 216 552 q 166 575 179 564 q 148 602 155 586 q 142 639 141 618 l 79 639 q 91 578 79 604 q 125 534 103 552 q 175 508 146 517 q 236 498 203 498 q 300 507 268 498 q 359 532 332 515 q 403 577 385 550 q 424 638 420 604 q 420 682 426 663 q 401 715 414 701 q 376 735 390 726 q 345 749 361 743 q 382 766 364 756 q 414 790 400 777 q 439 821 429 804 q 451 860 449 838 q 444 918 455 893 q 412 960 432 943 q 362 985 391 977 q 305 994 334 994 q 243 985 273 994 q 190 959 214 976 q 149 917 166 942 q 127 859 132 892 l 191 859 q 235 919 204 898 q 307 939 265 939 q 341 934 325 939 q 369 918 357 928 q 386 893 381 908 q 389 859 391 878 q 372 821 385 836 q 341 795 359 805 q 303 780 324 785 q 262 774 282 775 l 218 774 m 242 120 l 707 825 l 655 861 l 190 155 l 242 120 z "},"Æ":{"ha":815,"x_min":-36,"x_max":852,"o":"m 701 0 l 713 70 l 454 70 l 519 479 l 737 479 l 748 549 l 531 549 l 589 918 l 840 918 l 852 987 l 498 987 l -36 0 l 51 0 l 189 264 l 411 264 l 369 0 l 701 0 m 229 341 l 508 871 l 423 341 l 229 341 z "},"æ":{"ha":815,"x_min":-9,"x_max":800,"o":"m 522 -13 q 576 -8 549 -13 q 627 8 602 -3 q 670 31 649 17 q 710 62 692 45 l 690 123 q 655 97 673 110 q 618 76 637 85 q 579 62 599 67 q 537 57 559 57 q 462 77 490 57 q 421 128 434 97 q 405 198 407 159 q 409 275 404 237 l 423 364 l 772 364 l 793 485 q 794 582 800 534 q 770 665 789 629 q 714 724 750 701 q 625 747 679 747 q 523 719 569 748 q 442 642 477 689 q 389 723 428 697 q 293 748 349 748 q 210 734 248 748 q 142 695 172 720 q 94 633 113 669 q 70 553 75 597 l 146 551 q 164 601 152 578 q 194 642 176 625 q 236 669 212 659 q 289 677 260 678 q 338 666 319 677 q 366 636 357 654 q 378 594 376 618 q 375 544 380 570 l 355 429 l 266 429 q 165 412 212 429 q 82 364 118 395 q 23 289 46 333 q -5 191 0 245 q -2 115 -9 151 q 24 50 5 78 q 74 4 43 21 q 149 -14 105 -13 q 209 -4 180 -14 q 262 21 237 5 q 309 59 288 37 q 349 105 330 80 q 374 56 358 77 q 412 20 391 35 q 462 -4 434 4 q 522 -13 490 -13 m 620 678 q 676 661 655 677 q 708 620 698 645 q 721 565 719 595 q 720 507 723 534 l 709 431 l 431 431 l 437 460 q 458 534 444 495 q 492 604 471 572 q 545 658 514 637 q 620 678 576 679 m 162 55 q 115 66 134 55 q 85 97 96 78 q 72 140 75 116 q 73 188 69 163 q 95 256 79 224 q 138 311 112 288 q 195 349 163 335 q 266 363 228 363 l 347 363 l 309 145 q 280 112 296 128 q 246 83 264 95 q 206 62 227 70 q 162 55 185 55 z "},"Œ":{"ha":815,"x_min":37,"x_max":882,"o":"m 714 0 l 726 70 l 433 70 l 503 474 l 754 474 l 766 544 l 515 544 l 581 918 l 870 918 l 882 987 l 578 987 q 498 995 537 990 q 418 998 458 999 q 316 979 361 998 q 234 930 270 961 q 182 871 205 904 q 141 802 159 839 q 107 714 121 760 q 86 622 94 668 l 44 366 q 38 294 39 331 q 41 220 37 256 q 56 147 45 182 q 85 83 66 112 q 152 17 111 43 q 257 -9 194 -8 q 337 -6 298 -11 q 418 0 377 -2 l 714 0 m 259 60 q 193 77 220 62 q 150 116 166 92 q 126 171 134 140 q 116 235 118 202 q 117 302 114 269 q 123 366 119 336 l 165 623 q 191 730 174 676 q 237 827 208 784 q 310 900 267 871 q 415 929 353 928 q 461 929 438 930 q 505 926 484 928 l 351 61 q 305 59 328 60 q 259 60 282 59 z "},"œ":{"ha":815,"x_min":-4,"x_max":812,"o":"m 291 748 q 210 733 246 748 q 144 693 173 719 q 102 645 121 672 q 68 588 83 618 q 38 508 50 549 q 20 427 26 467 l 1 306 q -4 237 -3 273 q 1 165 -4 201 q 18 98 6 130 q 52 41 31 66 q 103 2 73 16 q 175 -14 134 -13 q 254 1 218 -14 q 319 43 290 17 q 352 80 337 60 q 379 123 368 101 q 397 75 385 98 q 425 34 408 52 q 475 0 446 12 q 540 -13 504 -12 q 591 -8 566 -14 q 639 7 616 -3 q 680 30 661 16 q 718 59 700 43 l 695 117 q 662 94 679 105 q 625 74 644 83 q 586 61 606 66 q 543 57 565 56 q 496 70 515 58 q 466 102 477 83 q 448 148 454 123 q 441 199 443 173 q 443 251 441 226 q 448 295 445 275 l 458 357 l 788 357 l 807 467 q 811 529 811 497 q 806 593 812 562 q 790 652 802 624 q 760 701 779 680 q 712 735 741 722 q 647 747 684 747 q 580 735 610 748 q 525 701 550 722 q 485 657 503 682 q 453 609 467 633 q 435 659 447 635 q 407 701 424 683 q 356 735 385 723 q 291 748 327 747 m 81 305 l 100 428 q 111 479 104 452 q 127 536 117 507 q 152 590 138 564 q 186 635 167 616 q 230 667 205 655 q 285 678 254 679 q 334 665 314 678 q 366 631 354 652 q 384 583 378 610 q 390 529 389 557 q 389 475 391 501 q 385 428 387 448 l 366 305 q 355 254 361 281 q 338 197 348 226 q 313 144 328 170 q 280 98 299 118 q 236 66 261 78 q 181 55 212 54 q 131 68 151 56 q 99 102 111 81 q 82 150 87 123 q 75 204 77 177 q 77 258 75 232 q 81 305 79 285 m 465 425 l 467 434 q 478 482 471 455 q 495 536 485 509 q 518 589 505 563 q 550 635 532 614 q 590 666 568 654 q 642 678 613 678 q 682 669 665 677 q 709 645 698 660 q 724 615 718 632 q 732 581 729 598 q 735 530 736 556 q 731 484 734 504 l 722 427 l 465 425 z "},"ð":{"ha":815,"x_min":33,"x_max":758,"o":"m 689 640 q 660 761 681 701 q 605 876 640 820 l 758 953 l 730 1007 l 563 922 q 468 997 519 966 q 357 1050 416 1028 l 324 981 q 412 939 370 962 q 488 880 453 915 l 323 796 l 351 743 l 533 836 q 599 702 579 774 q 615 553 618 630 q 574 597 597 578 q 524 629 551 616 q 469 648 498 642 q 408 654 439 654 q 271 629 334 656 q 160 556 208 602 q 81 447 112 509 q 41 313 50 385 q 47 192 33 251 q 94 88 61 134 q 179 15 127 43 q 297 -14 231 -12 q 400 1 352 -14 q 488 45 448 17 q 556 106 526 71 q 612 182 587 142 q 654 276 637 227 q 679 376 671 326 l 686 424 q 695 533 694 479 q 689 640 696 587 m 475 131 q 399 77 441 97 q 303 57 356 56 q 214 81 252 58 q 153 140 176 104 q 123 222 131 176 q 122 313 115 267 q 154 416 130 367 q 214 503 178 465 q 299 563 251 541 q 406 584 348 585 q 469 577 437 584 q 529 555 501 570 q 579 518 557 541 q 613 465 602 496 l 608 425 l 599 375 q 582 305 593 340 q 553 237 570 270 q 518 180 538 207 q 475 131 498 153 z "},"Þ":{"ha":815,"x_min":55,"x_max":751,"o":"m 306 987 l 226 987 l 55 0 l 135 0 l 173 220 l 391 219 q 516 239 456 220 q 623 294 576 258 q 703 383 671 330 q 743 503 734 435 q 733 618 751 567 q 678 705 715 669 q 590 761 642 741 q 477 782 538 780 l 270 782 l 306 987 m 258 712 l 476 712 q 559 695 522 711 q 623 652 597 680 q 660 587 648 625 q 663 502 671 549 q 630 413 655 452 q 568 346 604 374 q 486 304 532 319 q 392 289 440 290 l 184 290 l 258 712 z "},"þ":{"ha":815,"x_min":10,"x_max":703,"o":"m 483 12 q 536 45 511 25 q 581 90 561 66 q 615 136 600 111 q 643 186 631 161 q 676 273 663 229 q 695 361 689 318 l 697 376 q 703 459 703 416 q 696 543 703 502 q 673 621 688 584 q 632 686 657 658 q 569 730 606 713 q 482 747 532 747 q 411 740 446 748 q 347 715 377 731 q 292 680 318 701 q 243 633 266 659 l 319 1049 l 240 1049 l 10 -282 l 90 -282 l 157 92 q 195 47 173 66 q 242 16 216 28 q 301 -6 270 1 q 366 -14 333 -14 q 428 -7 398 -14 q 483 12 457 -1 m 351 56 q 290 64 319 56 q 237 88 261 73 q 197 128 214 104 q 169 182 179 151 l 232 538 q 278 596 252 569 q 336 641 304 623 q 395 667 363 658 q 461 676 427 676 q 529 661 501 675 q 576 624 557 647 q 605 571 595 601 q 620 507 616 541 q 623 440 624 474 q 617 376 621 406 l 615 362 q 594 275 608 319 q 556 192 579 231 q 521 139 541 163 q 476 96 501 115 q 419 66 450 77 q 351 56 388 56 z "},"ĸ":{"ha":815,"x_min":70,"x_max":767,"o":"m 326 342 l 572 0 l 669 0 l 385 395 l 767 733 l 664 734 l 318 433 l 208 336 l 277 734 l 197 734 l 70 0 l 150 0 l 190 233 l 326 342 z "},"ß":{"ha":815,"x_min":57,"x_max":682,"o":"m 136 0 l 265 757 q 288 837 273 796 q 328 909 303 878 q 389 962 354 942 q 471 980 425 981 q 522 967 500 979 q 558 935 544 955 q 579 891 573 916 q 581 839 585 866 q 563 777 576 806 q 528 715 549 748 q 484 641 507 680 q 457 559 462 602 q 463 492 452 522 q 491 433 473 461 q 530 380 509 406 q 569 328 551 355 q 595 272 586 301 q 600 208 605 242 q 577 145 593 174 q 536 97 560 117 q 480 66 511 77 q 415 55 450 55 q 332 70 372 54 q 256 109 291 85 l 228 41 q 320 -2 269 10 q 422 -15 372 -15 q 516 1 471 -15 q 594 47 560 17 q 650 117 628 76 q 677 208 672 158 q 671 275 682 244 q 644 334 661 306 q 605 388 626 361 q 567 440 584 414 q 540 495 549 467 q 536 557 530 524 q 561 630 543 596 q 600 699 580 665 q 638 767 621 732 q 661 843 656 802 q 652 926 665 888 q 614 991 640 964 q 550 1033 587 1018 q 469 1049 513 1048 q 357 1025 406 1050 q 274 960 309 1001 q 217 865 239 918 q 186 756 195 812 l 57 0 l 136 0 z "},"ə":{"ha":815,"x_min":94,"x_max":731,"o":"m 456 747 q 380 743 418 748 q 307 725 342 737 q 243 696 274 713 q 186 655 213 679 l 216 597 q 328 659 267 639 q 454 677 388 680 q 551 651 511 676 q 614 585 591 625 q 642 506 634 549 q 645 418 650 462 q 642 393 643 404 q 638 369 641 383 l 114 369 l 102 300 q 106 180 94 237 q 150 81 118 123 q 231 13 181 38 q 348 -14 281 -12 q 443 0 397 -14 q 526 39 488 14 q 597 100 565 65 q 654 176 629 135 q 694 261 678 216 q 718 352 711 306 l 723 389 q 718 520 731 456 q 671 634 705 584 q 584 715 637 684 q 456 747 530 746 m 351 56 q 269 75 304 56 q 211 123 233 93 q 180 194 189 154 q 180 279 172 235 l 184 300 l 628 300 q 586 211 612 254 q 526 132 561 167 q 448 76 492 98 q 351 56 404 55 z "},"$":{"ha":815,"x_min":87,"x_max":759,"o":"m 606 246 q 522 108 593 158 q 366 58 452 58 q 216 123 264 58 q 177 284 168 188 l 97 284 q 147 81 87 163 q 330 -12 207 0 l 307 -141 l 376 -141 l 398 -12 q 591 64 507 -1 q 686 248 674 129 q 676 350 692 306 q 628 428 660 395 q 552 486 596 462 q 460 530 509 511 q 376 569 416 547 q 312 626 336 591 q 286 676 294 648 q 283 742 278 705 q 360 878 296 826 q 511 929 425 930 q 643 854 608 928 q 671 697 679 781 l 751 697 q 715 894 759 806 q 553 999 671 982 l 577 1138 l 509 1138 l 485 1000 q 295 921 374 989 q 204 740 216 853 q 214 637 197 681 q 262 559 230 593 q 338 500 294 525 q 431 456 382 476 q 502 425 467 443 q 562 381 536 406 q 600 323 587 357 q 606 246 613 290 z "},"¢":{"ha":815,"x_min":95,"x_max":716,"o":"m 356 56 q 285 69 315 56 q 234 104 255 82 q 199 155 212 125 q 180 217 186 184 q 175 284 174 250 q 180 352 175 319 l 184 380 q 202 453 190 416 q 231 522 214 489 q 273 584 249 555 q 326 635 296 613 q 391 667 355 656 q 467 678 426 679 q 542 663 509 677 q 597 622 574 648 q 630 562 619 596 q 638 487 640 527 l 713 486 q 703 579 716 536 q 665 656 690 623 q 602 712 639 690 q 517 743 564 734 l 543 894 l 463 894 l 437 746 q 310 708 367 741 q 211 624 253 675 q 141 511 168 574 q 104 380 115 448 l 100 352 q 96 274 95 313 q 105 199 98 235 q 133 120 115 157 q 179 55 151 83 q 235 15 203 31 q 307 -7 267 -1 l 279 -166 l 360 -166 l 386 -12 q 483 12 436 -7 q 566 62 529 31 q 630 134 604 92 q 667 227 656 176 l 590 227 q 556 156 579 187 q 503 102 534 124 q 434 67 472 79 q 356 56 397 55 z "},"£":{"ha":815,"x_min":20,"x_max":790,"o":"m 296 439 l 522 439 l 533 509 l 306 509 l 334 705 q 358 789 340 748 q 404 862 376 830 q 471 913 433 894 q 557 932 509 932 q 630 916 600 931 q 678 874 660 901 q 703 813 696 848 q 706 739 710 778 l 786 739 q 778 841 790 793 q 738 924 766 888 q 667 980 710 959 q 566 1001 624 1000 q 448 978 502 1002 q 354 913 395 954 q 288 819 314 873 q 254 705 262 765 l 227 509 l 105 509 l 94 439 l 217 439 l 191 250 q 180 197 186 224 q 163 146 174 170 q 135 101 152 121 q 93 69 118 81 l 32 69 l 20 0 l 676 0 l 688 70 l 194 68 q 245 154 228 108 q 270 250 262 199 l 296 439 z "},"¥":{"ha":815,"x_min":59,"x_max":877,"o":"m 780 987 l 446 540 l 418 498 l 416 498 l 403 541 l 224 988 l 137 988 l 349 479 l 103 479 l 94 419 l 366 419 l 341 281 l 68 281 l 59 221 l 331 221 l 293 0 l 373 0 l 411 221 l 687 221 l 697 281 l 420 281 l 446 416 l 448 420 l 722 419 l 731 479 l 491 479 l 877 987 l 780 987 z "},"ƒ":{"ha":815,"x_min":-1,"x_max":821,"o":"m 667 667 l 677 734 l 486 734 l 499 820 q 525 893 506 861 q 572 947 544 925 q 636 981 600 970 q 713 993 672 993 q 759 989 736 993 q 804 977 782 985 l 821 1045 q 765 1058 793 1053 q 707 1064 736 1063 q 601 1047 650 1064 q 514 999 551 1030 q 452 922 476 967 q 418 820 427 876 l 406 734 l 267 734 l 258 667 l 395 667 l 285 -47 q 264 -116 279 -83 q 227 -174 250 -149 q 173 -213 203 -199 q 102 -228 142 -228 q 58 -223 80 -227 q 16 -210 36 -218 l -1 -277 q 48 -291 24 -286 q 99 -296 73 -296 q 201 -278 155 -297 q 281 -226 247 -260 q 336 -147 315 -193 q 366 -47 357 -101 l 476 667 l 667 667 z "},"₣":{"ha":815,"x_min":-57,"x_max":806,"o":"m 651 461 l 663 533 l 239 533 l 307 916 l 793 916 l 806 987 l 239 987 l 68 0 l 147 0 l 227 461 l 651 461 m 347 197 l 358 267 l -45 267 l -57 197 l 347 197 z "},"₤":{"ha":815,"x_min":14,"x_max":785,"o":"m 505 324 l 515 384 l 282 384 l 299 499 l 535 499 l 545 559 l 308 559 l 328 705 q 352 788 334 747 q 398 861 370 829 q 465 912 427 893 q 550 932 503 932 q 624 916 593 931 q 673 874 654 901 q 698 813 691 848 q 701 739 705 778 l 780 739 q 773 841 785 793 q 732 924 761 888 q 661 980 705 959 q 560 1001 618 1000 q 443 978 496 1002 q 349 913 389 954 q 282 819 308 873 q 248 705 256 765 l 229 559 l 110 559 l 100 499 l 220 499 l 203 384 l 79 384 l 69 324 l 197 324 l 186 250 q 175 197 182 224 q 157 146 168 170 q 129 101 146 121 q 87 69 112 81 l 26 69 l 14 0 l 671 0 l 682 70 l 188 68 q 239 154 222 108 q 265 250 257 199 l 276 324 l 505 324 z "},"₧":{"ha":815,"x_min":26,"x_max":830,"o":"m 819 667 l 830 734 l 709 734 l 742 922 l 663 922 l 630 734 l 553 734 q 547 827 557 783 q 511 907 536 872 q 448 964 487 942 q 357 987 410 985 l 197 987 l 26 0 l 104 0 l 175 397 l 266 397 q 372 420 326 397 q 454 479 419 442 q 513 565 489 516 q 550 667 536 614 l 619 667 l 538 189 q 535 121 534 157 q 547 57 536 86 q 581 7 557 27 q 645 -13 604 -12 q 684 -9 665 -14 q 722 3 704 -5 l 718 66 q 690 61 704 64 q 663 60 676 58 q 628 75 639 60 q 613 109 616 89 q 612 150 610 128 q 616 187 614 171 l 698 667 l 819 667 m 183 466 l 264 918 l 355 917 q 417 898 392 915 q 455 856 441 882 q 471 810 466 835 q 476 760 476 785 q 475 725 477 742 q 471 693 474 708 q 450 613 465 653 q 409 541 434 573 q 349 487 384 508 q 269 465 314 467 l 183 466 z "},"¤":{"ha":815,"x_min":3,"x_max":828,"o":"m 578 79 l 645 -18 l 708 38 l 635 143 q 705 256 677 196 q 743 383 732 317 q 745 506 751 445 q 714 625 738 568 l 828 732 l 779 795 l 665 688 q 579 752 628 730 q 475 774 531 774 q 358 751 413 774 q 257 690 304 727 l 186 795 l 123 739 l 198 629 q 123 512 153 575 q 83 378 94 448 q 80 259 74 319 q 109 143 87 199 l 3 45 l 52 -18 l 153 79 q 241 11 191 35 q 351 -14 292 -13 q 473 12 416 -14 q 578 79 529 37 m 159 378 q 177 451 164 414 q 210 523 190 488 q 259 594 231 561 q 323 651 288 628 q 392 687 355 674 q 471 699 429 699 q 541 685 509 699 q 595 648 572 671 q 638 588 621 623 q 663 515 655 554 q 671 449 670 482 q 667 384 671 415 q 648 313 661 349 q 618 243 636 277 q 569 171 597 204 q 507 113 541 138 q 436 76 474 90 q 355 62 397 62 q 284 76 315 62 q 229 113 253 90 q 188 172 204 139 q 162 243 171 205 q 154 311 155 277 q 159 378 153 346 z "},"!":{"ha":815,"x_min":276,"x_max":532,"o":"m 412 296 l 532 987 l 452 987 l 332 296 l 412 296 m 277 50 q 280 27 276 37 q 292 9 284 16 q 309 -2 299 2 q 330 -6 319 -6 q 353 -1 342 -5 q 372 12 364 3 q 385 29 380 19 q 391 50 390 39 q 387 73 391 62 q 375 92 382 84 q 357 103 368 99 q 336 107 347 107 q 314 102 324 106 q 296 90 303 98 q 282 72 288 83 q 277 50 277 61 z "},"¡":{"ha":815,"x_min":254,"x_max":511,"o":"m 373 444 l 254 -248 l 334 -248 l 453 444 l 373 444 m 510 692 q 495 732 511 715 q 456 749 479 749 q 414 731 431 748 q 396 691 397 715 q 411 651 395 667 q 450 635 427 635 q 490 652 473 635 q 510 692 508 668 z "},"?":{"ha":815,"x_min":207,"x_max":740,"o":"m 335 275 l 414 275 q 449 375 424 332 q 520 456 474 419 q 592 516 556 484 q 657 583 627 547 q 707 661 687 619 q 733 751 727 703 q 726 852 740 806 q 683 930 713 898 q 609 982 653 964 q 510 1001 565 1000 q 402 985 453 1002 q 311 936 352 968 q 244 859 271 904 q 207 758 217 813 l 286 758 q 316 829 296 797 q 365 883 336 861 q 430 918 394 905 q 507 929 466 930 q 576 915 546 929 q 625 878 606 901 q 651 821 644 854 q 652 751 659 789 q 628 678 646 711 q 586 615 610 644 q 532 559 562 585 q 475 509 503 533 q 380 405 412 457 q 335 275 347 353 m 278 50 q 293 10 277 26 q 332 -6 309 -6 q 373 11 355 -5 q 393 50 391 26 q 377 91 393 74 q 338 107 361 108 q 296 90 313 106 q 278 50 279 73 z "},"¿":{"ha":815,"x_min":75,"x_max":581,"o":"m 465 464 l 387 464 q 375 415 382 437 q 358 372 368 392 q 333 335 348 353 q 298 301 319 318 q 225 236 261 270 q 159 164 189 202 q 109 82 130 126 q 81 -12 88 39 q 87 -111 75 -66 q 127 -190 99 -157 q 199 -243 156 -224 q 296 -262 241 -262 q 400 -245 352 -263 q 486 -195 448 -227 q 547 -118 522 -163 q 581 -18 572 -73 l 502 -18 q 476 -85 493 -54 q 435 -138 459 -116 q 375 -177 409 -163 q 299 -190 340 -191 q 231 -176 260 -190 q 186 -137 203 -161 q 162 -81 168 -113 q 162 -12 157 -48 q 187 65 169 30 q 230 133 205 101 q 285 193 255 165 q 345 248 315 222 q 393 295 372 272 q 428 344 413 318 q 451 398 442 369 q 465 464 460 427 m 407 690 q 422 650 406 666 q 461 633 437 633 q 501 650 484 634 q 520 690 519 667 q 506 731 522 714 q 467 747 490 747 q 425 730 443 747 q 407 690 408 713 z "},",":{"ha":815,"x_min":154,"x_max":348,"o":"m 330 24 l 348 128 l 263 128 l 244 22 q 212 -78 235 -32 q 154 -167 189 -124 l 203 -200 q 247 -156 227 -180 q 282 -106 267 -132 q 312 -44 300 -77 q 330 24 324 -11 z "},".":{"ha":815,"x_min":295,"x_max":433,"o":"m 296 58 q 313 11 295 30 q 360 -9 332 -8 q 410 11 389 -9 q 432 60 431 31 q 415 108 433 88 q 367 127 396 128 q 317 106 337 127 q 296 58 297 85 z "},":":{"ha":815,"x_min":331,"x_max":572,"o":"m 332 58 q 349 11 331 30 q 396 -9 368 -8 q 446 11 425 -9 q 468 60 467 31 q 451 108 469 88 q 403 127 432 128 q 353 106 373 127 q 332 58 333 85 m 435 652 q 452 605 433 624 q 498 585 470 586 q 548 605 527 585 q 570 654 569 625 q 553 702 572 682 q 505 722 534 722 q 455 700 475 722 q 435 652 435 679 z "},";":{"ha":815,"x_min":248,"x_max":569,"o":"m 432 652 q 449 605 431 624 q 496 585 467 586 q 545 605 524 585 q 568 654 566 625 q 550 702 569 682 q 503 722 532 722 q 453 700 473 722 q 432 652 433 679 m 425 24 l 442 128 l 357 128 l 338 22 q 306 -78 329 -32 q 248 -167 283 -124 l 297 -200 q 341 -156 321 -180 q 376 -106 361 -132 q 406 -44 394 -77 q 425 24 418 -11 z "},"…":{"ha":815,"x_min":109,"x_max":715,"o":"m 111 58 q 127 11 109 30 q 174 -9 146 -8 q 224 11 203 -9 q 246 60 245 31 q 229 108 248 88 q 181 127 210 128 q 131 106 151 127 q 111 58 111 85 m 348 58 q 365 11 347 30 q 412 -9 383 -8 q 461 11 440 -9 q 484 60 482 31 q 466 108 485 88 q 418 127 448 128 q 369 106 389 127 q 348 58 349 85 m 578 58 q 595 11 576 30 q 642 -9 613 -8 q 691 11 670 -9 q 713 60 712 31 q 696 108 715 88 q 648 127 677 128 q 598 106 618 127 q 578 58 578 85 z "},"·":{"ha":815,"x_min":364,"x_max":479,"o":"m 366 486 q 379 447 364 463 q 419 431 395 431 q 459 447 440 431 q 478 487 477 464 q 464 528 479 511 q 425 544 448 545 q 383 526 400 543 q 366 486 366 509 z "},"•":{"ha":815,"x_min":296,"x_max":546,"o":"m 300 515 l 297 484 q 303 437 296 459 q 325 399 311 416 q 360 375 340 384 q 407 366 381 366 q 457 375 434 366 q 498 399 480 384 q 527 438 515 416 q 542 486 538 460 l 545 516 q 539 564 546 542 q 517 603 532 587 q 481 629 503 619 q 434 638 460 638 q 384 629 407 638 q 342 602 360 619 q 314 563 326 586 q 300 515 303 541 z "},"_":{"ha":815,"x_min":32,"x_max":624,"o":"m 612 -69 l 624 0 l 43 0 l 32 -69 l 612 -69 z "},"-":{"ha":815,"x_min":151,"x_max":651,"o":"m 640 407 l 651 477 l 162 477 l 151 407 l 640 407 z "},"–":{"ha":815,"x_min":64,"x_max":794,"o":"m 779 465 l 794 535 l 79 535 l 64 465 l 779 465 z "},"—":{"ha":815,"x_min":68,"x_max":799,"o":"m 784 465 l 799 535 l 83 535 l 68 465 l 784 465 z "},"'":{"ha":815,"x_min":391,"x_max":513,"o":"m 498 942 l 513 1042 l 442 1042 l 428 953 l 391 739 l 454 739 l 498 942 z "},"\"":{"ha":815,"x_min":316,"x_max":635,"o":"m 421 952 l 435 1042 l 366 1042 l 353 962 l 316 739 l 378 739 l 421 952 m 621 952 l 635 1042 l 566 1042 l 553 960 l 516 739 l 577 739 l 621 952 z "},"‘":{"ha":815,"x_min":406,"x_max":591,"o":"m 420 833 l 406 749 l 484 749 l 499 835 q 533 934 509 888 q 591 1021 557 979 l 547 1058 q 499 1009 521 1035 q 463 954 478 983 q 436 896 447 926 q 420 833 425 865 z "},"’":{"ha":815,"x_min":389,"x_max":574,"o":"m 560 965 l 574 1049 l 496 1049 l 480 963 q 446 864 470 909 q 389 777 422 819 l 433 740 q 480 789 458 763 q 518 846 502 816 q 544 903 533 873 q 560 965 554 933 z "},"‚":{"ha":815,"x_min":220,"x_max":408,"o":"m 393 60 l 408 154 l 330 154 l 313 58 q 279 -40 302 5 q 220 -127 255 -85 l 266 -164 q 349 -63 315 -120 q 393 60 382 -6 z "},"“":{"ha":815,"x_min":300,"x_max":688,"o":"m 313 833 l 300 749 l 378 749 l 393 835 q 427 934 403 888 q 484 1021 450 979 l 440 1058 q 393 1009 414 1035 q 356 954 372 983 q 330 896 340 926 q 313 833 319 865 m 517 833 l 504 749 l 582 749 l 597 835 q 631 934 607 888 q 688 1021 654 979 l 644 1058 q 597 1009 618 1035 q 560 954 576 983 q 534 896 545 926 q 517 833 523 865 z "},"”":{"ha":815,"x_min":305,"x_max":694,"o":"m 477 965 l 490 1049 l 412 1049 l 397 963 q 363 864 387 909 q 305 777 339 819 l 349 740 q 397 789 375 763 q 435 846 418 816 q 460 903 450 873 q 477 965 471 933 m 681 965 l 694 1049 l 616 1049 l 601 963 q 567 864 591 909 q 509 777 543 819 l 553 740 q 601 789 579 763 q 639 846 623 816 q 664 903 654 873 q 681 965 675 933 z "},"„":{"ha":815,"x_min":134,"x_max":486,"o":"m 307 60 l 321 153 l 242 153 l 225 58 q 192 -41 216 5 q 134 -128 168 -86 l 179 -165 q 262 -63 229 -120 q 307 60 295 -7 m 470 60 l 486 153 l 406 153 l 389 58 q 355 -41 379 5 q 298 -128 332 -86 l 342 -165 q 392 -114 370 -141 q 431 -56 414 -86 q 455 0 445 -29 q 470 60 465 29 z "},"′":{"ha":815,"x_min":391,"x_max":513,"o":"m 498 942 l 513 1042 l 442 1042 l 428 953 l 391 739 l 454 739 l 498 942 z "},"″":{"ha":815,"x_min":316,"x_max":635,"o":"m 421 952 l 435 1042 l 366 1042 l 353 962 l 316 739 l 378 739 l 421 952 m 621 952 l 635 1042 l 566 1042 l 553 960 l 516 739 l 577 739 l 621 952 z "},"(":{"ha":815,"x_min":233,"x_max":669,"o":"m 250 398 l 248 387 q 236 265 239 329 q 237 135 233 201 q 254 5 241 70 q 290 -119 267 -60 q 351 -229 314 -178 q 439 -318 387 -280 l 463 -267 q 391 -180 420 -229 q 344 -76 361 -132 q 319 40 326 -20 q 311 159 311 100 q 315 278 310 220 q 328 387 320 336 l 330 401 q 370 584 345 491 q 436 762 396 676 q 534 922 477 847 q 669 1050 591 996 l 655 1108 q 543 1026 593 1074 q 450 922 492 979 q 376 800 409 865 q 318 668 343 736 q 277 532 294 601 q 250 398 260 463 z "},")":{"ha":815,"x_min":120,"x_max":556,"o":"m 540 391 l 541 401 q 553 523 549 459 q 552 653 556 587 q 535 784 548 719 q 498 907 522 848 q 438 1018 475 966 q 350 1107 401 1069 l 326 1055 q 398 969 369 1018 q 444 865 427 921 q 470 749 462 810 q 478 629 477 689 q 474 511 479 568 q 461 402 469 453 l 459 388 q 419 205 445 298 q 353 26 393 113 q 255 -135 312 -60 q 120 -264 197 -210 l 134 -319 q 296 -187 227 -268 q 414 -11 366 -106 q 494 188 463 84 q 540 391 525 292 z "},"[":{"ha":815,"x_min":200,"x_max":638,"o":"m 627 1059 l 638 1128 l 410 1128 l 200 -212 l 429 -212 l 440 -142 l 288 -142 l 475 1059 l 627 1059 z "},"]":{"ha":815,"x_min":186,"x_max":624,"o":"m 395 1128 l 385 1059 l 536 1059 l 349 -142 l 197 -142 l 186 -212 l 414 -212 l 624 1128 l 395 1128 z "},"{":{"ha":815,"x_min":213,"x_max":751,"o":"m 541 -273 l 557 -219 q 484 -181 513 -207 q 440 -120 456 -155 q 422 -43 425 -85 q 424 40 418 -2 l 444 181 q 443 252 448 218 q 423 315 438 286 q 383 366 408 343 q 323 401 358 388 q 454 485 405 429 q 516 627 503 541 l 536 768 q 560 858 544 814 q 602 935 576 901 q 665 994 628 970 q 751 1029 702 1019 l 745 1084 q 633 1045 683 1073 q 548 976 584 1017 q 488 882 511 935 q 456 768 465 829 l 436 627 q 366 490 421 536 q 221 439 311 444 l 213 368 q 288 352 257 365 q 338 315 319 338 q 363 258 357 292 q 365 181 370 224 l 344 41 q 346 -65 338 -14 q 379 -159 355 -117 q 444 -231 404 -201 q 541 -273 484 -261 z "},"}":{"ha":815,"x_min":119,"x_max":658,"o":"m 119 -219 l 127 -275 q 237 -235 188 -263 q 323 -166 286 -208 q 382 -73 359 -125 q 415 41 406 -20 l 435 181 q 505 318 450 271 q 650 369 561 364 l 658 440 q 533 493 571 446 q 507 626 496 540 l 527 768 q 525 878 534 825 q 491 973 517 930 q 428 1042 467 1013 q 334 1082 389 1071 l 317 1029 q 390 992 361 1017 q 432 935 418 968 q 451 856 448 899 q 448 768 453 813 l 427 627 q 428 555 422 589 q 448 493 433 522 q 488 442 463 465 q 548 406 513 420 q 417 323 466 378 q 355 181 368 267 l 335 41 q 310 -47 327 -5 q 267 -124 293 -90 q 203 -184 239 -159 q 119 -219 166 -209 z "},"‹":{"ha":815,"x_min":266,"x_max":579,"o":"m 349 372 l 579 640 l 504 640 l 268 383 l 266 370 l 419 113 l 484 113 l 349 372 z "},"›":{"ha":815,"x_min":219,"x_max":532,"o":"m 380 641 l 315 641 l 449 378 l 219 111 l 295 110 l 530 368 l 532 380 l 380 641 z "},"+":{"ha":815,"x_min":81,"x_max":752,"o":"m 460 503 l 515 818 l 435 818 l 380 503 l 95 503 l 81 422 l 367 422 l 311 99 l 391 99 l 446 422 l 739 422 l 752 503 l 460 503 z "},"−":{"ha":815,"x_min":121,"x_max":683,"o":"m 671 465 l 683 535 l 133 535 l 121 465 l 671 465 z "},"±":{"ha":815,"x_min":71,"x_max":730,"o":"m 473 563 l 519 859 l 446 859 l 399 563 l 127 563 l 116 493 l 389 493 l 342 196 l 416 196 l 463 493 l 720 493 l 730 563 l 473 563 m 622 0 l 633 70 l 83 70 l 71 0 l 622 0 z "},"×":{"ha":815,"x_min":94,"x_max":743,"o":"m 94 209 l 140 151 l 418 397 l 611 151 l 669 201 l 475 449 l 743 686 l 696 744 l 429 508 l 245 744 l 188 692 l 372 456 l 94 209 z "},"÷":{"ha":815,"x_min":81,"x_max":752,"o":"m 739 436 l 752 516 l 94 516 l 81 436 l 739 436 m 412 738 q 426 699 410 715 q 464 684 441 683 q 503 700 486 684 q 522 739 519 715 q 507 778 522 761 q 469 793 492 794 q 429 776 446 793 q 412 738 412 760 m 318 197 q 332 159 317 175 q 370 143 347 142 q 408 159 391 144 q 427 198 425 175 q 413 237 428 220 q 374 254 397 254 q 335 236 351 253 q 318 197 318 220 z "},"=":{"ha":815,"x_min":91,"x_max":739,"o":"m 727 551 l 739 623 l 152 623 l 139 551 l 727 551 m 679 272 l 691 345 l 103 345 l 91 272 l 679 272 z "},"≠":{"ha":815,"x_min":93,"x_max":741,"o":"m 681 272 l 692 345 l 371 345 l 518 551 l 729 551 l 741 623 l 568 623 l 655 743 l 616 768 l 509 623 l 153 623 l 141 551 l 459 551 l 311 345 l 105 345 l 93 272 l 260 272 l 166 142 l 208 114 l 321 272 l 681 272 z "},"≈":{"ha":815,"x_min":67,"x_max":756,"o":"m 125 581 l 122 500 q 159 537 140 519 q 201 569 179 555 q 247 591 222 583 q 298 601 271 600 q 338 597 319 601 q 374 585 357 593 q 410 569 393 578 q 445 549 427 559 q 511 516 478 530 q 583 502 544 501 q 633 510 610 502 q 678 532 657 518 q 718 564 699 546 q 752 600 736 581 l 756 681 q 719 645 739 663 q 678 613 700 627 q 632 590 656 599 q 582 581 608 581 q 543 586 561 581 q 507 597 524 590 q 475 612 491 604 q 444 629 460 621 q 373 665 409 650 q 296 680 338 680 q 245 671 269 680 q 200 649 221 663 q 160 617 179 635 q 125 581 142 600 m 71 304 l 67 224 q 104 261 85 243 q 146 292 124 279 q 192 315 168 307 q 243 324 216 323 q 283 321 264 325 q 320 309 302 317 q 355 293 338 302 q 390 273 372 283 q 456 240 423 254 q 529 226 490 225 q 579 234 555 226 q 623 256 602 242 q 663 288 644 270 q 698 324 682 305 l 702 404 q 665 368 684 385 q 624 336 646 350 q 578 313 602 321 q 527 304 553 304 q 489 308 507 304 q 453 319 471 313 q 421 335 437 326 q 389 353 406 344 q 354 372 372 363 q 319 389 337 381 q 281 399 300 395 q 241 403 262 404 q 191 394 215 403 q 146 372 167 386 q 106 341 125 359 q 71 304 87 323 z "},"<":{"ha":815,"x_min":111,"x_max":730,"o":"m 111 414 l 631 157 l 645 241 l 226 433 l 201 444 l 238 456 l 718 649 l 730 736 l 122 481 l 111 414 z "},">":{"ha":815,"x_min":77,"x_max":709,"o":"m 77 155 l 697 412 l 709 479 l 176 735 l 163 653 l 589 461 l 618 449 l 574 434 l 92 243 l 77 155 z "},"≤":{"ha":815,"x_min":74,"x_max":781,"o":"m 251 526 l 291 539 l 768 711 l 781 790 l 172 560 l 161 500 l 681 269 l 695 344 l 280 515 l 251 526 m 624 30 l 635 100 l 85 100 l 74 30 l 624 30 z "},"≥":{"ha":815,"x_min":80,"x_max":760,"o":"m 670 544 l 625 530 l 144 359 l 128 280 l 749 511 l 760 571 l 228 802 l 215 728 l 637 557 l 670 544 m 631 28 l 642 98 l 92 98 l 80 28 l 631 28 z "},"¬":{"ha":815,"x_min":138,"x_max":685,"o":"m 640 262 l 685 527 l 151 527 l 138 454 l 594 454 l 560 262 l 640 262 z "},"/":{"ha":815,"x_min":97,"x_max":760,"o":"m 175 -84 l 760 987 l 682 987 l 97 -84 l 175 -84 z "},"∕":{"ha":815,"x_min":97,"x_max":760,"o":"m 175 -84 l 760 987 l 682 987 l 97 -84 l 175 -84 z "},"\\":{"ha":815,"x_min":271,"x_max":557,"o":"m 271 988 l 486 -85 l 557 -85 l 342 988 l 271 988 z "},"⁄":{"ha":815,"x_min":157,"x_max":675,"o":"m 210 118 l 675 823 l 623 858 l 157 153 l 210 118 z "},"%":{"ha":815,"x_min":85,"x_max":751,"o":"m 96 804 l 90 751 q 92 681 85 716 q 116 618 98 646 q 161 572 133 590 q 231 555 190 555 q 305 571 271 554 q 363 615 338 587 q 404 679 388 644 q 425 751 419 714 l 431 804 q 429 874 435 839 q 406 938 422 910 q 360 984 389 966 q 292 1002 332 1002 q 217 985 250 1002 q 158 941 183 968 q 117 877 133 913 q 96 804 102 841 m 155 751 l 161 804 q 175 853 165 828 q 200 897 184 878 q 237 930 216 918 q 287 943 258 943 q 332 929 315 943 q 357 895 349 916 q 368 850 366 875 q 367 804 370 826 l 359 751 q 346 703 355 727 q 321 659 336 678 q 284 626 306 639 q 235 614 263 614 q 191 627 208 614 q 164 661 174 640 q 154 705 155 681 q 155 751 152 728 m 412 235 l 405 183 q 408 112 401 147 q 431 49 414 77 q 477 3 448 21 q 546 -14 506 -14 q 621 2 587 -15 q 679 47 654 19 q 720 110 704 74 q 741 183 735 146 l 748 236 q 745 307 751 271 q 722 370 739 342 q 676 415 704 398 q 607 433 648 433 q 532 417 566 434 q 473 372 498 400 q 433 309 449 345 q 412 235 417 273 m 470 182 l 477 236 q 491 285 481 260 q 515 330 500 310 q 553 362 531 349 q 602 374 574 374 q 648 360 631 374 q 673 327 665 347 q 684 283 682 307 q 683 236 686 258 l 675 182 q 662 134 671 159 q 637 90 652 109 q 600 57 622 70 q 551 45 578 45 q 506 58 523 45 q 480 92 489 71 q 469 136 471 112 q 470 182 467 160 m 186 109 l 703 844 l 654 877 l 137 142 l 186 109 z "},"‰":{"ha":815,"x_min":74,"x_max":749,"o":"m 249 229 l 241 173 q 241 110 238 143 q 258 50 245 77 q 294 4 270 22 q 355 -14 317 -14 q 396 -7 377 -14 q 432 12 416 0 q 453 33 444 22 q 472 56 463 44 q 484 31 477 43 q 501 9 492 19 q 533 -8 515 -2 q 572 -15 551 -15 q 640 2 611 -16 q 690 47 669 20 q 722 109 710 75 q 739 176 734 143 l 746 232 q 746 295 749 262 q 730 355 743 328 q 694 401 718 383 q 633 420 671 420 q 591 413 610 420 q 555 394 572 406 q 533 373 543 385 q 514 350 523 362 q 504 374 510 362 q 490 394 498 385 q 457 414 475 407 q 416 422 438 421 q 348 404 377 422 q 298 358 319 386 q 265 296 277 330 q 249 229 253 262 m 530 229 q 539 271 533 248 q 555 315 545 294 q 584 348 567 334 q 625 361 601 361 q 662 347 650 361 q 680 313 675 333 q 684 270 684 292 q 681 231 683 248 l 673 176 q 664 134 670 157 q 647 91 658 111 q 619 58 636 71 q 578 45 602 45 q 542 58 554 45 q 524 92 529 72 q 519 134 519 112 q 522 174 520 157 l 530 229 m 314 229 q 323 271 317 248 q 340 314 329 294 q 368 348 351 334 q 410 361 385 361 q 446 347 433 361 q 463 313 458 333 q 467 270 468 292 q 465 231 467 248 l 456 176 q 448 134 454 157 q 431 91 442 111 q 403 58 420 71 q 361 45 386 45 q 325 59 338 45 q 308 93 313 73 q 303 135 303 113 q 306 174 304 157 l 314 229 m 172 809 q 180 851 174 828 q 198 895 186 875 q 226 928 209 915 q 267 942 243 942 q 303 928 291 942 q 321 893 316 913 q 325 850 326 873 q 322 812 324 828 l 314 757 q 305 715 311 738 q 288 673 299 692 q 260 639 277 652 q 220 626 243 626 q 183 640 196 626 q 166 673 171 654 q 161 716 161 694 q 163 754 162 738 l 172 809 m 106 809 l 99 754 q 100 691 96 724 q 117 631 104 658 q 153 585 130 603 q 214 567 177 568 q 281 584 252 567 q 330 629 309 602 q 362 691 350 657 q 378 758 374 724 l 386 812 q 385 876 389 842 q 369 937 382 909 q 333 983 357 965 q 271 1002 309 1002 q 204 985 233 1002 q 155 939 175 967 q 123 876 135 911 q 106 809 111 842 m 108 196 l 616 797 l 583 835 l 74 234 l 108 196 z "},"|":{"ha":815,"x_min":272,"x_max":529,"o":"m 340 -227 l 529 987 l 461 987 l 272 -227 l 340 -227 z "},"¦":{"ha":815,"x_min":255,"x_max":538,"o":"m 255 -183 l 335 -183 l 425 340 l 346 340 l 255 -183 m 449 473 l 538 987 l 458 987 l 369 473 l 449 473 z "},"†":{"ha":815,"x_min":118,"x_max":781,"o":"m 770 663 l 781 734 l 496 734 l 536 987 l 456 987 l 416 734 l 129 734 l 118 663 l 406 663 l 302 0 l 382 0 l 486 663 l 770 663 z "},"‡":{"ha":815,"x_min":19,"x_max":785,"o":"m 671 0 l 681 70 l 389 70 l 482 663 l 774 663 l 785 734 l 493 734 l 532 987 l 452 987 l 413 734 l 133 734 l 123 663 l 402 663 l 309 70 l 29 70 l 19 0 l 298 0 l 254 -282 l 334 -282 l 378 0 l 671 0 z "},"©":{"ha":815,"x_min":44,"x_max":763,"o":"m 547 304 l 494 304 q 478 261 488 281 q 453 227 468 241 q 419 205 439 213 q 373 198 399 197 q 324 213 342 199 q 296 249 305 227 q 284 297 286 271 q 285 348 282 323 l 290 395 q 304 448 294 422 q 331 496 315 475 q 371 530 348 517 q 425 543 394 543 q 469 535 451 543 q 496 513 486 528 q 511 480 507 500 q 514 438 515 461 l 567 438 q 562 500 570 472 q 538 549 555 528 q 492 582 519 570 q 427 594 464 594 q 351 577 385 594 q 294 533 318 561 q 254 468 269 505 q 235 394 239 432 l 229 349 q 233 276 227 312 q 256 212 239 240 q 301 165 273 183 q 371 146 330 146 q 443 158 411 145 q 496 194 474 171 q 529 243 516 215 q 547 304 542 271 m 100 368 q 140 495 109 434 q 220 602 172 556 q 328 674 268 648 q 457 699 389 700 q 574 671 524 699 q 658 597 625 643 q 704 494 690 552 q 709 374 718 435 q 668 245 699 307 q 590 136 637 184 q 482 62 543 90 q 350 35 420 34 q 231 64 282 35 q 149 140 180 94 q 103 246 116 186 q 100 368 91 306 m 52 368 q 55 250 44 308 q 93 145 66 193 q 162 63 119 97 q 260 14 204 28 q 351 0 304 0 q 446 12 398 -1 q 562 59 509 25 q 655 142 614 94 q 722 250 696 190 q 757 374 749 309 q 758 468 763 422 q 736 556 752 515 q 691 635 718 601 q 629 696 665 670 q 551 734 594 720 q 458 749 509 749 q 356 735 405 749 q 264 696 307 722 q 188 638 222 671 q 123 562 153 606 q 76 470 94 519 q 52 368 58 420 z "},"®":{"ha":815,"x_min":42,"x_max":763,"o":"m 49 363 q 49 261 42 311 q 75 168 56 211 q 112 102 90 132 q 162 50 134 73 q 245 3 198 20 q 347 -14 292 -14 q 453 0 403 -15 q 549 42 504 15 q 621 100 587 66 q 682 173 655 134 q 729 266 710 216 q 754 368 747 316 q 747 509 763 441 q 692 629 730 576 q 593 712 653 681 q 456 745 534 744 q 350 731 401 746 q 256 690 300 716 q 181 631 216 665 q 121 558 146 598 q 74 465 92 515 q 49 363 55 416 m 97 363 q 137 491 106 430 q 215 597 168 551 q 324 670 262 643 q 455 696 385 696 q 573 667 522 695 q 656 593 624 639 q 702 489 689 548 q 706 369 715 431 q 666 241 696 302 q 587 134 635 180 q 479 61 541 89 q 349 35 418 34 q 231 64 281 36 q 147 138 180 92 q 101 242 115 183 q 97 363 88 301 m 315 334 l 412 334 l 473 159 l 528 159 l 458 350 q 495 366 477 357 q 528 388 513 375 q 552 418 543 401 q 564 458 562 435 q 558 512 568 489 q 530 549 548 534 q 485 572 511 564 q 432 581 460 580 l 300 581 l 233 159 l 288 159 l 315 334 m 323 384 l 346 530 l 431 529 q 465 525 449 528 q 492 512 481 521 q 509 490 503 504 q 511 456 514 476 q 497 425 507 438 q 474 403 488 412 q 444 389 460 394 q 411 384 428 385 l 323 384 z "},"™":{"ha":815,"x_min":161,"x_max":810,"o":"m 747 897 l 699 623 l 748 623 l 810 987 l 749 987 l 593 699 l 539 987 l 480 987 l 417 623 l 467 623 l 516 909 l 566 623 l 602 624 l 747 897 m 419 941 l 427 987 l 168 987 l 161 941 l 264 941 l 210 623 l 260 623 l 315 941 l 419 941 z "},"°":{"ha":815,"x_min":314,"x_max":642,"o":"m 317 829 q 323 767 314 796 q 351 715 332 737 q 397 678 370 692 q 458 664 425 665 q 524 678 492 664 q 579 715 555 692 q 619 770 604 739 q 638 835 635 801 q 633 896 642 866 q 606 949 624 926 q 561 987 587 972 q 501 1002 534 1001 q 434 987 466 1002 q 377 949 402 973 q 337 894 353 925 q 317 829 321 863 m 377 829 q 391 871 380 851 q 418 906 401 890 q 455 930 434 921 q 498 939 475 939 q 535 930 519 939 q 562 906 552 921 q 577 872 573 891 q 578 833 581 853 q 565 793 575 812 q 538 759 554 774 q 503 735 523 745 q 461 726 483 726 q 423 735 440 726 q 395 758 406 744 q 379 791 384 772 q 377 829 374 809 z "},"*":{"ha":815,"x_min":171,"x_max":774,"o":"m 413 657 l 206 437 l 267 389 l 456 617 l 581 385 l 650 431 l 506 650 l 774 728 l 760 809 l 502 711 l 557 987 l 478 987 l 442 709 l 205 806 l 171 731 l 413 657 z "},"#":{"ha":815,"x_min":18,"x_max":827,"o":"m 456 278 l 357 0 l 426 0 l 525 278 l 704 278 l 714 342 l 548 342 l 654 640 l 816 640 l 827 705 l 677 705 l 777 987 l 709 987 l 608 705 l 404 705 l 505 987 l 437 987 l 336 705 l 142 705 l 130 640 l 313 640 l 207 342 l 28 342 l 18 278 l 184 278 l 85 0 l 154 0 l 253 278 l 456 278 m 276 342 l 381 640 l 585 640 l 479 342 l 276 342 z "},"&":{"ha":815,"x_min":52,"x_max":753,"o":"m 64 243 q 124 58 52 129 q 306 -13 195 -12 q 445 18 380 -14 q 566 96 510 50 l 625 0 l 714 0 l 622 153 q 710 287 677 214 q 753 442 742 359 l 680 442 q 644 322 668 379 q 582 214 621 266 l 389 528 l 482 600 q 583 689 534 640 q 637 810 631 739 q 599 944 646 887 q 473 1002 552 1000 q 307 937 372 1003 q 232 775 242 870 q 232 713 229 743 q 245 653 236 682 q 267 595 254 624 q 294 540 280 567 l 262 517 q 197 466 229 494 q 138 406 165 438 q 89 331 109 372 q 64 243 69 291 m 308 56 q 179 110 227 57 q 144 243 132 162 q 165 308 149 277 q 203 366 180 338 q 251 417 224 393 q 302 461 277 441 l 330 483 l 529 153 q 427 83 481 111 q 308 56 372 56 m 311 777 q 361 884 319 836 q 469 932 403 933 q 543 894 519 932 q 560 810 567 856 q 521 724 552 761 q 453 659 490 688 l 355 586 q 333 631 343 608 q 317 677 323 654 q 309 727 311 702 q 311 777 307 751 z "},"@":{"ha":815,"x_min":37,"x_max":808,"o":"m 789 528 q 797 738 808 629 q 727 916 787 848 q 650 971 696 951 q 540 993 604 992 q 409 971 469 994 q 298 911 349 949 q 206 820 247 872 q 134 708 165 768 q 82 586 103 649 q 50 462 61 523 q 38 347 40 404 q 46 238 37 290 q 77 141 56 186 q 135 64 99 96 q 222 12 171 31 q 342 -7 274 -7 q 441 7 392 -7 q 532 47 491 20 l 519 104 q 435 69 479 83 q 345 55 391 55 q 242 72 285 55 q 170 117 199 88 q 124 186 140 147 q 101 271 107 226 q 98 365 95 316 q 110 462 100 414 q 139 569 120 513 q 184 677 157 625 q 247 776 212 729 q 326 857 282 823 q 423 912 370 892 q 537 931 476 932 q 631 912 593 930 q 692 862 669 893 q 744 708 738 802 q 734 528 750 614 q 725 481 730 509 q 711 423 720 454 q 691 363 703 393 q 662 311 679 334 q 624 273 646 287 q 574 260 602 259 q 538 279 548 260 q 530 325 528 298 q 532 357 530 341 q 536 385 534 372 l 623 726 q 575 769 604 752 q 510 788 546 787 q 434 775 469 789 q 372 735 399 760 q 321 677 343 711 q 282 607 299 644 q 255 533 266 570 q 237 462 243 495 q 229 416 233 443 q 224 361 225 389 q 228 304 224 332 q 241 253 231 275 q 272 217 252 231 q 321 203 291 203 q 369 213 347 203 q 410 239 391 224 q 446 276 430 256 q 476 315 463 296 q 499 234 475 264 q 567 203 523 203 q 633 218 604 202 q 686 261 663 234 q 726 322 709 288 q 755 393 743 357 q 775 465 768 429 q 789 528 783 500 m 297 462 q 312 518 303 488 q 333 578 321 548 q 363 636 346 608 q 401 685 380 664 q 450 718 423 706 q 511 728 477 730 q 541 721 528 728 q 565 704 553 715 l 486 409 q 466 375 477 393 q 441 339 454 357 q 392 288 420 311 q 334 267 365 266 q 303 280 314 268 q 288 309 292 292 q 283 349 283 328 q 285 393 283 371 q 291 432 288 414 q 297 462 295 450 z "},"§":{"ha":815,"x_min":-16,"x_max":783,"o":"m 718 295 q 715 370 724 337 q 688 429 707 402 q 636 479 667 458 q 570 518 606 501 q 510 542 541 532 q 448 562 478 553 q 402 577 426 569 q 355 595 378 585 q 317 614 335 604 q 284 639 298 625 q 249 689 260 660 q 243 759 237 718 q 278 838 252 804 q 340 892 304 871 q 420 923 377 913 q 506 932 463 932 q 593 913 555 930 q 656 867 631 897 q 691 797 680 838 q 698 709 702 757 l 777 709 q 766 829 783 775 q 715 921 750 883 q 628 980 680 959 q 508 1001 575 1000 q 435 996 472 1002 q 365 980 399 991 q 287 944 323 966 q 223 890 250 922 q 184 830 199 864 q 163 757 168 797 q 164 691 159 722 q 184 635 170 661 q 213 595 195 613 q 253 562 231 577 q 186 534 218 551 q 130 494 155 517 q 89 440 106 471 q 68 371 73 410 q 76 278 61 318 q 120 210 91 239 q 162 174 138 190 q 213 146 186 159 q 275 120 243 131 q 338 99 308 109 q 388 84 362 92 q 437 64 413 75 q 483 39 462 53 q 519 5 505 24 q 541 -38 534 -14 q 542 -93 547 -62 q 508 -171 534 -138 q 446 -225 482 -204 q 365 -256 408 -246 q 281 -266 322 -266 q 188 -250 229 -265 q 119 -205 147 -235 q 78 -135 92 -176 q 71 -42 65 -94 l -11 -43 q 3 -167 -16 -113 q 61 -258 22 -221 q 156 -315 100 -296 q 278 -336 211 -335 q 395 -322 336 -336 q 501 -278 453 -308 q 583 -202 549 -248 q 623 -91 616 -155 q 620 -18 627 -52 q 594 45 613 16 q 564 78 581 63 q 524 106 546 94 q 592 133 559 117 q 652 171 625 149 q 695 224 677 194 q 718 295 713 255 m 414 494 q 466 478 438 487 q 519 458 493 469 q 571 431 547 446 q 612 396 595 416 q 637 351 629 376 q 638 293 644 326 q 612 232 631 258 q 565 189 592 207 q 505 162 537 172 q 441 147 473 152 q 425 152 431 150 q 409 158 418 155 q 360 174 385 165 q 309 191 334 182 q 245 217 277 203 q 189 253 213 232 q 153 302 165 273 q 148 372 140 332 q 173 436 155 409 q 217 480 191 463 q 271 507 241 497 q 331 522 300 517 q 372 508 351 515 q 414 494 393 500 z "},"¶":{"ha":815,"x_min":190,"x_max":727,"o":"m 476 0 l 555 0 l 727 987 l 572 988 q 437 964 500 987 q 323 899 373 941 q 241 799 273 857 q 199 668 208 741 q 206 543 190 600 q 259 444 222 486 q 350 378 296 402 q 473 353 405 355 l 537 353 l 476 0 z "},"^":{"ha":815,"x_min":168,"x_max":654,"o":"m 168 454 l 248 454 l 456 819 l 490 886 l 500 819 l 581 453 l 654 453 l 533 987 l 473 987 l 168 454 z "},"~":{"ha":815,"x_min":26,"x_max":782,"o":"m 782 507 l 722 512 q 703 456 715 484 q 673 408 691 429 q 629 373 654 386 q 572 359 604 359 q 531 366 550 359 q 494 383 511 372 q 461 408 477 394 q 431 437 446 422 q 394 471 414 454 q 355 500 375 487 q 300 525 329 516 q 239 535 271 534 q 156 517 193 535 q 93 468 119 498 q 49 399 66 438 q 26 317 32 359 l 89 312 q 107 367 95 340 q 137 415 119 394 q 180 448 155 435 q 237 462 205 461 q 278 455 259 462 q 315 438 298 449 q 348 413 332 427 q 378 385 363 399 q 419 348 398 366 q 465 316 441 330 q 514 294 488 302 q 569 286 540 286 q 652 305 616 286 q 716 355 689 324 q 759 425 743 386 q 782 507 776 465 z "},"Á":{"ha":815,"x_min":-5,"x_max":736,"o":"m 573 275 l 610 0 l 688 0 l 549 987 l 477 987 l -5 0 l 78 0 l 212 275 l 573 275 m 245 349 l 496 864 l 564 349 l 245 349 m 634 1240 l 486 1061 l 557 1061 l 736 1240 l 634 1240 z "},"Ă":{"ha":815,"x_min":-5,"x_max":745,"o":"m 573 275 l 610 0 l 688 0 l 549 987 l 477 987 l -5 0 l 78 0 l 212 275 l 573 275 m 245 349 l 496 864 l 564 349 l 245 349 m 745 1246 l 677 1246 q 660 1201 671 1221 q 633 1166 649 1181 q 591 1140 614 1149 q 538 1131 567 1131 q 491 1139 511 1131 q 458 1160 472 1146 q 438 1197 445 1175 q 433 1246 432 1219 l 366 1247 q 376 1175 365 1207 q 410 1120 388 1143 q 465 1085 433 1098 q 537 1072 497 1072 q 613 1084 578 1072 q 675 1119 648 1096 q 721 1174 703 1141 q 745 1246 739 1206 z "},"Â":{"ha":815,"x_min":-5,"x_max":718,"o":"m 573 275 l 610 0 l 688 0 l 549 987 l 477 987 l -5 0 l 78 0 l 212 275 l 573 275 m 245 349 l 496 864 l 564 349 l 245 349 m 718 1091 l 582 1255 l 532 1255 l 352 1093 l 351 1080 l 425 1080 l 555 1196 l 645 1079 l 717 1079 l 718 1091 z "},"Ä":{"ha":815,"x_min":-5,"x_max":741,"o":"m 573 275 l 610 0 l 688 0 l 549 987 l 477 987 l -5 0 l 78 0 l 212 275 l 573 275 m 245 349 l 496 864 l 564 349 l 245 349 m 343 1173 q 357 1134 342 1149 q 395 1118 372 1118 q 435 1135 418 1119 q 453 1173 452 1151 q 438 1212 454 1196 q 400 1228 423 1228 q 361 1211 377 1227 q 343 1173 345 1195 m 631 1172 q 645 1133 630 1149 q 683 1118 661 1118 q 723 1134 706 1118 q 741 1173 739 1150 q 726 1212 741 1196 q 688 1227 711 1228 q 649 1211 665 1227 q 631 1172 632 1194 z "},"À":{"ha":815,"x_min":-5,"x_max":688,"o":"m 573 275 l 610 0 l 688 0 l 549 987 l 477 987 l -5 0 l 78 0 l 212 275 l 573 275 m 245 349 l 496 864 l 564 349 l 245 349 m 567 1061 l 477 1242 l 387 1242 l 503 1061 l 567 1061 z "},"Ā":{"ha":815,"x_min":-5,"x_max":770,"o":"m 573 275 l 610 0 l 688 0 l 549 987 l 477 987 l -5 0 l 78 0 l 212 275 l 573 275 m 245 349 l 496 864 l 564 349 l 245 349 m 760 1145 l 770 1211 l 328 1211 l 317 1145 l 760 1145 z "},"Ą":{"ha":815,"x_min":-5,"x_max":688,"o":"m 527 -160 q 546 -109 530 -132 q 582 -66 561 -85 q 627 -31 603 -47 q 672 -1 650 -14 l 674 0 l 688 0 l 549 987 l 477 987 l -5 0 l 78 0 l 212 275 l 573 275 l 608 15 q 557 -19 583 -1 q 509 -61 530 -38 q 472 -110 487 -83 q 454 -168 457 -137 q 459 -214 452 -193 q 479 -250 466 -235 q 513 -272 493 -264 q 557 -280 532 -280 q 609 -273 584 -281 q 659 -252 635 -265 l 648 -193 q 612 -209 630 -202 q 573 -214 593 -216 q 536 -199 549 -214 q 527 -160 524 -185 m 245 349 l 496 864 l 564 349 l 245 349 z "},"Å":{"ha":815,"x_min":-5,"x_max":688,"o":"m 573 275 l 610 0 l 688 0 l 549 987 l 477 987 l -5 0 l 78 0 l 212 275 l 573 275 m 245 349 l 496 864 l 564 349 l 245 349 m 423 1162 q 428 1116 421 1137 q 450 1077 435 1094 q 485 1051 465 1061 q 531 1041 506 1041 q 581 1051 557 1041 q 623 1078 604 1061 q 652 1118 641 1095 q 666 1167 664 1141 q 661 1214 668 1192 q 640 1253 654 1236 q 605 1281 626 1271 q 559 1291 584 1291 q 509 1281 532 1291 q 467 1253 486 1270 q 437 1211 449 1235 q 423 1162 425 1187 m 475 1163 q 484 1192 477 1178 q 503 1217 492 1206 q 528 1235 514 1229 q 559 1242 543 1242 q 585 1235 574 1242 q 604 1218 597 1229 q 614 1194 612 1207 q 615 1166 617 1180 q 605 1138 612 1152 q 587 1114 597 1124 q 562 1096 576 1103 q 532 1090 547 1090 q 506 1096 517 1090 q 486 1112 494 1102 q 476 1136 479 1122 q 475 1163 473 1149 z "},"Ǻ":{"ha":815,"x_min":-5,"x_max":765,"o":"m 573 275 l 610 0 l 688 0 l 549 987 l 477 987 l -5 0 l 78 0 l 212 275 l 573 275 m 245 349 l 496 864 l 564 349 l 245 349 m 664 1392 l 538 1266 l 608 1266 l 765 1392 l 664 1392 m 437 1126 q 441 1086 435 1105 q 459 1055 448 1068 q 490 1032 471 1040 q 530 1023 509 1024 q 572 1031 552 1023 q 607 1053 591 1039 q 631 1087 622 1067 q 642 1132 641 1107 q 637 1172 644 1153 q 617 1204 630 1190 q 588 1223 605 1216 q 551 1231 571 1231 q 511 1224 530 1232 q 477 1204 492 1217 q 450 1170 460 1190 q 437 1126 439 1149 m 505 1095 q 497 1109 500 1101 q 496 1125 494 1116 q 501 1140 497 1133 q 513 1155 505 1148 q 528 1165 520 1162 q 545 1169 536 1169 q 560 1166 553 1169 q 574 1158 568 1164 q 582 1145 579 1152 q 584 1131 584 1138 q 579 1115 583 1123 q 569 1101 576 1107 q 554 1090 562 1093 q 539 1086 547 1086 q 522 1086 531 1084 q 505 1095 513 1088 z "},"Ã":{"ha":815,"x_min":-5,"x_max":770,"o":"m 573 275 l 610 0 l 688 0 l 549 987 l 477 987 l -5 0 l 78 0 l 212 275 l 573 275 m 245 349 l 496 864 l 564 349 l 245 349 m 770 1238 l 718 1248 q 706 1218 713 1233 q 686 1190 699 1204 q 663 1171 675 1178 q 635 1164 650 1164 q 589 1177 610 1164 q 547 1204 568 1190 q 506 1230 527 1218 q 456 1241 484 1241 q 404 1230 427 1241 q 362 1198 380 1218 q 333 1154 345 1179 q 317 1102 322 1128 l 370 1095 q 382 1124 375 1109 q 401 1149 390 1138 q 425 1167 411 1160 q 456 1174 439 1174 q 502 1162 481 1175 q 543 1136 523 1150 q 583 1110 562 1122 q 631 1099 604 1099 q 684 1111 661 1099 q 726 1142 708 1122 q 754 1186 743 1161 q 770 1238 765 1211 z "},"Ǽ":{"ha":815,"x_min":-36,"x_max":852,"o":"m 701 0 l 713 70 l 454 70 l 519 479 l 737 479 l 748 549 l 531 549 l 589 918 l 840 918 l 852 987 l 498 987 l -36 0 l 51 0 l 189 264 l 411 264 l 369 0 l 701 0 m 229 341 l 508 871 l 423 341 l 229 341 m 670 1240 l 522 1061 l 593 1061 l 772 1240 l 670 1240 z "},"Ć":{"ha":815,"x_min":79,"x_max":773,"o":"m 702 300 l 625 299 q 584 206 609 251 q 525 127 559 161 q 446 74 490 94 q 346 56 401 54 q 266 75 299 57 q 210 121 233 92 q 177 188 189 151 q 160 265 165 225 q 158 346 156 306 q 165 422 159 387 l 190 566 q 210 649 197 606 q 241 732 222 692 q 285 810 260 773 q 342 873 310 846 q 414 917 374 901 q 501 932 454 932 q 591 910 555 932 q 650 854 627 889 q 683 777 673 821 q 694 686 694 732 l 773 686 q 756 806 772 749 q 707 905 741 863 q 624 975 674 949 q 505 1001 573 1001 q 396 983 446 1002 q 306 934 347 965 q 232 860 264 902 q 175 768 199 817 q 134 668 151 720 q 109 565 118 616 l 85 422 q 79 326 79 376 q 89 227 79 275 q 118 136 98 179 q 168 60 137 92 q 242 7 199 27 q 342 -14 286 -12 q 472 10 413 -15 q 576 78 531 35 q 654 178 623 121 q 702 300 686 236 m 645 1255 l 496 1076 l 568 1075 l 747 1255 l 645 1255 z "},"Č":{"ha":815,"x_min":79,"x_max":773,"o":"m 702 300 l 625 299 q 584 206 609 251 q 525 127 559 161 q 446 74 490 94 q 346 56 401 54 q 266 75 299 57 q 210 121 233 92 q 177 188 189 151 q 160 265 165 225 q 158 346 156 306 q 165 422 159 387 l 190 566 q 210 649 197 606 q 241 732 222 692 q 285 810 260 773 q 342 873 310 846 q 414 917 374 901 q 501 932 454 932 q 591 910 555 932 q 650 854 627 889 q 683 777 673 821 q 694 686 694 732 l 773 686 q 756 806 772 749 q 707 905 741 863 q 624 975 674 949 q 505 1001 573 1001 q 396 983 446 1002 q 306 934 347 965 q 232 860 264 902 q 175 768 199 817 q 134 668 151 720 q 109 565 118 616 l 85 422 q 79 326 79 376 q 89 227 79 275 q 118 136 98 179 q 168 60 137 92 q 242 7 199 27 q 342 -14 286 -12 q 472 10 413 -15 q 576 78 531 35 q 654 178 623 121 q 702 300 686 236 m 546 1146 l 455 1271 l 386 1271 l 385 1259 l 515 1091 l 573 1091 l 753 1259 l 754 1271 l 682 1270 l 546 1146 z "},"Ç":{"ha":815,"x_min":79,"x_max":773,"o":"m 702 300 l 625 299 q 584 206 609 251 q 525 127 559 161 q 446 74 490 94 q 346 56 401 54 q 266 75 299 57 q 210 121 233 92 q 177 188 189 151 q 160 265 165 225 q 158 346 156 306 q 165 422 159 387 l 190 566 q 210 649 197 606 q 241 732 222 692 q 285 810 260 773 q 342 873 310 846 q 414 917 374 901 q 501 932 454 932 q 591 910 555 932 q 650 854 627 889 q 683 777 673 821 q 694 686 694 732 l 773 686 q 756 806 772 749 q 707 905 741 863 q 624 975 674 949 q 505 1001 573 1001 q 396 983 446 1002 q 306 934 347 965 q 232 860 264 902 q 175 768 199 817 q 134 668 151 720 q 109 565 118 616 l 85 422 q 79 326 79 376 q 89 227 79 275 q 118 136 98 179 q 168 60 137 92 q 242 7 199 27 q 342 -14 286 -12 q 472 10 413 -15 q 576 78 531 35 q 654 178 623 121 q 702 300 686 236 m 362 -3 l 300 -3 l 269 -88 q 305 -94 286 -91 q 341 -104 325 -97 q 366 -125 357 -111 q 371 -161 375 -138 q 350 -202 366 -186 q 313 -227 334 -218 q 268 -240 292 -236 q 223 -245 244 -244 l 221 -298 q 268 -294 243 -297 q 315 -284 292 -291 q 360 -267 338 -278 q 399 -241 382 -256 q 425 -206 415 -226 q 437 -160 435 -186 q 433 -114 439 -134 q 412 -80 426 -94 q 383 -60 400 -68 q 346 -47 366 -52 l 362 -3 z "},"Ĉ":{"ha":815,"x_min":79,"x_max":773,"o":"m 702 300 l 625 299 q 584 206 609 251 q 525 127 559 161 q 446 74 490 94 q 346 56 401 54 q 266 75 299 57 q 210 121 233 92 q 177 188 189 151 q 160 265 165 225 q 158 346 156 306 q 165 422 159 387 l 190 566 q 210 649 197 606 q 241 732 222 692 q 285 810 260 773 q 342 873 310 846 q 414 917 374 901 q 501 932 454 932 q 591 910 555 932 q 650 854 627 889 q 683 777 673 821 q 694 686 694 732 l 773 686 q 756 806 772 749 q 707 905 741 863 q 624 975 674 949 q 505 1001 573 1001 q 396 983 446 1002 q 306 934 347 965 q 232 860 264 902 q 175 768 199 817 q 134 668 151 720 q 109 565 118 616 l 85 422 q 79 326 79 376 q 89 227 79 275 q 118 136 98 179 q 168 60 137 92 q 242 7 199 27 q 342 -14 286 -12 q 472 10 413 -15 q 576 78 531 35 q 654 178 623 121 q 702 300 686 236 m 729 1105 l 593 1269 l 543 1269 l 363 1107 l 361 1094 l 435 1094 l 566 1211 l 656 1093 l 728 1093 l 729 1105 z "},"Ď":{"ha":815,"x_min":46,"x_max":770,"o":"m 46 0 l 283 0 q 405 18 347 1 q 511 67 462 36 q 596 137 557 96 q 665 226 635 178 q 716 331 696 275 q 747 446 737 387 l 762 542 q 767 648 770 595 q 750 749 764 701 q 709 840 735 798 q 646 914 684 883 q 557 967 608 947 q 444 987 507 986 l 217 987 l 46 0 m 286 918 l 442 918 q 533 899 494 916 q 602 856 573 883 q 648 794 629 829 q 676 721 667 760 q 688 634 687 680 q 683 544 690 589 l 667 446 q 641 351 658 397 q 600 264 625 305 q 543 187 575 222 q 471 127 511 152 q 385 85 431 100 q 285 69 338 71 l 138 70 l 286 918 m 493 1132 l 402 1257 l 333 1257 l 332 1245 l 463 1077 l 520 1077 l 701 1245 l 701 1257 l 629 1256 l 493 1132 z "},"Đ":{"ha":815,"x_min":-28,"x_max":780,"o":"m 56 0 l 294 0 q 464 37 386 1 q 600 131 542 72 q 702 274 661 192 q 757 446 742 355 l 772 542 q 777 651 780 597 q 759 753 773 705 q 718 843 744 801 q 654 916 692 886 q 566 967 616 948 q 454 987 515 986 l 227 987 l 149 537 l -16 537 l -28 468 l 137 468 l 56 0 m 376 468 l 387 537 l 229 537 l 296 918 l 452 918 q 541 900 502 916 q 608 859 580 885 q 656 797 637 832 q 686 722 676 762 q 699 634 697 680 q 693 544 700 589 l 677 446 q 631 303 663 372 q 549 183 598 235 q 437 101 500 132 q 295 69 373 71 l 149 70 l 217 468 l 376 468 z "},"É":{"ha":815,"x_min":62,"x_max":796,"o":"m 646 473 l 658 545 l 235 545 l 300 916 l 784 916 l 796 987 l 233 987 l 62 0 l 628 0 l 640 72 l 153 72 l 223 473 l 646 473 m 597 1240 l 448 1061 l 519 1061 l 699 1240 l 597 1240 z "},"Ĕ":{"ha":815,"x_min":62,"x_max":796,"o":"m 646 473 l 658 545 l 235 545 l 300 916 l 784 916 l 796 987 l 233 987 l 62 0 l 628 0 l 640 72 l 153 72 l 223 473 l 646 473 m 746 1246 l 678 1246 q 661 1201 672 1221 q 633 1166 650 1181 q 591 1140 615 1149 q 538 1131 568 1131 q 492 1139 511 1131 q 459 1160 473 1146 q 439 1197 446 1175 q 434 1246 433 1219 l 366 1247 q 377 1175 366 1207 q 411 1120 389 1143 q 466 1085 434 1098 q 538 1072 498 1072 q 614 1084 579 1072 q 676 1119 649 1096 q 721 1174 703 1141 q 746 1246 739 1206 z "},"Ě":{"ha":815,"x_min":62,"x_max":796,"o":"m 646 473 l 658 545 l 235 545 l 300 916 l 784 916 l 796 987 l 233 987 l 62 0 l 628 0 l 640 72 l 153 72 l 223 473 l 646 473 m 522 1132 l 431 1257 l 362 1257 l 361 1245 l 492 1077 l 549 1077 l 730 1245 l 730 1257 l 658 1256 l 522 1132 z "},"Ê":{"ha":815,"x_min":62,"x_max":796,"o":"m 646 473 l 658 545 l 235 545 l 300 916 l 784 916 l 796 987 l 233 987 l 62 0 l 628 0 l 640 72 l 153 72 l 223 473 l 646 473 m 702 1091 l 566 1255 l 516 1255 l 336 1093 l 334 1080 l 408 1080 l 539 1196 l 629 1079 l 701 1079 l 702 1091 z "},"Ë":{"ha":815,"x_min":62,"x_max":796,"o":"m 646 473 l 658 545 l 235 545 l 300 916 l 784 916 l 796 987 l 233 987 l 62 0 l 628 0 l 640 72 l 153 72 l 223 473 l 646 473 m 333 1173 q 347 1134 332 1149 q 385 1118 362 1118 q 425 1135 408 1119 q 443 1173 441 1151 q 428 1212 444 1196 q 390 1228 413 1228 q 351 1211 367 1227 q 333 1173 334 1195 m 621 1172 q 635 1133 620 1149 q 673 1118 650 1118 q 712 1134 696 1118 q 730 1173 729 1150 q 716 1212 731 1196 q 677 1227 701 1228 q 638 1211 655 1227 q 621 1172 622 1194 z "},"Ė":{"ha":815,"x_min":62,"x_max":796,"o":"m 646 473 l 658 545 l 235 545 l 300 916 l 784 916 l 796 987 l 233 987 l 62 0 l 628 0 l 640 72 l 153 72 l 223 473 l 646 473 m 490 1160 q 504 1120 488 1135 q 544 1104 520 1104 q 585 1121 568 1105 q 604 1160 602 1137 q 590 1201 606 1185 q 549 1217 574 1218 q 508 1200 525 1217 q 490 1160 491 1183 z "},"È":{"ha":815,"x_min":62,"x_max":796,"o":"m 646 473 l 658 545 l 235 545 l 300 916 l 784 916 l 796 987 l 233 987 l 62 0 l 628 0 l 640 72 l 153 72 l 223 473 l 646 473 m 587 1061 l 497 1242 l 407 1242 l 524 1061 l 587 1061 z "},"Ē":{"ha":815,"x_min":62,"x_max":796,"o":"m 646 473 l 658 545 l 235 545 l 300 916 l 784 916 l 796 987 l 233 987 l 62 0 l 628 0 l 640 72 l 153 72 l 223 473 l 646 473 m 756 1145 l 766 1211 l 324 1211 l 314 1145 l 756 1145 z "},"Ŋ":{"ha":815,"x_min":51,"x_max":787,"o":"m 787 987 l 709 987 l 566 167 l 297 987 l 221 987 l 51 0 l 129 0 l 272 823 l 540 9 l 528 -60 q 514 -116 524 -87 q 489 -170 505 -145 q 450 -212 473 -195 q 395 -228 427 -228 q 366 -224 380 -228 q 338 -216 351 -221 l 322 -283 q 357 -293 340 -289 q 392 -296 374 -296 q 479 -276 441 -297 q 543 -222 517 -256 q 586 -146 570 -189 q 608 -60 602 -104 l 787 987 z "},"Ę":{"ha":815,"x_min":62,"x_max":796,"o":"m 646 473 l 658 545 l 235 545 l 300 916 l 784 916 l 796 987 l 233 987 l 62 0 l 469 0 q 425 -33 447 -15 q 384 -71 402 -50 q 353 -116 366 -92 q 339 -168 341 -140 q 342 -210 337 -191 q 359 -244 348 -230 q 394 -271 373 -261 q 441 -280 414 -280 q 494 -273 469 -281 q 543 -252 519 -265 l 532 -193 q 496 -209 515 -202 q 458 -214 477 -216 q 420 -199 433 -214 q 412 -160 408 -185 q 430 -109 415 -132 q 467 -66 446 -85 q 512 -31 488 -47 q 557 -1 536 -15 l 561 0 l 628 0 l 640 72 l 153 72 l 223 473 l 646 473 z "},"Ð":{"ha":815,"x_min":-28,"x_max":780,"o":"m 56 0 l 294 0 q 464 37 386 1 q 600 131 542 72 q 702 274 661 192 q 757 446 742 355 l 772 542 q 777 651 780 597 q 759 753 773 705 q 718 843 744 801 q 654 916 692 886 q 566 967 616 948 q 454 987 515 986 l 227 987 l 149 537 l -16 537 l -28 468 l 137 468 l 56 0 m 376 468 l 387 537 l 229 537 l 296 918 l 452 918 q 541 900 502 916 q 608 859 580 885 q 656 797 637 832 q 686 722 676 762 q 699 634 697 680 q 693 544 700 589 l 677 446 q 631 303 663 372 q 549 183 598 235 q 437 101 500 132 q 295 69 373 71 l 149 70 l 217 468 l 376 468 z "},"Ğ":{"ha":815,"x_min":75,"x_max":774,"o":"m 675 118 l 732 470 l 429 470 l 417 398 l 644 398 l 600 144 q 488 76 551 96 q 357 59 425 56 q 276 78 311 60 q 218 125 242 96 q 181 190 195 153 q 160 268 167 227 q 155 349 154 308 q 161 428 155 391 l 185 568 q 205 650 192 608 q 238 733 219 693 q 284 809 258 773 q 342 872 310 846 q 415 914 376 899 q 503 929 455 930 q 587 911 551 928 q 646 863 623 893 q 682 793 669 833 q 696 709 694 753 l 774 709 q 756 823 774 770 q 703 915 738 876 q 620 978 669 955 q 506 1001 570 1000 q 397 984 447 1002 q 306 935 347 966 q 231 861 264 903 q 172 770 197 819 q 130 669 147 722 q 104 566 113 617 l 81 429 q 76 329 75 380 q 88 229 77 277 q 121 137 100 180 q 175 61 142 94 q 252 8 208 28 q 355 -13 297 -12 q 529 18 446 -16 q 675 118 612 52 m 750 1261 l 682 1260 q 665 1215 676 1236 q 637 1180 654 1195 q 595 1155 619 1164 q 543 1145 572 1145 q 496 1153 515 1145 q 463 1175 477 1160 q 443 1212 450 1190 q 438 1261 437 1234 l 370 1261 q 381 1190 370 1221 q 415 1135 393 1158 q 470 1099 438 1112 q 542 1086 502 1086 q 618 1098 583 1086 q 680 1133 653 1110 q 725 1188 707 1156 q 750 1261 743 1221 z "},"Ĝ":{"ha":815,"x_min":75,"x_max":774,"o":"m 675 118 l 732 470 l 429 470 l 417 398 l 644 398 l 600 144 q 488 76 551 96 q 357 59 425 56 q 276 78 311 60 q 218 125 242 96 q 181 190 195 153 q 160 268 167 227 q 155 349 154 308 q 161 428 155 391 l 185 568 q 205 650 192 608 q 238 733 219 693 q 284 809 258 773 q 342 872 310 846 q 415 914 376 899 q 503 929 455 930 q 587 911 551 928 q 646 863 623 893 q 682 793 669 833 q 696 709 694 753 l 774 709 q 756 823 774 770 q 703 915 738 876 q 620 978 669 955 q 506 1001 570 1000 q 397 984 447 1002 q 306 935 347 966 q 231 861 264 903 q 172 770 197 819 q 130 669 147 722 q 104 566 113 617 l 81 429 q 76 329 75 380 q 88 229 77 277 q 121 137 100 180 q 175 61 142 94 q 252 8 208 28 q 355 -13 297 -12 q 529 18 446 -16 q 675 118 612 52 m 723 1105 l 587 1269 l 537 1269 l 357 1107 l 355 1094 l 429 1094 l 560 1211 l 650 1093 l 722 1093 l 723 1105 z "},"Ģ":{"ha":815,"x_min":75,"x_max":774,"o":"m 675 118 l 732 470 l 429 470 l 417 398 l 644 398 l 600 144 q 488 76 551 96 q 357 59 425 56 q 276 78 311 60 q 218 125 242 96 q 181 190 195 153 q 160 268 167 227 q 155 349 154 308 q 161 428 155 391 l 185 568 q 205 650 192 608 q 238 733 219 693 q 284 809 258 773 q 342 872 310 846 q 415 914 376 899 q 503 929 455 930 q 587 911 551 928 q 646 863 623 893 q 682 793 669 833 q 696 709 694 753 l 774 709 q 756 823 774 770 q 703 915 738 876 q 620 978 669 955 q 506 1001 570 1000 q 397 984 447 1002 q 306 935 347 966 q 231 861 264 903 q 172 770 197 819 q 130 669 147 722 q 104 566 113 617 l 81 429 q 76 329 75 380 q 88 229 77 277 q 121 137 100 180 q 175 61 142 94 q 252 8 208 28 q 355 -13 297 -12 q 529 18 446 -16 q 675 118 612 52 m 369 -104 l 376 -55 l 299 -55 l 291 -106 q 264 -190 283 -151 q 218 -265 245 -229 l 263 -302 q 333 -212 306 -262 q 369 -104 360 -162 z "},"Ħ":{"ha":815,"x_min":31,"x_max":854,"o":"m 762 762 l 802 987 l 726 987 l 687 762 l 238 762 l 277 987 l 202 987 l 163 762 l 85 762 l 74 696 l 151 696 l 31 0 l 106 0 l 188 473 l 637 473 l 555 0 l 631 0 l 751 696 l 843 696 l 854 762 l 762 762 m 650 545 l 200 545 l 227 696 l 675 696 l 650 545 z "},"Ĥ":{"ha":815,"x_min":35,"x_max":805,"o":"m 634 0 l 805 987 l 730 987 l 653 545 l 203 545 l 280 987 l 205 987 l 35 0 l 109 0 l 191 473 l 641 473 l 559 0 l 634 0 m 705 1091 l 569 1255 l 519 1255 l 339 1093 l 338 1080 l 412 1080 l 543 1196 l 632 1079 l 704 1079 l 705 1091 z "},"Í":{"ha":815,"x_min":56,"x_max":783,"o":"m 227 987 l 215 914 l 448 914 l 302 73 l 68 73 l 56 0 l 612 0 l 624 73 l 384 73 l 530 914 l 770 914 l 783 987 l 227 987 m 607 1240 l 458 1061 l 530 1061 l 709 1240 l 607 1240 z "},"Ĭ":{"ha":815,"x_min":56,"x_max":783,"o":"m 227 987 l 215 914 l 448 914 l 302 73 l 68 73 l 56 0 l 612 0 l 624 73 l 384 73 l 530 914 l 770 914 l 783 987 l 227 987 m 719 1246 l 651 1246 q 634 1201 645 1221 q 606 1166 623 1181 q 564 1140 588 1149 q 511 1131 541 1131 q 465 1139 484 1131 q 432 1160 446 1146 q 412 1197 418 1175 q 407 1246 406 1219 l 339 1247 q 350 1175 338 1207 q 384 1120 361 1143 q 439 1085 407 1098 q 511 1072 471 1072 q 587 1084 552 1072 q 649 1119 622 1096 q 694 1174 676 1141 q 719 1246 712 1206 z "},"Î":{"ha":815,"x_min":56,"x_max":783,"o":"m 227 987 l 215 914 l 448 914 l 302 73 l 68 73 l 56 0 l 612 0 l 624 73 l 384 73 l 530 914 l 770 914 l 783 987 l 227 987 m 692 1091 l 556 1255 l 507 1255 l 326 1093 l 325 1080 l 399 1080 l 530 1196 l 619 1079 l 691 1079 l 692 1091 z "},"Ï":{"ha":815,"x_min":56,"x_max":783,"o":"m 227 987 l 215 914 l 448 914 l 302 73 l 68 73 l 56 0 l 612 0 l 624 73 l 384 73 l 530 914 l 770 914 l 783 987 l 227 987 m 324 1173 q 338 1134 323 1149 q 376 1118 353 1118 q 416 1135 399 1119 q 434 1173 433 1151 q 419 1212 435 1196 q 381 1228 404 1228 q 342 1211 358 1227 q 324 1173 326 1195 m 612 1172 q 626 1133 611 1149 q 664 1118 642 1118 q 704 1134 687 1118 q 722 1173 720 1150 q 707 1212 722 1196 q 669 1227 692 1228 q 630 1211 646 1227 q 612 1172 613 1194 z "},"İ":{"ha":815,"x_min":56,"x_max":783,"o":"m 227 987 l 215 914 l 448 914 l 302 73 l 68 73 l 56 0 l 612 0 l 624 73 l 384 73 l 530 914 l 770 914 l 783 987 l 227 987 m 461 1160 q 476 1120 460 1135 q 515 1104 492 1104 q 556 1121 539 1105 q 575 1160 574 1137 q 561 1201 577 1185 q 521 1217 545 1218 q 479 1200 496 1217 q 461 1160 463 1183 z "},"Ì":{"ha":815,"x_min":56,"x_max":783,"o":"m 227 987 l 215 914 l 448 914 l 302 73 l 68 73 l 56 0 l 612 0 l 624 73 l 384 73 l 530 914 l 770 914 l 783 987 l 227 987 m 548 1061 l 458 1242 l 368 1242 l 484 1061 l 548 1061 z "},"Ī":{"ha":815,"x_min":56,"x_max":783,"o":"m 227 987 l 215 914 l 448 914 l 302 73 l 68 73 l 56 0 l 612 0 l 624 73 l 384 73 l 530 914 l 770 914 l 783 987 l 227 987 m 741 1145 l 751 1211 l 309 1211 l 298 1145 l 741 1145 z "},"Į":{"ha":815,"x_min":56,"x_max":783,"o":"m 227 987 l 215 914 l 448 914 l 302 73 l 68 73 l 56 0 l 431 0 q 387 -33 409 -15 q 346 -71 364 -50 q 315 -116 328 -92 q 301 -168 303 -140 q 305 -211 299 -191 q 323 -246 311 -231 q 357 -271 336 -262 q 404 -280 377 -280 q 456 -273 431 -281 q 505 -252 481 -265 l 494 -193 q 458 -209 477 -202 q 420 -214 439 -216 q 382 -199 395 -214 q 374 -160 370 -185 q 392 -109 377 -132 q 429 -66 408 -85 q 474 -31 450 -47 q 519 -1 498 -15 l 516 0 l 612 0 l 624 73 l 384 73 l 530 914 l 770 914 l 783 987 l 227 987 z "},"Ĩ":{"ha":815,"x_min":56,"x_max":783,"o":"m 227 987 l 215 914 l 448 914 l 302 73 l 68 73 l 56 0 l 612 0 l 624 73 l 384 73 l 530 914 l 770 914 l 783 987 l 227 987 m 751 1238 l 699 1248 q 687 1218 694 1233 q 667 1190 680 1204 q 644 1171 656 1178 q 616 1164 631 1164 q 570 1177 591 1164 q 528 1204 549 1190 q 487 1230 508 1218 q 437 1241 465 1241 q 385 1230 408 1241 q 343 1198 361 1218 q 314 1154 326 1179 q 298 1102 303 1128 l 351 1095 q 363 1124 356 1109 q 382 1149 371 1138 q 406 1167 392 1160 q 437 1174 420 1174 q 483 1162 462 1175 q 524 1136 504 1150 q 564 1110 543 1122 q 612 1099 585 1099 q 665 1111 642 1099 q 707 1142 689 1122 q 735 1186 724 1161 q 751 1238 746 1211 z "},"Ĵ":{"ha":815,"x_min":49,"x_max":932,"o":"m 694 987 l 576 300 q 543 208 566 252 q 486 131 520 164 q 407 78 451 98 q 312 58 363 58 q 228 76 263 58 q 169 123 192 94 q 137 194 146 154 q 131 279 127 234 l 51 279 q 64 164 49 218 q 113 72 80 111 q 194 10 145 33 q 308 -14 243 -13 q 435 11 376 -14 q 539 79 494 36 q 615 179 585 121 q 657 300 646 236 l 774 987 l 694 987 m 932 1077 l 796 1240 l 747 1240 l 566 1079 l 565 1065 l 639 1065 l 770 1182 l 859 1065 l 931 1065 l 932 1077 z "},"Ķ":{"ha":815,"x_min":62,"x_max":854,"o":"m 353 488 l 614 0 l 706 0 l 412 545 l 854 987 l 749 987 l 359 600 l 222 468 l 313 987 l 232 987 l 62 0 l 142 0 l 202 351 l 353 488 m 357 -59 l 364 -9 l 287 -9 l 279 -61 q 252 -144 271 -106 q 205 -220 233 -183 l 251 -256 q 321 -167 294 -217 q 357 -59 348 -117 z "},"Ĺ":{"ha":815,"x_min":74,"x_max":654,"o":"m 167 72 l 325 987 l 245 987 l 74 0 l 642 0 l 654 72 l 167 72 m 400 1208 l 252 1029 l 323 1029 l 502 1208 l 400 1208 z "},"Ľ":{"ha":815,"x_min":74,"x_max":675,"o":"m 167 72 l 325 987 l 245 987 l 74 0 l 642 0 l 654 72 l 167 72 m 661 903 l 675 987 l 597 987 l 581 901 q 547 802 571 848 q 490 715 524 757 l 534 678 q 581 728 559 701 q 619 784 603 754 q 645 841 634 811 q 661 903 655 871 z "},"Ļ":{"ha":815,"x_min":74,"x_max":654,"o":"m 167 72 l 325 987 l 245 987 l 74 0 l 642 0 l 654 72 l 167 72 m 349 -95 l 357 -45 l 279 -45 l 271 -97 q 244 -180 263 -142 q 198 -256 225 -219 l 243 -292 q 313 -203 286 -253 q 349 -95 340 -153 z "},"Ŀ":{"ha":815,"x_min":74,"x_max":654,"o":"m 167 72 l 325 987 l 245 987 l 74 0 l 642 0 l 654 72 l 167 72 m 398 524 q 413 484 397 499 q 452 468 429 468 q 493 485 476 469 q 512 524 511 500 q 498 565 514 549 q 458 581 482 582 q 416 564 433 581 q 398 524 399 547 z "},"Ł":{"ha":815,"x_min":40,"x_max":668,"o":"m 266 559 l 340 987 l 260 987 l 181 534 l 53 495 l 40 418 l 168 457 l 89 0 l 656 0 l 668 72 l 181 72 l 252 484 l 456 545 l 469 622 l 266 559 z "},"Ń":{"ha":815,"x_min":36,"x_max":804,"o":"m 633 0 l 804 987 l 724 987 l 580 155 l 283 987 l 206 987 l 36 0 l 115 0 l 260 835 l 557 0 l 633 0 m 608 1240 l 460 1061 l 531 1061 l 710 1240 l 608 1240 z "},"Ň":{"ha":815,"x_min":36,"x_max":804,"o":"m 633 0 l 804 987 l 724 987 l 580 155 l 283 987 l 206 987 l 36 0 l 115 0 l 260 835 l 557 0 l 633 0 m 524 1132 l 433 1257 l 363 1257 l 363 1245 l 493 1077 l 551 1077 l 731 1245 l 732 1257 l 659 1256 l 524 1132 z "},"Ņ":{"ha":815,"x_min":36,"x_max":804,"o":"m 633 0 l 804 987 l 724 987 l 580 155 l 283 987 l 206 987 l 36 0 l 115 0 l 260 835 l 557 0 l 633 0 m 357 -95 l 364 -45 l 287 -45 l 279 -97 q 252 -180 271 -142 q 205 -256 233 -219 l 251 -292 q 321 -203 294 -253 q 357 -95 348 -153 z "},"Ñ":{"ha":815,"x_min":36,"x_max":804,"o":"m 633 0 l 804 987 l 724 987 l 580 155 l 283 987 l 206 987 l 36 0 l 115 0 l 260 835 l 557 0 l 633 0 m 758 1238 l 706 1248 q 694 1218 701 1233 q 674 1190 686 1204 q 651 1171 663 1178 q 623 1164 638 1164 q 577 1177 597 1164 q 535 1204 556 1190 q 493 1230 515 1218 q 444 1241 472 1241 q 391 1230 415 1241 q 350 1198 368 1218 q 321 1154 332 1179 q 305 1102 310 1128 l 358 1095 q 370 1124 363 1109 q 389 1149 378 1138 q 413 1167 399 1160 q 444 1174 427 1174 q 490 1162 469 1175 q 531 1136 511 1150 q 571 1110 550 1122 q 618 1099 592 1099 q 672 1111 648 1099 q 713 1142 696 1122 q 742 1186 730 1161 q 758 1238 753 1211 z "},"Ó":{"ha":815,"x_min":79,"x_max":759,"o":"m 731 429 l 752 559 q 759 655 759 605 q 750 755 759 706 q 723 848 741 804 q 673 926 704 892 q 601 980 644 960 q 500 1001 557 1000 q 392 983 441 1002 q 302 932 342 965 q 229 856 261 899 q 172 762 196 812 q 132 661 149 713 q 107 559 116 608 l 86 429 q 79 332 79 382 q 89 233 79 281 q 117 140 98 184 q 166 62 136 96 q 239 7 197 28 q 340 -14 282 -13 q 448 4 398 -14 q 537 56 497 23 q 610 132 578 88 q 666 224 642 176 q 706 327 690 274 q 731 429 722 379 m 674 561 l 652 429 q 632 346 644 389 q 602 262 620 303 q 558 184 583 221 q 502 119 534 147 q 431 75 470 91 q 344 60 391 59 q 264 78 297 60 q 210 125 231 96 q 176 193 188 155 q 160 272 164 231 q 157 353 155 313 q 164 428 159 393 l 187 560 q 207 642 194 599 q 237 726 219 684 q 281 803 256 766 q 338 868 306 840 q 409 912 370 896 q 496 927 448 928 q 575 909 542 926 q 629 862 608 891 q 663 795 651 833 q 679 717 675 758 q 681 636 683 677 q 674 561 679 595 m 635 1255 l 486 1076 l 557 1075 l 736 1255 l 635 1255 z "},"Ŏ":{"ha":815,"x_min":79,"x_max":759,"o":"m 731 429 l 752 559 q 759 655 759 605 q 750 755 759 706 q 723 848 741 804 q 673 926 704 892 q 601 980 644 960 q 500 1001 557 1000 q 392 983 441 1002 q 302 932 342 965 q 229 856 261 899 q 172 762 196 812 q 132 661 149 713 q 107 559 116 608 l 86 429 q 79 332 79 382 q 89 233 79 281 q 117 140 98 184 q 166 62 136 96 q 239 7 197 28 q 340 -14 282 -13 q 448 4 398 -14 q 537 56 497 23 q 610 132 578 88 q 666 224 642 176 q 706 327 690 274 q 731 429 722 379 m 674 561 l 652 429 q 632 346 644 389 q 602 262 620 303 q 558 184 583 221 q 502 119 534 147 q 431 75 470 91 q 344 60 391 59 q 264 78 297 60 q 210 125 231 96 q 176 193 188 155 q 160 272 164 231 q 157 353 155 313 q 164 428 159 393 l 187 560 q 207 642 194 599 q 237 726 219 684 q 281 803 256 766 q 338 868 306 840 q 409 912 370 896 q 496 927 448 928 q 575 909 542 926 q 629 862 608 891 q 663 795 651 833 q 679 717 675 758 q 681 636 683 677 q 674 561 679 595 m 746 1261 l 678 1260 q 661 1215 672 1236 q 633 1180 650 1195 q 591 1155 615 1164 q 538 1145 568 1145 q 492 1153 511 1145 q 459 1175 473 1160 q 439 1212 446 1190 q 434 1261 433 1234 l 366 1261 q 377 1190 366 1221 q 411 1135 389 1158 q 466 1099 434 1112 q 538 1086 498 1086 q 614 1098 579 1086 q 676 1133 649 1110 q 721 1188 703 1156 q 746 1261 739 1221 z "},"Ô":{"ha":815,"x_min":79,"x_max":759,"o":"m 731 429 l 752 559 q 759 655 759 605 q 750 755 759 706 q 723 848 741 804 q 673 926 704 892 q 601 980 644 960 q 500 1001 557 1000 q 392 983 441 1002 q 302 932 342 965 q 229 856 261 899 q 172 762 196 812 q 132 661 149 713 q 107 559 116 608 l 86 429 q 79 332 79 382 q 89 233 79 281 q 117 140 98 184 q 166 62 136 96 q 239 7 197 28 q 340 -14 282 -13 q 448 4 398 -14 q 537 56 497 23 q 610 132 578 88 q 666 224 642 176 q 706 327 690 274 q 731 429 722 379 m 674 561 l 652 429 q 632 346 644 389 q 602 262 620 303 q 558 184 583 221 q 502 119 534 147 q 431 75 470 91 q 344 60 391 59 q 264 78 297 60 q 210 125 231 96 q 176 193 188 155 q 160 272 164 231 q 157 353 155 313 q 164 428 159 393 l 187 560 q 207 642 194 599 q 237 726 219 684 q 281 803 256 766 q 338 868 306 840 q 409 912 370 896 q 496 927 448 928 q 575 909 542 926 q 629 862 608 891 q 663 795 651 833 q 679 717 675 758 q 681 636 683 677 q 674 561 679 595 m 719 1105 l 583 1269 l 533 1269 l 353 1107 l 351 1094 l 425 1094 l 556 1211 l 646 1093 l 718 1093 l 719 1105 z "},"Ö":{"ha":815,"x_min":79,"x_max":759,"o":"m 731 429 l 752 559 q 759 655 759 605 q 750 755 759 706 q 723 848 741 804 q 673 926 704 892 q 601 980 644 960 q 500 1001 557 1000 q 392 983 441 1002 q 302 932 342 965 q 229 856 261 899 q 172 762 196 812 q 132 661 149 713 q 107 559 116 608 l 86 429 q 79 332 79 382 q 89 233 79 281 q 117 140 98 184 q 166 62 136 96 q 239 7 197 28 q 340 -14 282 -13 q 448 4 398 -14 q 537 56 497 23 q 610 132 578 88 q 666 224 642 176 q 706 327 690 274 q 731 429 722 379 m 674 561 l 652 429 q 632 346 644 389 q 602 262 620 303 q 558 184 583 221 q 502 119 534 147 q 431 75 470 91 q 344 60 391 59 q 264 78 297 60 q 210 125 231 96 q 176 193 188 155 q 160 272 164 231 q 157 353 155 313 q 164 428 159 393 l 187 560 q 207 642 194 599 q 237 726 219 684 q 281 803 256 766 q 338 868 306 840 q 409 912 370 896 q 496 927 448 928 q 575 909 542 926 q 629 862 608 891 q 663 795 651 833 q 679 717 675 758 q 681 636 683 677 q 674 561 679 595 m 344 1187 q 358 1148 343 1164 q 396 1133 373 1133 q 435 1149 418 1133 q 454 1187 452 1165 q 439 1226 454 1210 q 401 1242 424 1242 q 361 1225 378 1242 q 344 1187 345 1209 m 631 1186 q 646 1147 631 1163 q 684 1132 661 1132 q 723 1148 707 1133 q 741 1187 740 1164 q 727 1226 742 1210 q 688 1242 711 1242 q 649 1225 666 1241 q 631 1186 633 1208 z "},"Ò":{"ha":815,"x_min":79,"x_max":759,"o":"m 731 429 l 752 559 q 759 655 759 605 q 750 755 759 706 q 723 848 741 804 q 673 926 704 892 q 601 980 644 960 q 500 1001 557 1000 q 392 983 441 1002 q 302 932 342 965 q 229 856 261 899 q 172 762 196 812 q 132 661 149 713 q 107 559 116 608 l 86 429 q 79 332 79 382 q 89 233 79 281 q 117 140 98 184 q 166 62 136 96 q 239 7 197 28 q 340 -14 282 -13 q 448 4 398 -14 q 537 56 497 23 q 610 132 578 88 q 666 224 642 176 q 706 327 690 274 q 731 429 722 379 m 674 561 l 652 429 q 632 346 644 389 q 602 262 620 303 q 558 184 583 221 q 502 119 534 147 q 431 75 470 91 q 344 60 391 59 q 264 78 297 60 q 210 125 231 96 q 176 193 188 155 q 160 272 164 231 q 157 353 155 313 q 164 428 159 393 l 187 560 q 207 642 194 599 q 237 726 219 684 q 281 803 256 766 q 338 868 306 840 q 409 912 370 896 q 496 927 448 928 q 575 909 542 926 q 629 862 608 891 q 663 795 651 833 q 679 717 675 758 q 681 636 683 677 q 674 561 679 595 m 568 1076 l 478 1257 l 388 1257 l 505 1076 l 568 1076 z "},"Ơ":{"ha":815,"x_min":77,"x_max":916,"o":"m 728 429 l 750 559 q 756 683 759 618 q 735 808 753 748 q 806 837 775 817 q 859 886 837 857 q 896 956 882 917 q 916 1042 909 996 l 844 1042 q 827 981 837 1010 q 802 928 818 952 q 764 889 787 905 q 709 867 741 873 q 677 918 695 895 q 635 958 659 941 q 574 989 608 978 q 497 1001 539 1001 q 389 983 439 1002 q 299 932 340 965 q 226 856 258 899 q 170 763 194 812 q 130 661 146 713 q 105 559 114 608 l 83 429 q 77 332 77 382 q 86 233 77 281 q 114 140 96 184 q 163 62 133 96 q 237 7 194 28 q 337 -14 280 -13 q 445 4 395 -14 q 535 56 494 23 q 608 132 576 88 q 664 225 640 176 q 704 327 688 274 q 728 429 720 379 m 671 561 l 649 429 q 630 346 642 389 q 599 262 617 303 q 556 184 581 221 q 499 119 531 147 q 428 75 468 91 q 341 60 389 59 q 262 78 294 60 q 207 125 229 96 q 174 193 185 155 q 157 272 162 231 q 155 353 153 313 q 162 428 157 393 l 184 560 q 204 642 192 599 q 235 726 216 684 q 279 803 254 766 q 336 868 304 840 q 407 912 368 896 q 493 927 446 928 q 573 909 540 926 q 627 862 606 891 q 661 795 649 833 q 676 717 672 758 q 679 636 681 677 q 671 561 677 595 z "},"Ő":{"ha":815,"x_min":79,"x_max":863,"o":"m 731 429 l 752 559 q 759 655 759 605 q 750 755 759 706 q 723 848 741 804 q 673 926 704 892 q 601 980 644 960 q 500 1001 557 1000 q 392 983 441 1002 q 302 932 342 965 q 229 856 261 899 q 172 762 196 812 q 132 661 149 713 q 107 559 116 608 l 86 429 q 79 332 79 382 q 89 233 79 281 q 117 140 98 184 q 166 62 136 96 q 239 7 197 28 q 340 -14 282 -13 q 448 4 398 -14 q 537 56 497 23 q 610 132 578 88 q 666 224 642 176 q 706 327 690 274 q 731 429 722 379 m 674 561 l 652 429 q 632 346 644 389 q 602 262 620 303 q 558 184 583 221 q 502 119 534 147 q 431 75 470 91 q 344 60 391 59 q 264 78 297 60 q 210 125 231 96 q 176 193 188 155 q 160 272 164 231 q 157 353 155 313 q 164 428 159 393 l 187 560 q 207 642 194 599 q 237 726 219 684 q 281 803 256 766 q 338 868 306 840 q 409 912 370 896 q 496 927 448 928 q 575 909 542 926 q 629 862 608 891 q 663 795 651 833 q 679 717 675 758 q 681 636 683 677 q 674 561 679 595 m 753 1276 l 544 1082 l 631 1082 l 863 1276 l 753 1276 m 553 1276 l 379 1082 l 458 1082 l 654 1276 l 553 1276 z "},"Ō":{"ha":815,"x_min":79,"x_max":770,"o":"m 731 429 l 752 559 q 759 655 759 605 q 750 755 759 706 q 723 848 741 804 q 673 926 704 892 q 601 980 644 960 q 500 1001 557 1000 q 392 983 441 1002 q 302 932 342 965 q 229 856 261 899 q 172 762 196 812 q 132 661 149 713 q 107 559 116 608 l 86 429 q 79 332 79 382 q 89 233 79 281 q 117 140 98 184 q 166 62 136 96 q 239 7 197 28 q 340 -14 282 -13 q 448 4 398 -14 q 537 56 497 23 q 610 132 578 88 q 666 224 642 176 q 706 327 690 274 q 731 429 722 379 m 674 561 l 652 429 q 632 346 644 389 q 602 262 620 303 q 558 184 583 221 q 502 119 534 147 q 431 75 470 91 q 344 60 391 59 q 264 78 297 60 q 210 125 231 96 q 176 193 188 155 q 160 272 164 231 q 157 353 155 313 q 164 428 159 393 l 187 560 q 207 642 194 599 q 237 726 219 684 q 281 803 256 766 q 338 868 306 840 q 409 912 370 896 q 496 927 448 928 q 575 909 542 926 q 629 862 608 891 q 663 795 651 833 q 679 717 675 758 q 681 636 683 677 q 674 561 679 595 m 760 1159 l 770 1225 l 328 1225 l 318 1159 l 760 1159 z "},"Ø":{"ha":815,"x_min":-10,"x_max":865,"o":"m 724 429 l 745 559 q 752 625 750 591 q 751 695 753 660 q 741 764 748 730 q 723 830 734 799 l 865 1021 l 791 1021 l 693 888 q 662 930 680 911 q 623 964 645 949 q 565 991 597 981 q 493 1001 532 1001 q 385 983 434 1002 q 295 932 336 965 q 222 856 254 899 q 165 763 189 812 q 125 661 142 713 q 100 559 109 608 l 79 429 q 72 351 73 391 q 76 270 71 310 q 91 191 81 229 q 120 119 102 152 l -10 -56 l 63 -56 l 155 66 q 229 9 186 31 q 333 -14 273 -13 q 441 4 391 -14 q 531 56 490 23 q 603 132 571 88 q 659 225 635 176 q 700 327 684 274 q 724 429 715 379 m 157 428 l 180 560 q 200 642 187 599 q 231 726 212 684 q 274 803 250 766 q 331 868 299 840 q 402 912 363 896 q 489 927 441 928 q 544 919 519 927 q 589 896 569 910 q 621 864 607 882 q 644 824 635 846 l 173 189 q 157 247 163 216 q 151 309 152 277 q 151 370 149 340 q 157 428 153 401 m 667 561 l 645 429 q 625 346 637 389 q 595 262 613 303 q 552 184 576 221 q 495 119 527 147 q 424 75 463 91 q 337 60 385 59 q 256 79 289 60 q 201 128 222 98 l 665 753 q 675 654 675 705 q 667 561 674 604 z "},"Ǿ":{"ha":815,"x_min":-10,"x_max":865,"o":"m 724 429 l 745 559 q 752 625 750 591 q 751 695 753 660 q 741 764 748 730 q 723 830 734 799 l 865 1021 l 791 1021 l 693 888 q 662 930 680 911 q 623 964 645 949 q 565 991 597 981 q 493 1001 532 1001 q 385 983 434 1002 q 295 932 336 965 q 222 856 254 899 q 165 763 189 812 q 125 661 142 713 q 100 559 109 608 l 79 429 q 72 351 73 391 q 76 270 71 310 q 91 191 81 229 q 120 119 102 152 l -10 -56 l 63 -56 l 155 66 q 229 9 186 31 q 333 -14 273 -13 q 441 4 391 -14 q 531 56 490 23 q 603 132 571 88 q 659 225 635 176 q 700 327 684 274 q 724 429 715 379 m 157 428 l 180 560 q 200 642 187 599 q 231 726 212 684 q 274 803 250 766 q 331 868 299 840 q 402 912 363 896 q 489 927 441 928 q 544 919 519 927 q 589 896 569 910 q 621 864 607 882 q 644 824 635 846 l 173 189 q 157 247 163 216 q 151 309 152 277 q 151 370 149 340 q 157 428 153 401 m 667 561 l 645 429 q 625 346 637 389 q 595 262 613 303 q 552 184 576 221 q 495 119 527 147 q 424 75 463 91 q 337 60 385 59 q 256 79 289 60 q 201 128 222 98 l 665 753 q 675 654 675 705 q 667 561 674 604 m 651 1282 l 503 1103 l 574 1103 l 753 1282 l 651 1282 z "},"Õ":{"ha":815,"x_min":79,"x_max":770,"o":"m 731 429 l 752 559 q 759 655 759 605 q 750 755 759 706 q 723 848 741 804 q 673 926 704 892 q 601 980 644 960 q 500 1001 557 1000 q 392 983 441 1002 q 302 932 342 965 q 229 856 261 899 q 172 762 196 812 q 132 661 149 713 q 107 559 116 608 l 86 429 q 79 332 79 382 q 89 233 79 281 q 117 140 98 184 q 166 62 136 96 q 239 7 197 28 q 340 -14 282 -13 q 448 4 398 -14 q 537 56 497 23 q 610 132 578 88 q 666 224 642 176 q 706 327 690 274 q 731 429 722 379 m 674 561 l 652 429 q 632 346 644 389 q 602 262 620 303 q 558 184 583 221 q 502 119 534 147 q 431 75 470 91 q 344 60 391 59 q 264 78 297 60 q 210 125 231 96 q 176 193 188 155 q 160 272 164 231 q 157 353 155 313 q 164 428 159 393 l 187 560 q 207 642 194 599 q 237 726 219 684 q 281 803 256 766 q 338 868 306 840 q 409 912 370 896 q 496 927 448 928 q 575 909 542 926 q 629 862 608 891 q 663 795 651 833 q 679 717 675 758 q 681 636 683 677 q 674 561 679 595 m 770 1252 l 719 1262 q 707 1233 714 1247 q 687 1204 699 1218 q 664 1185 676 1192 q 636 1179 651 1179 q 590 1191 610 1178 q 548 1219 569 1204 q 506 1244 528 1232 q 457 1255 485 1255 q 404 1244 428 1255 q 363 1213 380 1232 q 334 1168 345 1193 q 318 1116 323 1143 l 371 1109 q 383 1138 376 1124 q 401 1164 391 1152 q 426 1181 412 1175 q 457 1188 439 1188 q 503 1177 481 1189 q 544 1150 524 1164 q 584 1124 563 1136 q 631 1113 605 1113 q 685 1125 661 1113 q 726 1156 709 1137 q 754 1200 743 1175 q 770 1252 766 1225 z "},"Ŕ":{"ha":815,"x_min":64,"x_max":770,"o":"m 452 413 l 590 0 l 673 0 l 674 9 l 527 431 q 612 474 572 449 q 684 532 652 499 q 735 608 715 566 q 762 700 756 649 q 753 815 770 763 q 701 905 736 867 q 613 964 665 943 q 500 987 562 985 l 235 987 l 64 0 l 142 0 l 214 413 l 452 413 m 226 483 l 301 918 l 498 918 q 582 899 545 916 q 644 854 619 882 q 679 786 669 825 q 682 701 690 747 q 652 614 675 654 q 595 545 629 574 q 518 500 561 517 q 429 482 475 483 l 226 483 m 607 1236 l 458 1057 l 530 1057 l 709 1236 l 607 1236 z "},"Ř":{"ha":815,"x_min":64,"x_max":770,"o":"m 452 413 l 590 0 l 673 0 l 674 9 l 527 431 q 612 474 572 449 q 684 532 652 499 q 735 608 715 566 q 762 700 756 649 q 753 815 770 763 q 701 905 736 867 q 613 964 665 943 q 500 987 562 985 l 235 987 l 64 0 l 142 0 l 214 413 l 452 413 m 226 483 l 301 918 l 498 918 q 582 899 545 916 q 644 854 619 882 q 679 786 669 825 q 682 701 690 747 q 652 614 675 654 q 595 545 629 574 q 518 500 561 517 q 429 482 475 483 l 226 483 m 509 1128 l 418 1253 l 349 1253 l 348 1241 l 478 1073 l 536 1073 l 716 1241 l 717 1253 l 644 1252 l 509 1128 z "},"Ŗ":{"ha":815,"x_min":64,"x_max":770,"o":"m 452 413 l 590 0 l 673 0 l 674 9 l 527 431 q 612 474 572 449 q 684 532 652 499 q 735 608 715 566 q 762 700 756 649 q 753 815 770 763 q 701 905 736 867 q 613 964 665 943 q 500 987 562 985 l 235 987 l 64 0 l 142 0 l 214 413 l 452 413 m 226 483 l 301 918 l 498 918 q 582 899 545 916 q 644 854 619 882 q 679 786 669 825 q 682 701 690 747 q 652 614 675 654 q 595 545 629 574 q 518 500 561 517 q 429 482 475 483 l 226 483 m 332 -95 l 339 -45 l 262 -45 l 254 -97 q 227 -180 245 -142 q 180 -256 208 -219 l 226 -292 q 296 -203 269 -253 q 332 -95 323 -153 z "},"Ś":{"ha":815,"x_min":66,"x_max":779,"o":"m 625 246 q 594 164 618 199 q 534 105 569 128 q 455 70 498 81 q 368 58 412 58 q 278 74 318 58 q 209 117 237 90 q 164 186 180 146 q 149 275 149 226 l 69 275 q 88 156 66 210 q 150 66 110 103 q 246 7 191 28 q 366 -14 301 -13 q 483 3 425 -14 q 589 52 542 20 q 669 135 637 85 q 708 248 701 184 q 696 349 714 306 q 642 431 678 393 q 557 492 610 465 q 452 538 503 520 q 373 569 414 551 q 303 613 333 588 q 261 669 276 637 q 254 745 247 701 q 284 824 260 789 q 343 882 309 859 q 420 918 378 905 q 503 929 462 930 q 587 911 551 928 q 647 865 623 895 q 684 797 671 836 q 696 713 696 758 l 776 713 q 761 827 779 774 q 706 918 742 880 q 620 978 671 956 q 506 1001 568 1000 q 392 985 449 1002 q 288 934 334 968 q 209 852 241 901 q 172 743 178 804 q 186 639 165 684 q 244 562 207 595 q 329 505 281 528 q 425 464 376 481 q 506 430 465 449 q 576 383 547 412 q 617 325 604 359 q 625 246 631 291 m 625 1255 l 477 1076 l 548 1075 l 727 1255 l 625 1255 z "},"Š":{"ha":815,"x_min":66,"x_max":779,"o":"m 625 246 q 594 164 618 199 q 534 105 569 128 q 455 70 498 81 q 368 58 412 58 q 278 74 318 58 q 209 117 237 90 q 164 186 180 146 q 149 275 149 226 l 69 275 q 88 156 66 210 q 150 66 110 103 q 246 7 191 28 q 366 -14 301 -13 q 483 3 425 -14 q 589 52 542 20 q 669 135 637 85 q 708 248 701 184 q 696 349 714 306 q 642 431 678 393 q 557 492 610 465 q 452 538 503 520 q 373 569 414 551 q 303 613 333 588 q 261 669 276 637 q 254 745 247 701 q 284 824 260 789 q 343 882 309 859 q 420 918 378 905 q 503 929 462 930 q 587 911 551 928 q 647 865 623 895 q 684 797 671 836 q 696 713 696 758 l 776 713 q 761 827 779 774 q 706 918 742 880 q 620 978 671 956 q 506 1001 568 1000 q 392 985 449 1002 q 288 934 334 968 q 209 852 241 901 q 172 743 178 804 q 186 639 165 684 q 244 562 207 595 q 329 505 281 528 q 425 464 376 481 q 506 430 465 449 q 576 383 547 412 q 617 325 604 359 q 625 246 631 291 m 527 1146 l 436 1271 l 367 1271 l 366 1259 l 496 1091 l 554 1091 l 734 1259 l 735 1271 l 663 1270 l 527 1146 z "},"Ş":{"ha":815,"x_min":66,"x_max":779,"o":"m 625 246 q 594 164 618 199 q 534 105 569 128 q 455 70 498 81 q 368 58 412 58 q 278 74 318 58 q 209 117 237 90 q 164 186 180 146 q 149 275 149 226 l 69 275 q 88 156 66 210 q 150 66 110 103 q 246 7 191 28 q 366 -14 301 -13 q 483 3 425 -14 q 589 52 542 20 q 669 135 637 85 q 708 248 701 184 q 696 349 714 306 q 642 431 678 393 q 557 492 610 465 q 452 538 503 520 q 373 569 414 551 q 303 613 333 588 q 261 669 276 637 q 254 745 247 701 q 284 824 260 789 q 343 882 309 859 q 420 918 378 905 q 503 929 462 930 q 587 911 551 928 q 647 865 623 895 q 684 797 671 836 q 696 713 696 758 l 776 713 q 761 827 779 774 q 706 918 742 880 q 620 978 671 956 q 506 1001 568 1000 q 392 985 449 1002 q 288 934 334 968 q 209 852 241 901 q 172 743 178 804 q 186 639 165 684 q 244 562 207 595 q 329 505 281 528 q 425 464 376 481 q 506 430 465 449 q 576 383 547 412 q 617 325 604 359 q 625 246 631 291 m 388 -6 l 326 -6 l 295 -92 q 331 -97 311 -94 q 367 -107 351 -100 q 392 -128 382 -115 q 397 -164 401 -142 q 376 -205 392 -189 q 339 -230 360 -221 q 294 -243 317 -239 q 249 -248 270 -248 l 247 -302 q 294 -297 269 -300 q 341 -288 318 -294 q 386 -271 364 -281 q 425 -244 408 -260 q 451 -209 441 -229 q 463 -163 461 -189 q 458 -118 465 -138 q 438 -83 452 -98 q 409 -63 426 -71 q 372 -51 392 -55 l 388 -6 z "},"Ŝ":{"ha":815,"x_min":66,"x_max":779,"o":"m 625 246 q 594 164 618 199 q 534 105 569 128 q 455 70 498 81 q 368 58 412 58 q 278 74 318 58 q 209 117 237 90 q 164 186 180 146 q 149 275 149 226 l 69 275 q 88 156 66 210 q 150 66 110 103 q 246 7 191 28 q 366 -14 301 -13 q 483 3 425 -14 q 589 52 542 20 q 669 135 637 85 q 708 248 701 184 q 696 349 714 306 q 642 431 678 393 q 557 492 610 465 q 452 538 503 520 q 373 569 414 551 q 303 613 333 588 q 261 669 276 637 q 254 745 247 701 q 284 824 260 789 q 343 882 309 859 q 420 918 378 905 q 503 929 462 930 q 587 911 551 928 q 647 865 623 895 q 684 797 671 836 q 696 713 696 758 l 776 713 q 761 827 779 774 q 706 918 742 880 q 620 978 671 956 q 506 1001 568 1000 q 392 985 449 1002 q 288 934 334 968 q 209 852 241 901 q 172 743 178 804 q 186 639 165 684 q 244 562 207 595 q 329 505 281 528 q 425 464 376 481 q 506 430 465 449 q 576 383 547 412 q 617 325 604 359 q 625 246 631 291 m 709 1105 l 573 1269 l 524 1269 l 343 1107 l 342 1094 l 416 1094 l 547 1211 l 636 1093 l 708 1093 l 709 1105 z "},"Ŧ":{"ha":815,"x_min":150,"x_max":851,"o":"m 651 566 l 663 636 l 484 636 l 533 916 l 839 916 l 851 987 l 162 987 l 150 916 l 456 916 l 407 636 l 237 636 l 225 566 l 395 566 l 297 0 l 375 0 l 473 566 l 651 566 z "},"Ť":{"ha":815,"x_min":150,"x_max":851,"o":"m 839 916 l 851 987 l 162 987 l 150 916 l 456 916 l 297 0 l 375 0 l 533 916 l 839 916 m 530 1125 l 439 1250 l 370 1250 l 369 1238 l 499 1070 l 557 1070 l 737 1238 l 738 1250 l 665 1249 l 530 1125 z "},"Ú":{"ha":815,"x_min":81,"x_max":806,"o":"m 806 987 l 729 987 l 612 319 q 580 222 603 269 q 523 138 557 175 q 443 80 488 102 q 342 58 397 58 q 253 82 290 59 q 195 143 217 106 q 168 226 174 180 q 167 318 161 272 l 281 987 l 205 987 l 90 318 q 93 197 81 256 q 138 91 106 138 q 220 16 170 45 q 338 -14 271 -13 q 469 13 409 -14 q 574 86 529 41 q 651 193 621 132 q 692 319 681 254 l 806 987 m 638 1236 l 490 1057 l 561 1057 l 740 1236 l 638 1236 z "},"Ŭ":{"ha":815,"x_min":81,"x_max":806,"o":"m 806 987 l 729 987 l 612 319 q 580 222 603 269 q 523 138 557 175 q 443 80 488 102 q 342 58 397 58 q 253 82 290 59 q 195 143 217 106 q 168 226 174 180 q 167 318 161 272 l 281 987 l 205 987 l 90 318 q 93 197 81 256 q 138 91 106 138 q 220 16 170 45 q 338 -14 271 -13 q 469 13 409 -14 q 574 86 529 41 q 651 193 621 132 q 692 319 681 254 l 806 987 m 749 1242 l 682 1242 q 664 1197 675 1217 q 637 1162 653 1177 q 595 1136 618 1145 q 542 1127 571 1127 q 495 1135 515 1127 q 463 1156 476 1142 q 443 1193 449 1171 q 437 1242 436 1215 l 370 1243 q 380 1171 369 1203 q 414 1116 392 1139 q 469 1081 437 1094 q 541 1068 501 1068 q 617 1080 583 1067 q 680 1115 652 1092 q 725 1170 707 1137 q 749 1242 743 1202 z "},"Û":{"ha":815,"x_min":81,"x_max":806,"o":"m 806 987 l 729 987 l 612 319 q 580 222 603 269 q 523 138 557 175 q 443 80 488 102 q 342 58 397 58 q 253 82 290 59 q 195 143 217 106 q 168 226 174 180 q 167 318 161 272 l 281 987 l 205 987 l 90 318 q 93 197 81 256 q 138 91 106 138 q 220 16 170 45 q 338 -14 271 -13 q 469 13 409 -14 q 574 86 529 41 q 651 193 621 132 q 692 319 681 254 l 806 987 m 722 1087 l 586 1251 l 536 1251 l 356 1089 l 355 1076 l 429 1076 l 559 1192 l 649 1075 l 721 1075 l 722 1087 z "},"Ü":{"ha":815,"x_min":81,"x_max":806,"o":"m 806 987 l 729 987 l 612 319 q 580 222 603 269 q 523 138 557 175 q 443 80 488 102 q 342 58 397 58 q 253 82 290 59 q 195 143 217 106 q 168 226 174 180 q 167 318 161 272 l 281 987 l 205 987 l 90 318 q 93 197 81 256 q 138 91 106 138 q 220 16 170 45 q 338 -14 271 -13 q 469 13 409 -14 q 574 86 529 41 q 651 193 621 132 q 692 319 681 254 l 806 987 m 347 1168 q 361 1130 347 1145 q 399 1114 376 1114 q 439 1131 422 1115 q 457 1169 456 1147 q 443 1208 458 1192 q 404 1224 427 1224 q 365 1207 381 1223 q 347 1168 349 1191 m 635 1168 q 649 1129 634 1145 q 687 1114 665 1114 q 727 1130 710 1114 q 745 1168 743 1146 q 730 1208 745 1192 q 692 1223 715 1224 q 653 1206 669 1223 q 635 1168 636 1190 z "},"Ù":{"ha":815,"x_min":81,"x_max":806,"o":"m 806 987 l 729 987 l 612 319 q 580 222 603 269 q 523 138 557 175 q 443 80 488 102 q 342 58 397 58 q 253 82 290 59 q 195 143 217 106 q 168 226 174 180 q 167 318 161 272 l 281 987 l 205 987 l 90 318 q 93 197 81 256 q 138 91 106 138 q 220 16 170 45 q 338 -14 271 -13 q 469 13 409 -14 q 574 86 529 41 q 651 193 621 132 q 692 319 681 254 l 806 987 m 581 1057 l 490 1238 l 400 1238 l 517 1057 l 581 1057 z "},"Ư":{"ha":815,"x_min":81,"x_max":998,"o":"m 806 987 l 729 987 l 612 319 q 580 222 603 269 q 523 138 557 175 q 443 80 488 102 q 342 58 397 58 q 253 82 290 59 q 195 143 217 106 q 168 226 174 180 q 167 318 161 272 l 281 987 l 205 987 l 90 318 q 93 197 81 256 q 138 91 106 138 q 220 16 170 45 q 338 -14 271 -13 q 469 13 409 -14 q 574 87 529 41 q 651 193 621 132 q 692 319 681 254 l 772 791 q 862 815 823 797 q 927 865 900 834 q 973 940 956 896 q 998 1039 991 984 l 926 1039 q 909 973 919 1004 q 882 919 899 943 q 841 879 865 895 q 783 857 817 863 l 806 987 z "},"Ű":{"ha":815,"x_min":81,"x_max":867,"o":"m 806 987 l 729 987 l 612 319 q 580 222 603 269 q 523 138 557 175 q 443 80 488 102 q 342 58 397 58 q 253 82 290 59 q 195 143 217 106 q 168 226 174 180 q 167 318 161 272 l 281 987 l 205 987 l 90 318 q 93 197 81 256 q 138 91 106 138 q 220 16 170 45 q 338 -14 271 -13 q 469 13 409 -14 q 574 86 529 41 q 651 193 621 132 q 692 319 681 254 l 806 987 m 757 1257 l 547 1064 l 635 1064 l 867 1257 l 757 1257 m 557 1257 l 382 1064 l 461 1064 l 658 1257 l 557 1257 z "},"Ū":{"ha":815,"x_min":81,"x_max":806,"o":"m 806 987 l 729 987 l 612 319 q 580 222 603 269 q 523 138 557 175 q 443 80 488 102 q 342 58 397 58 q 253 82 290 59 q 195 143 217 106 q 168 226 174 180 q 167 318 161 272 l 281 987 l 205 987 l 90 318 q 93 197 81 256 q 138 91 106 138 q 220 16 170 45 q 338 -14 271 -13 q 469 13 409 -14 q 574 86 529 41 q 651 193 621 132 q 692 319 681 254 l 806 987 m 764 1141 l 774 1207 l 332 1207 l 321 1141 l 764 1141 z "},"Ų":{"ha":815,"x_min":81,"x_max":806,"o":"m 806 987 l 729 987 l 612 319 q 580 222 603 269 q 523 138 557 175 q 443 80 488 102 q 342 58 397 58 q 253 82 290 59 q 195 143 217 106 q 168 226 174 180 q 167 318 161 272 l 281 987 l 205 987 l 90 318 q 93 199 81 258 q 135 95 104 141 q 213 20 165 49 q 327 -13 261 -9 q 337 -13 332 -13 q 347 -12 342 -12 q 318 -39 332 -24 q 294 -69 304 -53 q 277 -103 283 -85 q 268 -141 270 -121 q 274 -190 266 -168 q 299 -227 282 -212 q 330 -246 312 -239 q 370 -253 348 -253 q 423 -246 397 -254 q 472 -224 448 -238 l 461 -166 q 425 -182 444 -175 q 387 -187 407 -189 q 350 -172 361 -186 q 340 -133 338 -158 q 356 -88 344 -109 q 385 -50 368 -68 q 423 -17 403 -33 q 463 11 443 -2 q 531 49 499 26 q 589 103 564 73 q 655 202 628 146 q 692 319 682 258 l 806 987 z "},"Ů":{"ha":815,"x_min":81,"x_max":806,"o":"m 806 987 l 729 987 l 612 319 q 580 222 603 269 q 523 138 557 175 q 443 80 488 102 q 342 58 397 58 q 253 82 290 59 q 195 143 217 106 q 168 226 174 180 q 167 318 161 272 l 281 987 l 205 987 l 90 318 q 93 197 81 256 q 138 91 106 138 q 220 16 170 45 q 338 -14 271 -13 q 469 13 409 -14 q 574 86 529 41 q 651 193 621 132 q 692 319 681 254 l 806 987 m 427 1158 q 432 1112 425 1133 q 454 1073 439 1090 q 489 1047 469 1057 q 535 1037 510 1037 q 585 1047 562 1037 q 627 1074 608 1057 q 656 1114 645 1091 q 670 1163 668 1137 q 665 1210 672 1187 q 644 1249 659 1232 q 609 1277 630 1267 q 563 1287 588 1287 q 513 1277 536 1287 q 471 1249 490 1266 q 441 1207 453 1231 q 427 1158 429 1183 m 479 1159 q 488 1188 481 1174 q 507 1213 496 1202 q 532 1231 518 1225 q 563 1238 547 1238 q 589 1231 578 1238 q 608 1214 601 1225 q 618 1190 616 1203 q 619 1162 621 1176 q 609 1134 616 1147 q 591 1109 602 1120 q 566 1092 580 1099 q 536 1086 551 1086 q 510 1092 521 1086 q 490 1108 498 1098 q 480 1132 484 1118 q 479 1159 477 1145 z "},"Ũ":{"ha":815,"x_min":81,"x_max":806,"o":"m 806 987 l 729 987 l 612 319 q 580 222 603 269 q 523 138 557 175 q 443 80 488 102 q 342 58 397 58 q 253 82 290 59 q 195 143 217 106 q 168 226 174 180 q 167 318 161 272 l 281 987 l 205 987 l 90 318 q 93 197 81 256 q 138 91 106 138 q 220 16 170 45 q 338 -14 271 -13 q 469 13 409 -14 q 574 86 529 41 q 651 193 621 132 q 692 319 681 254 l 806 987 m 774 1234 l 722 1244 q 710 1214 718 1229 q 690 1185 703 1200 q 667 1167 680 1174 q 640 1160 654 1160 q 593 1173 614 1160 q 551 1200 572 1185 q 510 1225 531 1214 q 460 1237 488 1237 q 408 1225 431 1237 q 366 1194 384 1214 q 337 1149 349 1175 q 321 1098 326 1124 l 374 1090 q 387 1120 379 1105 q 405 1145 394 1134 q 429 1163 415 1156 q 460 1170 443 1170 q 506 1158 485 1171 q 547 1132 527 1146 q 587 1106 566 1118 q 635 1095 608 1095 q 688 1106 665 1095 q 730 1138 712 1118 q 758 1182 747 1157 q 774 1234 769 1207 z "},"Ẃ":{"ha":815,"x_min":127,"x_max":867,"o":"m 127 0 l 208 0 l 458 743 l 481 817 l 483 743 l 499 1 l 578 0 l 867 987 l 791 987 l 586 273 l 559 185 l 560 271 l 541 987 l 471 987 l 232 284 l 201 188 l 204 281 l 221 987 l 146 987 l 127 0 m 621 1240 l 472 1061 l 543 1061 l 722 1240 l 621 1240 z "},"Ŵ":{"ha":815,"x_min":127,"x_max":867,"o":"m 127 0 l 208 0 l 458 743 l 481 817 l 483 743 l 499 1 l 578 0 l 867 987 l 791 987 l 586 273 l 559 185 l 560 271 l 541 987 l 471 987 l 232 284 l 201 188 l 204 281 l 221 987 l 146 987 l 127 0 m 705 1091 l 568 1255 l 519 1255 l 338 1093 l 337 1080 l 411 1080 l 542 1196 l 631 1079 l 703 1079 l 705 1091 z "},"Ẅ":{"ha":815,"x_min":127,"x_max":867,"o":"m 127 0 l 208 0 l 458 743 l 481 817 l 483 743 l 499 1 l 578 0 l 867 987 l 791 987 l 586 273 l 559 185 l 560 271 l 541 987 l 471 987 l 232 284 l 201 188 l 204 281 l 221 987 l 146 987 l 127 0 m 330 1173 q 344 1134 329 1149 q 382 1118 359 1118 q 421 1135 404 1119 q 439 1173 438 1151 q 425 1212 440 1196 q 387 1228 410 1228 q 347 1211 363 1227 q 330 1173 331 1195 m 617 1172 q 632 1133 616 1149 q 669 1118 647 1118 q 709 1134 692 1118 q 727 1173 726 1150 q 712 1212 728 1196 q 674 1227 697 1228 q 635 1211 652 1227 q 617 1172 618 1194 z "},"Ẁ":{"ha":815,"x_min":127,"x_max":867,"o":"m 127 0 l 208 0 l 458 743 l 481 817 l 483 743 l 499 1 l 578 0 l 867 987 l 791 987 l 586 273 l 559 185 l 560 271 l 541 987 l 471 987 l 232 284 l 201 188 l 204 281 l 221 987 l 146 987 l 127 0 m 554 1061 l 464 1242 l 374 1242 l 490 1061 l 554 1061 z "},"Ý":{"ha":815,"x_min":152,"x_max":844,"o":"m 400 451 l 240 988 l 152 988 l 352 377 l 288 0 l 362 0 l 427 367 l 844 987 l 749 987 l 400 451 m 615 1236 l 467 1057 l 538 1057 l 717 1236 l 615 1236 z "},"Ŷ":{"ha":815,"x_min":152,"x_max":844,"o":"m 400 451 l 240 988 l 152 988 l 352 377 l 288 0 l 362 0 l 427 367 l 844 987 l 749 987 l 400 451 m 699 1087 l 563 1251 l 513 1251 l 333 1089 l 332 1076 l 406 1076 l 536 1192 l 626 1075 l 698 1075 l 699 1087 z "},"Ÿ":{"ha":815,"x_min":152,"x_max":844,"o":"m 400 451 l 240 988 l 152 988 l 352 377 l 288 0 l 362 0 l 427 367 l 844 987 l 749 987 l 400 451 m 324 1168 q 338 1130 323 1145 q 376 1114 353 1114 q 416 1131 399 1115 q 434 1169 433 1147 q 419 1208 435 1192 q 381 1224 404 1224 q 342 1207 358 1223 q 324 1168 326 1191 m 612 1168 q 626 1129 611 1145 q 664 1114 642 1114 q 704 1130 687 1114 q 722 1168 720 1146 q 707 1208 722 1192 q 669 1223 692 1224 q 630 1206 646 1223 q 612 1168 613 1190 z "},"Ỳ":{"ha":815,"x_min":152,"x_max":844,"o":"m 400 451 l 240 988 l 152 988 l 352 377 l 288 0 l 362 0 l 427 367 l 844 987 l 749 987 l 400 451 m 548 1057 l 458 1238 l 368 1238 l 484 1057 l 548 1057 z "},"Ź":{"ha":815,"x_min":22,"x_max":770,"o":"m 127 72 l 762 924 l 770 987 l 191 987 l 180 916 l 663 916 l 31 67 l 22 0 l 635 0 l 646 72 l 127 72 m 618 1236 l 469 1057 l 541 1057 l 720 1236 l 618 1236 z "},"Ž":{"ha":815,"x_min":22,"x_max":770,"o":"m 127 72 l 762 924 l 770 987 l 191 987 l 180 916 l 663 916 l 31 67 l 22 0 l 635 0 l 646 72 l 127 72 m 519 1128 l 428 1253 l 359 1253 l 358 1241 l 488 1073 l 546 1073 l 726 1241 l 727 1253 l 654 1252 l 519 1128 z "},"Ż":{"ha":815,"x_min":22,"x_max":770,"o":"m 127 72 l 762 924 l 770 987 l 191 987 l 180 916 l 663 916 l 31 67 l 22 0 l 635 0 l 646 72 l 127 72 m 471 1156 q 485 1116 469 1131 q 525 1100 501 1100 q 566 1117 549 1101 q 585 1156 583 1133 q 571 1197 587 1181 q 530 1213 555 1214 q 489 1196 506 1213 q 471 1156 472 1179 z "},"á":{"ha":815,"x_min":71,"x_max":702,"o":"m 549 0 l 633 0 l 633 9 q 629 81 629 45 q 635 154 629 117 l 695 509 q 686 609 702 565 q 637 684 670 654 q 558 731 604 715 q 458 748 512 747 q 357 734 408 748 q 264 693 307 720 q 192 626 222 666 q 152 532 161 585 l 232 532 q 263 596 241 569 q 315 642 286 624 q 380 670 345 661 q 452 679 416 680 q 524 668 491 679 q 578 635 556 656 q 611 582 601 613 q 616 510 622 551 l 603 427 l 444 428 q 363 422 404 427 q 283 407 322 418 q 208 378 243 396 q 144 334 173 360 q 98 273 117 308 q 75 192 80 238 q 86 107 71 144 q 130 43 101 69 q 198 2 159 16 q 283 -13 238 -12 q 369 -3 328 -14 q 449 28 411 8 q 505 63 478 43 q 554 109 531 84 q 548 55 549 81 q 549 0 546 28 m 294 59 q 236 69 263 60 q 189 97 209 79 q 160 141 170 115 q 156 200 151 167 q 175 256 161 232 q 210 298 189 280 q 254 326 230 315 q 304 345 278 337 q 380 360 341 356 q 454 365 420 365 l 592 364 l 564 203 q 511 143 541 170 q 448 98 481 117 q 375 68 414 79 q 294 59 336 58 m 584 1023 l 435 844 l 507 844 l 686 1023 l 584 1023 z "},"ă":{"ha":815,"x_min":71,"x_max":702,"o":"m 549 0 l 633 0 l 633 9 q 629 81 629 45 q 635 154 629 117 l 695 509 q 686 609 702 565 q 637 684 670 654 q 558 731 604 715 q 458 748 512 747 q 357 734 408 748 q 264 693 307 720 q 192 626 222 666 q 152 532 161 585 l 232 532 q 263 596 241 569 q 315 642 286 624 q 380 670 345 661 q 452 679 416 680 q 524 668 491 679 q 578 635 556 656 q 611 582 601 613 q 616 510 622 551 l 603 427 l 444 428 q 363 422 404 427 q 283 407 322 418 q 208 378 243 396 q 144 334 173 360 q 98 273 117 308 q 75 192 80 238 q 86 107 71 144 q 130 43 101 69 q 198 2 159 16 q 283 -13 238 -12 q 369 -3 328 -14 q 449 28 411 8 q 505 63 478 43 q 554 109 531 84 q 548 55 549 81 q 549 0 546 28 m 294 59 q 236 69 263 60 q 189 97 209 79 q 160 141 170 115 q 156 200 151 167 q 175 256 161 232 q 210 298 189 280 q 254 326 230 315 q 304 345 278 337 q 380 360 341 356 q 454 365 420 365 l 592 364 l 564 203 q 511 143 541 170 q 448 98 481 117 q 375 68 414 79 q 294 59 336 58 m 700 1029 l 632 1028 q 615 983 626 1004 q 587 948 604 963 q 545 923 569 932 q 492 913 522 913 q 446 921 465 913 q 413 943 427 928 q 393 980 399 958 q 388 1029 387 1002 l 320 1029 q 331 958 319 989 q 365 903 342 926 q 420 867 388 880 q 492 854 452 854 q 568 866 533 854 q 630 901 603 878 q 675 956 657 924 q 700 1029 693 989 z "},"â":{"ha":815,"x_min":71,"x_max":702,"o":"m 549 0 l 633 0 l 633 9 q 629 81 629 45 q 635 154 629 117 l 695 509 q 686 609 702 565 q 637 684 670 654 q 558 731 604 715 q 458 748 512 747 q 357 734 408 748 q 264 693 307 720 q 192 626 222 666 q 152 532 161 585 l 232 532 q 263 596 241 569 q 315 642 286 624 q 380 670 345 661 q 452 679 416 680 q 524 668 491 679 q 578 635 556 656 q 611 582 601 613 q 616 510 622 551 l 603 427 l 444 428 q 363 422 404 427 q 283 407 322 418 q 208 378 243 396 q 144 334 173 360 q 98 273 117 308 q 75 192 80 238 q 86 107 71 144 q 130 43 101 69 q 198 2 159 16 q 283 -13 238 -12 q 369 -3 328 -14 q 449 28 411 8 q 505 63 478 43 q 554 109 531 84 q 548 55 549 81 q 549 0 546 28 m 294 59 q 236 69 263 60 q 189 97 209 79 q 160 141 170 115 q 156 200 151 167 q 175 256 161 232 q 210 298 189 280 q 254 326 230 315 q 304 345 278 337 q 380 360 341 356 q 454 365 420 365 l 592 364 l 564 203 q 511 143 541 170 q 448 98 481 117 q 375 68 414 79 q 294 59 336 58 m 684 874 l 547 1038 l 498 1038 l 317 876 l 316 863 l 390 863 l 521 979 l 610 862 l 682 862 l 684 874 z "},"ä":{"ha":815,"x_min":71,"x_max":707,"o":"m 549 0 l 633 0 l 633 9 q 629 81 629 45 q 635 154 629 117 l 695 509 q 686 609 702 565 q 637 684 670 654 q 558 731 604 715 q 458 748 512 747 q 357 734 408 748 q 264 693 307 720 q 192 626 222 666 q 152 532 161 585 l 232 532 q 263 596 241 569 q 315 642 286 624 q 380 670 345 661 q 452 679 416 680 q 524 668 491 679 q 578 635 556 656 q 611 582 601 613 q 616 510 622 551 l 603 427 l 444 428 q 363 422 404 427 q 283 407 322 418 q 208 378 243 396 q 144 334 173 360 q 98 273 117 308 q 75 192 80 238 q 86 107 71 144 q 130 43 101 69 q 198 2 159 16 q 283 -13 238 -12 q 369 -3 328 -14 q 449 28 411 8 q 505 63 478 43 q 554 109 531 84 q 548 55 549 81 q 549 0 546 28 m 294 59 q 236 69 263 60 q 189 97 209 79 q 160 141 170 115 q 156 200 151 167 q 175 256 161 232 q 210 298 189 280 q 254 326 230 315 q 304 345 278 337 q 380 360 341 356 q 454 365 420 365 l 592 364 l 564 203 q 511 143 541 170 q 448 98 481 117 q 375 68 414 79 q 294 59 336 58 m 309 956 q 323 917 308 932 q 361 901 338 901 q 400 918 383 902 q 418 956 417 934 q 404 995 419 979 q 366 1011 389 1011 q 326 994 342 1010 q 309 956 310 978 m 596 955 q 611 916 595 932 q 648 901 626 901 q 688 917 671 901 q 706 956 705 933 q 691 995 707 979 q 653 1010 676 1011 q 614 994 631 1010 q 596 955 597 977 z "},"à":{"ha":815,"x_min":71,"x_max":702,"o":"m 549 0 l 633 0 l 633 9 q 629 81 629 45 q 635 154 629 117 l 695 509 q 686 609 702 565 q 637 684 670 654 q 558 731 604 715 q 458 748 512 747 q 357 734 408 748 q 264 693 307 720 q 192 626 222 666 q 152 532 161 585 l 232 532 q 263 596 241 569 q 315 642 286 624 q 380 670 345 661 q 452 679 416 680 q 524 668 491 679 q 578 635 556 656 q 611 582 601 613 q 616 510 622 551 l 603 427 l 444 428 q 363 422 404 427 q 283 407 322 418 q 208 378 243 396 q 144 334 173 360 q 98 273 117 308 q 75 192 80 238 q 86 107 71 144 q 130 43 101 69 q 198 2 159 16 q 283 -13 238 -12 q 369 -3 328 -14 q 449 28 411 8 q 505 63 478 43 q 554 109 531 84 q 548 55 549 81 q 549 0 546 28 m 294 59 q 236 69 263 60 q 189 97 209 79 q 160 141 170 115 q 156 200 151 167 q 175 256 161 232 q 210 298 189 280 q 254 326 230 315 q 304 345 278 337 q 380 360 341 356 q 454 365 420 365 l 592 364 l 564 203 q 511 143 541 170 q 448 98 481 117 q 375 68 414 79 q 294 59 336 58 m 533 844 l 443 1025 l 353 1025 l 469 844 l 533 844 z "},"ā":{"ha":815,"x_min":71,"x_max":735,"o":"m 549 0 l 633 0 l 633 9 q 629 81 629 45 q 635 154 629 117 l 695 509 q 686 609 702 565 q 637 684 670 654 q 558 731 604 715 q 458 748 512 747 q 357 734 408 748 q 264 693 307 720 q 192 626 222 666 q 152 532 161 585 l 232 532 q 263 596 241 569 q 315 642 286 624 q 380 670 345 661 q 452 679 416 680 q 524 668 491 679 q 578 635 556 656 q 611 582 601 613 q 616 510 622 551 l 603 427 l 444 428 q 363 422 404 427 q 283 407 322 418 q 208 378 243 396 q 144 334 173 360 q 98 273 117 308 q 75 192 80 238 q 86 107 71 144 q 130 43 101 69 q 198 2 159 16 q 283 -13 238 -12 q 369 -3 328 -14 q 449 28 411 8 q 505 63 478 43 q 554 109 531 84 q 548 55 549 81 q 549 0 546 28 m 294 59 q 236 69 263 60 q 189 97 209 79 q 160 141 170 115 q 156 200 151 167 q 175 256 161 232 q 210 298 189 280 q 254 326 230 315 q 304 345 278 337 q 380 360 341 356 q 454 365 420 365 l 592 364 l 564 203 q 511 143 541 170 q 448 98 481 117 q 375 68 414 79 q 294 59 336 58 m 725 927 l 735 994 l 293 994 l 283 927 l 725 927 z "},"ą":{"ha":815,"x_min":71,"x_max":702,"o":"m 547 16 q 495 -19 522 0 q 447 -60 469 -38 q 410 -110 425 -83 q 392 -168 395 -137 q 396 -213 390 -192 q 416 -248 403 -233 q 449 -271 429 -262 q 494 -280 469 -280 q 547 -273 522 -281 q 596 -252 572 -265 l 585 -193 q 549 -209 568 -202 q 511 -214 531 -216 q 474 -199 486 -214 q 465 -160 462 -185 q 483 -109 468 -132 q 519 -66 498 -85 q 565 -31 541 -47 q 610 -1 589 -15 l 614 0 l 633 0 l 633 9 q 629 81 629 45 q 635 154 629 117 l 695 509 q 686 609 702 565 q 637 684 670 654 q 558 731 604 715 q 458 748 512 747 q 357 734 408 748 q 264 693 307 720 q 192 626 222 666 q 152 532 161 585 l 232 532 q 263 596 241 569 q 315 642 286 624 q 380 670 345 661 q 452 679 416 680 q 524 668 491 679 q 578 635 556 656 q 611 582 601 613 q 616 510 622 551 l 603 427 l 444 428 q 363 422 404 427 q 283 407 322 418 q 208 378 243 396 q 144 334 173 360 q 98 273 117 308 q 75 192 80 238 q 86 107 71 144 q 130 43 101 69 q 198 2 159 16 q 283 -13 238 -12 q 363 -4 324 -14 q 437 22 402 5 q 499 59 470 37 q 554 109 528 81 q 548 62 550 85 q 547 16 546 40 m 294 59 q 236 69 263 60 q 189 97 209 79 q 160 141 170 115 q 156 200 151 167 q 174 252 161 229 q 205 292 186 275 q 251 323 225 311 q 304 345 276 336 q 380 360 341 356 q 454 365 420 365 l 592 364 l 564 203 q 511 143 541 170 q 448 98 481 117 q 375 68 414 79 q 294 59 336 58 z "},"å":{"ha":815,"x_min":71,"x_max":702,"o":"m 549 0 l 633 0 l 633 9 q 629 81 629 45 q 635 154 629 117 l 695 509 q 686 609 702 565 q 637 684 670 654 q 558 731 604 715 q 458 748 512 747 q 357 734 408 748 q 264 693 307 720 q 192 626 222 666 q 152 532 161 585 l 232 532 q 263 596 241 569 q 315 642 286 624 q 380 670 345 661 q 452 679 416 680 q 524 668 491 679 q 578 635 556 656 q 611 582 601 613 q 616 510 622 551 l 603 427 l 444 428 q 363 422 404 427 q 283 407 322 418 q 208 378 243 396 q 144 334 173 360 q 98 273 117 308 q 75 192 80 238 q 86 107 71 144 q 130 43 101 69 q 198 2 159 16 q 283 -13 238 -12 q 369 -3 328 -14 q 449 28 411 8 q 505 63 478 43 q 554 109 531 84 q 548 55 549 81 q 549 0 546 28 m 294 59 q 236 69 263 60 q 189 97 209 79 q 160 141 170 115 q 156 200 151 167 q 175 256 161 232 q 210 298 189 280 q 254 326 230 315 q 304 345 278 337 q 380 360 341 356 q 454 365 420 365 l 592 364 l 564 203 q 511 143 541 170 q 448 98 481 117 q 375 68 414 79 q 294 59 336 58 m 389 944 q 394 898 387 920 q 416 859 401 876 q 451 833 430 843 q 496 823 471 823 q 546 833 523 823 q 588 861 570 844 q 618 901 606 878 q 631 949 629 924 q 627 996 633 974 q 606 1036 620 1019 q 570 1063 591 1053 q 524 1074 549 1074 q 474 1063 498 1074 q 433 1035 451 1053 q 402 994 414 1017 q 389 944 391 970 m 440 945 q 450 975 442 960 q 469 1000 457 989 q 494 1018 479 1011 q 524 1024 508 1024 q 551 1018 539 1024 q 570 1000 562 1011 q 580 976 577 989 q 581 949 583 962 q 570 920 578 934 q 552 896 563 906 q 527 879 541 885 q 497 872 513 872 q 471 878 482 872 q 452 895 460 884 q 441 918 445 905 q 440 945 438 931 z "},"ǻ":{"ha":815,"x_min":71,"x_max":728,"o":"m 549 0 l 633 0 l 633 9 q 629 81 629 45 q 635 154 629 117 l 695 509 q 686 609 702 565 q 637 684 670 654 q 558 731 604 715 q 458 748 512 747 q 357 734 408 748 q 264 693 307 720 q 192 626 222 666 q 152 532 161 585 l 232 532 q 263 596 241 569 q 315 642 286 624 q 380 670 345 661 q 452 679 416 680 q 524 668 491 679 q 578 635 556 656 q 611 582 601 613 q 616 510 622 551 l 603 427 l 444 428 q 363 422 404 427 q 283 407 322 418 q 208 378 243 396 q 144 334 173 360 q 98 273 117 308 q 75 192 80 238 q 86 107 71 144 q 130 43 101 69 q 198 2 159 16 q 283 -13 238 -12 q 369 -3 328 -14 q 449 28 411 8 q 505 63 478 43 q 554 109 531 84 q 548 55 549 81 q 549 0 546 28 m 294 59 q 236 69 263 60 q 189 97 209 79 q 160 141 170 115 q 156 200 151 167 q 175 256 161 232 q 210 298 189 280 q 254 326 230 315 q 304 345 278 337 q 380 360 341 356 q 454 365 420 365 l 592 364 l 564 203 q 511 143 541 170 q 448 98 481 117 q 375 68 414 79 q 294 59 336 58 m 627 1174 l 502 1048 l 572 1048 l 728 1174 l 627 1174 m 401 909 q 405 869 399 887 q 422 838 411 850 q 453 814 435 823 q 494 806 472 806 q 535 813 515 806 q 570 836 555 821 q 595 870 585 850 q 606 914 604 890 q 600 954 607 935 q 581 986 593 972 q 551 1006 568 998 q 514 1013 534 1013 q 474 1006 493 1014 q 440 986 455 999 q 413 952 424 972 q 401 909 402 932 m 469 877 q 460 891 463 884 q 459 907 457 899 q 465 923 460 915 q 477 937 469 930 q 492 948 484 944 q 509 951 500 951 q 524 949 516 951 q 537 941 531 946 q 545 927 543 935 q 547 913 547 920 q 543 898 546 905 q 532 883 539 890 q 518 872 526 876 q 503 868 510 869 q 486 869 494 867 q 469 877 477 871 z "},"ã":{"ha":815,"x_min":71,"x_max":735,"o":"m 549 0 l 633 0 l 633 9 q 629 81 629 45 q 635 154 629 117 l 695 509 q 686 609 702 565 q 637 684 670 654 q 558 731 604 715 q 458 748 512 747 q 357 734 408 748 q 264 693 307 720 q 192 626 222 666 q 152 532 161 585 l 232 532 q 263 596 241 569 q 315 642 286 624 q 380 670 345 661 q 452 679 416 680 q 524 668 491 679 q 578 635 556 656 q 611 582 601 613 q 616 510 622 551 l 603 427 l 444 428 q 363 422 404 427 q 283 407 322 418 q 208 378 243 396 q 144 334 173 360 q 98 273 117 308 q 75 192 80 238 q 86 107 71 144 q 130 43 101 69 q 198 2 159 16 q 283 -13 238 -12 q 369 -3 328 -14 q 449 28 411 8 q 505 63 478 43 q 554 109 531 84 q 548 55 549 81 q 549 0 546 28 m 294 59 q 236 69 263 60 q 189 97 209 79 q 160 141 170 115 q 156 200 151 167 q 175 256 161 232 q 210 298 189 280 q 254 326 230 315 q 304 345 278 337 q 380 360 341 356 q 454 365 420 365 l 592 364 l 564 203 q 511 143 541 170 q 448 98 481 117 q 375 68 414 79 q 294 59 336 58 m 735 1020 l 684 1030 q 671 1001 679 1015 q 652 972 664 986 q 628 954 641 960 q 601 947 616 947 q 554 959 575 946 q 513 987 534 972 q 471 1012 492 1000 q 422 1023 450 1023 q 369 1012 393 1023 q 328 981 345 1000 q 299 936 310 961 q 283 884 288 911 l 336 877 q 348 906 340 892 q 366 932 355 920 q 390 949 376 943 q 422 956 404 956 q 467 945 446 957 q 509 918 488 932 q 549 892 528 904 q 596 881 570 881 q 650 893 626 881 q 691 924 673 905 q 719 968 708 943 q 735 1020 730 994 z "},"ǽ":{"ha":815,"x_min":-9,"x_max":800,"o":"m 522 -13 q 576 -8 549 -13 q 627 8 602 -3 q 670 31 649 17 q 710 62 692 45 l 690 123 q 655 97 673 110 q 618 76 637 85 q 579 62 599 67 q 537 57 559 57 q 462 77 490 57 q 421 128 434 97 q 405 198 407 159 q 409 275 404 237 l 423 364 l 772 364 l 793 485 q 794 582 800 534 q 770 665 789 629 q 714 724 750 701 q 625 747 679 747 q 523 719 569 748 q 442 642 477 689 q 389 723 428 697 q 293 748 349 748 q 210 734 248 748 q 142 695 172 720 q 94 633 113 669 q 70 553 75 597 l 146 551 q 164 601 152 578 q 194 642 176 625 q 236 669 212 659 q 289 677 260 678 q 338 666 319 677 q 366 636 357 654 q 378 594 376 618 q 375 544 380 570 l 355 429 l 266 429 q 165 412 212 429 q 82 364 118 395 q 23 289 46 333 q -5 191 0 245 q -2 115 -9 151 q 24 50 5 78 q 74 4 43 21 q 149 -14 105 -13 q 209 -4 180 -14 q 262 21 237 5 q 309 59 288 37 q 349 105 330 80 q 374 56 358 77 q 412 20 391 35 q 462 -4 434 4 q 522 -13 490 -13 m 620 678 q 676 661 655 677 q 708 620 698 645 q 721 565 719 595 q 720 507 723 534 l 709 431 l 431 431 l 437 460 q 458 534 444 495 q 492 604 471 572 q 545 658 514 637 q 620 678 576 679 m 162 55 q 115 66 134 55 q 85 97 96 78 q 72 140 75 116 q 73 188 69 163 q 95 256 79 224 q 138 311 112 288 q 195 349 163 335 q 266 363 228 363 l 347 363 l 309 145 q 280 112 296 128 q 246 83 264 95 q 206 62 227 70 q 162 55 185 55 m 593 1023 l 444 844 l 515 844 l 694 1023 l 593 1023 z "},"ć":{"ha":815,"x_min":92,"x_max":713,"o":"m 353 56 q 282 69 313 56 q 231 104 252 82 q 197 155 210 125 q 178 217 184 184 q 172 284 172 250 q 176 352 172 319 l 181 380 q 199 454 187 417 q 229 523 211 490 q 269 584 246 556 q 321 633 292 612 q 387 667 351 655 q 465 678 422 679 q 539 663 506 677 q 594 622 572 648 q 626 562 616 596 q 635 487 637 527 l 711 486 q 697 590 713 543 q 648 672 681 637 q 570 727 616 707 q 467 747 524 747 q 328 718 391 748 q 218 637 264 688 q 142 518 172 585 q 101 380 112 451 l 97 352 q 94 271 92 311 q 103 193 95 231 q 134 113 114 151 q 184 47 154 75 q 256 3 214 20 q 351 -14 298 -13 q 457 3 405 -14 q 551 52 509 20 q 623 128 593 83 q 663 227 653 172 l 587 227 q 553 156 576 187 q 500 102 531 124 q 432 67 469 79 q 353 56 394 55 m 604 1023 l 455 844 l 526 843 l 705 1023 l 604 1023 z "},"č":{"ha":815,"x_min":92,"x_max":713,"o":"m 353 56 q 282 69 313 56 q 231 104 252 82 q 197 155 210 125 q 178 217 184 184 q 172 284 172 250 q 176 352 172 319 l 181 380 q 199 454 187 417 q 229 523 211 490 q 269 584 246 556 q 321 633 292 612 q 387 667 351 655 q 465 678 422 679 q 539 663 506 677 q 594 622 572 648 q 626 562 616 596 q 635 487 637 527 l 711 486 q 697 590 713 543 q 648 672 681 637 q 570 727 616 707 q 467 747 524 747 q 328 718 391 748 q 218 637 264 688 q 142 518 172 585 q 101 380 112 451 l 97 352 q 94 271 92 311 q 103 193 95 231 q 134 113 114 151 q 184 47 154 75 q 256 3 214 20 q 351 -14 298 -13 q 457 3 405 -14 q 551 52 509 20 q 623 128 593 83 q 663 227 653 172 l 587 227 q 553 156 576 187 q 500 102 531 124 q 432 67 469 79 q 353 56 394 55 m 505 913 l 414 1038 l 345 1038 l 345 1027 l 475 859 l 532 859 l 713 1027 l 713 1038 l 641 1038 l 505 913 z "},"ç":{"ha":815,"x_min":92,"x_max":713,"o":"m 353 56 q 282 69 313 56 q 231 104 252 82 q 197 155 210 125 q 178 217 184 184 q 172 284 172 250 q 176 352 172 319 l 181 380 q 199 454 187 417 q 229 523 211 490 q 269 584 246 556 q 321 633 292 612 q 387 667 351 655 q 465 678 422 679 q 539 663 506 677 q 594 622 572 648 q 626 562 616 596 q 635 487 637 527 l 711 486 q 697 590 713 543 q 648 672 681 637 q 570 727 616 707 q 467 747 524 747 q 328 718 391 748 q 218 637 264 688 q 142 518 172 585 q 101 380 112 451 l 97 352 q 94 271 92 311 q 103 193 95 231 q 134 113 114 151 q 184 47 154 75 q 256 3 214 20 q 351 -14 298 -13 q 457 3 405 -14 q 551 52 509 20 q 623 128 593 83 q 663 227 653 172 l 587 227 q 553 156 576 187 q 500 102 531 124 q 432 67 469 79 q 353 56 394 55 m 374 -3 l 312 -3 l 281 -88 q 317 -94 298 -91 q 353 -104 337 -97 q 378 -125 369 -111 q 383 -161 387 -138 q 362 -202 378 -186 q 326 -227 347 -218 q 280 -240 304 -236 q 235 -245 256 -244 l 233 -298 q 280 -294 256 -297 q 328 -284 304 -291 q 373 -267 351 -278 q 412 -241 395 -256 q 437 -206 427 -226 q 450 -160 448 -186 q 445 -114 452 -134 q 425 -80 438 -94 q 395 -60 412 -68 q 358 -47 378 -52 l 374 -3 z "},"ĉ":{"ha":815,"x_min":92,"x_max":713,"o":"m 353 56 q 282 69 313 56 q 231 104 252 82 q 197 155 210 125 q 178 217 184 184 q 172 284 172 250 q 176 352 172 319 l 181 380 q 199 454 187 417 q 229 523 211 490 q 269 584 246 556 q 321 633 292 612 q 387 667 351 655 q 465 678 422 679 q 539 663 506 677 q 594 622 572 648 q 626 562 616 596 q 635 487 637 527 l 711 486 q 697 590 713 543 q 648 672 681 637 q 570 727 616 707 q 467 747 524 747 q 328 718 391 748 q 218 637 264 688 q 142 518 172 585 q 101 380 112 451 l 97 352 q 94 271 92 311 q 103 193 95 231 q 134 113 114 151 q 184 47 154 75 q 256 3 214 20 q 351 -14 298 -13 q 457 3 405 -14 q 551 52 509 20 q 623 128 593 83 q 663 227 653 172 l 587 227 q 553 156 576 187 q 500 102 531 124 q 432 67 469 79 q 353 56 394 55 m 688 873 l 551 1037 l 502 1037 l 321 876 l 320 862 l 394 862 l 525 979 l 614 861 l 686 861 l 688 873 z "},"ď":{"ha":815,"x_min":43,"x_max":1000,"o":"m 50 372 l 48 357 q 44 274 43 317 q 54 191 45 231 q 79 113 62 149 q 122 48 96 76 q 186 4 149 20 q 273 -14 223 -13 q 344 -5 310 -14 q 410 20 378 3 q 459 53 436 34 q 503 94 483 71 l 486 0 l 559 0 l 740 1042 l 660 1042 l 587 634 q 555 678 573 659 q 515 712 537 698 q 457 738 488 729 q 392 747 426 747 q 297 733 340 748 q 218 691 254 718 q 154 628 182 664 q 105 549 126 591 q 71 462 84 507 q 50 372 57 416 m 128 357 l 131 372 q 160 480 139 425 q 214 578 180 534 q 294 650 247 623 q 404 676 341 677 q 464 666 436 676 q 513 637 491 656 q 550 594 534 619 q 573 538 565 568 l 511 185 q 471 136 494 159 q 422 96 449 113 q 360 68 393 78 q 290 58 327 58 q 221 73 250 59 q 172 109 192 86 q 142 162 153 132 q 127 224 132 191 q 123 292 122 258 q 128 357 123 326 m 987 965 l 1000 1049 l 922 1049 l 907 963 q 873 864 897 909 q 815 777 849 819 l 859 740 q 907 789 885 763 q 945 846 928 816 q 970 903 960 873 q 987 965 981 933 z "},"đ":{"ha":815,"x_min":81,"x_max":882,"o":"m 870 853 l 882 922 l 756 922 l 777 1042 l 697 1042 l 676 922 l 478 922 l 467 853 l 663 853 l 624 634 q 590 680 610 660 q 547 715 571 701 q 492 739 522 730 q 429 747 462 747 q 334 733 378 748 q 256 691 291 718 q 192 628 220 664 q 142 549 163 591 q 108 462 121 507 q 87 372 94 416 l 85 357 q 81 274 81 317 q 91 191 82 231 q 116 113 99 149 q 159 48 133 76 q 223 4 186 20 q 310 -14 260 -13 q 381 -5 347 -14 q 446 20 415 3 q 496 52 473 33 q 540 94 519 71 l 523 0 l 597 0 l 744 853 l 870 853 m 165 357 l 168 372 q 197 480 176 425 q 251 578 218 534 q 331 650 284 623 q 441 676 378 677 q 498 667 472 676 q 545 641 524 657 q 586 596 569 623 q 610 538 602 570 l 549 185 q 506 134 530 157 q 454 93 482 110 q 394 67 427 76 q 328 58 362 58 q 258 73 288 59 q 210 109 229 86 q 180 162 191 132 q 164 224 169 191 q 160 292 159 258 q 165 357 161 326 z "},"é":{"ha":815,"x_min":81,"x_max":720,"o":"m 365 -14 q 520 19 446 -14 q 645 115 593 52 l 597 155 q 494 82 551 109 q 370 56 437 55 q 271 82 313 57 q 203 148 229 108 q 168 247 176 194 q 172 361 161 300 l 703 361 l 711 411 q 709 534 720 474 q 669 642 699 595 q 589 718 639 689 q 469 747 539 747 q 372 734 418 748 q 287 693 326 720 q 215 632 248 667 q 157 555 182 596 q 116 467 132 513 q 93 375 100 421 l 89 345 q 95 215 81 278 q 141 104 109 153 q 233 20 176 52 q 365 -14 289 -13 m 466 677 q 549 656 513 677 q 606 602 584 635 q 635 527 628 569 q 635 441 643 484 l 633 431 l 183 431 q 225 522 199 477 q 287 602 252 567 q 367 657 322 636 q 466 677 412 679 m 594 1023 l 446 844 l 517 844 l 696 1023 l 594 1023 z "},"ĕ":{"ha":815,"x_min":81,"x_max":720,"o":"m 365 -14 q 520 19 446 -14 q 645 115 593 52 l 597 155 q 494 82 551 109 q 370 56 437 55 q 271 82 313 57 q 203 148 229 108 q 168 247 176 194 q 172 361 161 300 l 703 361 l 711 411 q 709 534 720 474 q 669 642 699 595 q 589 718 639 689 q 469 747 539 747 q 372 734 418 748 q 287 693 326 720 q 215 632 248 667 q 157 555 182 596 q 116 467 132 513 q 93 375 100 421 l 89 345 q 95 215 81 278 q 141 104 109 153 q 233 20 176 52 q 365 -14 289 -13 m 466 677 q 549 656 513 677 q 606 602 584 635 q 635 527 628 569 q 635 441 643 484 l 633 431 l 183 431 q 225 522 199 477 q 287 602 252 567 q 367 657 322 636 q 466 677 412 679 m 705 1029 l 637 1028 q 620 983 631 1004 q 593 948 609 963 q 551 923 574 932 q 498 913 527 913 q 451 921 471 913 q 418 943 432 928 q 398 980 405 958 q 393 1029 392 1002 l 326 1029 q 336 958 325 989 q 370 903 348 926 q 425 867 393 880 q 497 854 457 854 q 573 866 538 854 q 635 901 608 878 q 681 956 663 924 q 705 1029 699 989 z "},"ě":{"ha":815,"x_min":81,"x_max":720,"o":"m 365 -14 q 520 19 446 -14 q 645 115 593 52 l 597 155 q 494 82 551 109 q 370 56 437 55 q 271 82 313 57 q 203 148 229 108 q 168 247 176 194 q 172 361 161 300 l 703 361 l 711 411 q 709 534 720 474 q 669 642 699 595 q 589 718 639 689 q 469 747 539 747 q 372 734 418 748 q 287 693 326 720 q 215 632 248 667 q 157 555 182 596 q 116 467 132 513 q 93 375 100 421 l 89 345 q 95 215 81 278 q 141 104 109 153 q 233 20 176 52 q 365 -14 289 -13 m 466 677 q 549 656 513 677 q 606 602 584 635 q 635 527 628 569 q 635 441 643 484 l 633 431 l 183 431 q 225 522 199 477 q 287 602 252 567 q 367 657 322 636 q 466 677 412 679 m 496 914 l 405 1039 l 336 1039 l 335 1027 l 465 859 l 523 859 l 703 1027 l 704 1039 l 631 1038 l 496 914 z "},"ê":{"ha":815,"x_min":81,"x_max":720,"o":"m 365 -14 q 520 19 446 -14 q 645 115 593 52 l 597 155 q 494 82 551 109 q 370 56 437 55 q 271 82 313 57 q 203 148 229 108 q 168 247 176 194 q 172 361 161 300 l 703 361 l 711 411 q 709 534 720 474 q 669 642 699 595 q 589 718 639 689 q 469 747 539 747 q 372 734 418 748 q 287 693 326 720 q 215 632 248 667 q 157 555 182 596 q 116 467 132 513 q 93 375 100 421 l 89 345 q 95 215 81 278 q 141 104 109 153 q 233 20 176 52 q 365 -14 289 -13 m 466 677 q 549 656 513 677 q 606 602 584 635 q 635 527 628 569 q 635 441 643 484 l 633 431 l 183 431 q 225 522 199 477 q 287 602 252 567 q 367 657 322 636 q 466 677 412 679 m 679 874 l 543 1038 l 493 1038 l 313 876 l 311 863 l 385 863 l 516 979 l 606 862 l 677 862 l 679 874 z "},"ë":{"ha":815,"x_min":81,"x_max":720,"o":"m 365 -14 q 520 19 446 -14 q 645 115 593 52 l 597 155 q 494 82 551 109 q 370 56 437 55 q 271 82 313 57 q 203 148 229 108 q 168 247 176 194 q 172 361 161 300 l 703 361 l 711 411 q 709 534 720 474 q 669 642 699 595 q 589 718 639 689 q 469 747 539 747 q 372 734 418 748 q 287 693 326 720 q 215 632 248 667 q 157 555 182 596 q 116 467 132 513 q 93 375 100 421 l 89 345 q 95 215 81 278 q 141 104 109 153 q 233 20 176 52 q 365 -14 289 -13 m 466 677 q 549 656 513 677 q 606 602 584 635 q 635 527 628 569 q 635 441 643 484 l 633 431 l 183 431 q 225 522 199 477 q 287 602 252 567 q 367 657 322 636 q 466 677 412 679 m 303 956 q 317 917 302 932 q 355 901 332 901 q 395 918 378 902 q 413 956 412 934 q 398 995 414 979 q 360 1011 383 1011 q 321 994 337 1010 q 303 956 304 978 m 591 955 q 605 916 590 932 q 643 901 621 901 q 683 917 666 901 q 701 956 699 933 q 686 995 701 979 q 648 1010 671 1011 q 609 994 625 1010 q 591 955 592 977 z "},"ė":{"ha":815,"x_min":81,"x_max":720,"o":"m 365 -14 q 520 19 446 -14 q 645 115 593 52 l 597 155 q 494 82 551 109 q 370 56 437 55 q 271 82 313 57 q 203 148 229 108 q 168 247 176 194 q 172 361 161 300 l 703 361 l 711 411 q 709 534 720 474 q 669 642 699 595 q 589 718 639 689 q 469 747 539 747 q 372 734 418 748 q 287 693 326 720 q 215 632 248 667 q 157 555 182 596 q 116 467 132 513 q 93 375 100 421 l 89 345 q 95 215 81 278 q 141 104 109 153 q 233 20 176 52 q 365 -14 289 -13 m 466 677 q 549 656 513 677 q 606 602 584 635 q 635 527 628 569 q 635 441 643 484 l 633 431 l 183 431 q 225 522 199 477 q 287 602 252 567 q 367 657 322 636 q 466 677 412 679 m 447 943 q 461 903 446 918 q 501 887 477 887 q 542 904 525 888 q 561 943 559 920 q 547 984 563 968 q 507 1000 531 1001 q 465 983 482 1000 q 447 943 448 966 z "},"è":{"ha":815,"x_min":81,"x_max":720,"o":"m 365 -14 q 520 19 446 -14 q 645 115 593 52 l 597 155 q 494 82 551 109 q 370 56 437 55 q 271 82 313 57 q 203 148 229 108 q 168 247 176 194 q 172 361 161 300 l 703 361 l 711 411 q 709 534 720 474 q 669 642 699 595 q 589 718 639 689 q 469 747 539 747 q 372 734 418 748 q 287 693 326 720 q 215 632 248 667 q 157 555 182 596 q 116 467 132 513 q 93 375 100 421 l 89 345 q 95 215 81 278 q 141 104 109 153 q 233 20 176 52 q 365 -14 289 -13 m 466 677 q 549 656 513 677 q 606 602 584 635 q 635 527 628 569 q 635 441 643 484 l 633 431 l 183 431 q 225 522 199 477 q 287 602 252 567 q 367 657 322 636 q 466 677 412 679 m 528 844 l 437 1025 l 347 1025 l 464 844 l 528 844 z "},"ē":{"ha":815,"x_min":81,"x_max":730,"o":"m 365 -14 q 520 19 446 -14 q 645 115 593 52 l 597 155 q 494 82 551 109 q 370 56 437 55 q 271 82 313 57 q 203 148 229 108 q 168 247 176 194 q 172 361 161 300 l 703 361 l 711 411 q 709 534 720 474 q 669 642 699 595 q 589 718 639 689 q 469 747 539 747 q 372 734 418 748 q 287 693 326 720 q 215 632 248 667 q 157 555 182 596 q 116 467 132 513 q 93 375 100 421 l 89 345 q 95 215 81 278 q 141 104 109 153 q 233 20 176 52 q 365 -14 289 -13 m 466 677 q 549 656 513 677 q 606 602 584 635 q 635 527 628 569 q 635 441 643 484 l 633 431 l 183 431 q 225 522 199 477 q 287 602 252 567 q 367 657 322 636 q 466 677 412 679 m 720 927 l 730 994 l 288 994 l 277 927 l 720 927 z "},"ŋ":{"ha":815,"x_min":64,"x_max":690,"o":"m 64 0 l 143 0 l 231 501 q 268 568 245 536 q 320 623 290 600 q 389 662 351 648 q 471 676 427 676 q 545 658 516 675 q 588 612 573 641 q 607 534 606 578 q 603 447 609 491 l 517 -60 q 500 -120 511 -90 q 470 -172 488 -149 q 425 -210 451 -196 q 365 -224 399 -224 q 329 -222 347 -225 q 293 -213 311 -218 l 277 -283 q 318 -293 297 -289 q 361 -297 339 -297 q 454 -278 413 -297 q 524 -227 494 -259 q 572 -151 553 -194 q 597 -60 590 -108 l 682 448 q 685 561 690 505 q 656 658 680 616 q 593 723 633 699 q 492 747 553 747 q 406 735 446 748 q 333 699 367 722 q 283 655 306 680 q 241 600 260 630 l 262 734 l 191 734 l 64 0 z "},"ę":{"ha":815,"x_min":81,"x_max":720,"o":"m 645 115 l 597 155 q 494 82 551 109 q 370 56 437 55 q 271 82 313 57 q 203 148 229 108 q 170 235 179 186 q 168 333 161 283 q 169 343 168 340 q 171 354 170 347 l 172 361 l 703 361 l 711 411 q 709 534 720 474 q 669 642 699 595 q 589 718 639 689 q 469 747 539 747 q 372 734 418 748 q 287 694 326 720 q 215 632 248 667 q 157 555 182 596 q 116 467 132 513 q 93 375 100 421 l 89 345 q 94 217 81 279 q 140 106 108 154 q 226 23 172 56 q 353 -13 280 -9 q 370 -12 361 -13 q 388 -9 379 -11 q 330 -70 354 -36 q 302 -145 305 -103 q 307 -191 300 -170 q 328 -227 314 -212 q 361 -249 342 -241 q 404 -257 380 -257 q 457 -250 431 -258 q 506 -229 482 -242 l 495 -170 q 459 -186 477 -179 q 420 -191 441 -193 q 384 -176 396 -191 q 374 -137 372 -162 q 392 -87 378 -110 q 427 -45 407 -64 q 471 -11 448 -26 q 515 18 494 5 q 586 58 553 33 q 645 115 618 82 m 466 677 q 549 656 513 677 q 606 602 584 635 q 635 527 628 569 q 635 441 643 484 l 633 431 l 183 431 q 225 522 199 477 q 287 602 252 567 q 367 657 322 636 q 466 677 412 679 z "},"ğ":{"ha":815,"x_min":45,"x_max":735,"o":"m 99 372 l 97 357 q 92 274 92 317 q 102 190 93 231 q 126 113 110 149 q 170 48 143 76 q 234 4 197 20 q 321 -14 271 -13 q 392 -5 357 -14 q 458 20 427 3 q 506 51 483 33 q 548 91 528 69 l 532 9 q 500 -82 522 -39 q 446 -156 478 -125 q 371 -206 414 -188 q 275 -223 328 -224 q 171 -194 216 -222 q 94 -117 126 -165 l 45 -166 q 146 -258 85 -225 q 278 -292 207 -292 q 403 -270 347 -294 q 503 -205 460 -246 q 573 -107 545 -163 q 612 13 601 -52 l 735 734 l 660 734 l 637 631 q 606 676 624 656 q 566 711 588 696 q 507 738 539 729 q 440 748 475 747 q 345 733 388 749 q 266 691 302 718 q 202 628 230 665 q 153 549 174 591 q 119 462 133 507 q 99 372 106 416 m 176 357 l 179 372 q 208 480 188 425 q 262 578 229 534 q 342 650 295 623 q 452 676 389 677 q 515 665 486 676 q 566 633 544 653 q 600 589 586 614 q 621 534 614 564 l 560 189 q 517 135 542 159 q 465 92 493 110 q 405 67 437 76 q 338 58 373 58 q 270 73 298 59 q 221 109 241 86 q 190 162 201 132 q 175 224 179 192 q 171 292 170 258 q 176 357 172 326 m 702 1028 l 634 1027 q 617 983 628 1003 q 589 947 606 962 q 547 922 571 931 q 494 913 524 913 q 448 920 467 913 q 415 942 429 928 q 395 979 401 957 q 390 1028 389 1001 l 322 1029 q 333 957 321 989 q 367 902 345 925 q 422 867 390 880 q 494 854 454 854 q 570 865 535 853 q 632 901 605 878 q 677 956 659 923 q 702 1028 695 988 z "},"ĝ":{"ha":815,"x_min":45,"x_max":735,"o":"m 99 372 l 97 357 q 92 274 92 317 q 102 190 93 231 q 126 113 110 149 q 170 48 143 76 q 234 4 197 20 q 321 -14 271 -13 q 392 -5 357 -14 q 458 20 427 3 q 506 51 483 33 q 548 91 528 69 l 532 9 q 500 -82 522 -39 q 446 -156 478 -125 q 371 -206 414 -188 q 275 -223 328 -224 q 171 -194 216 -222 q 94 -117 126 -165 l 45 -166 q 146 -258 85 -225 q 278 -292 207 -292 q 403 -270 347 -294 q 503 -205 460 -246 q 573 -107 545 -163 q 612 13 601 -52 l 735 734 l 660 734 l 637 631 q 606 676 624 656 q 566 711 588 696 q 507 738 539 729 q 440 748 475 747 q 345 733 388 749 q 266 691 302 718 q 202 628 230 665 q 153 549 174 591 q 119 462 133 507 q 99 372 106 416 m 176 357 l 179 372 q 208 480 188 425 q 262 578 229 534 q 342 650 295 623 q 452 676 389 677 q 515 665 486 676 q 566 633 544 653 q 600 589 586 614 q 621 534 614 564 l 560 189 q 517 135 542 159 q 465 92 493 110 q 405 67 437 76 q 338 58 373 58 q 270 73 298 59 q 221 109 241 86 q 190 162 201 132 q 175 224 179 192 q 171 292 170 258 q 176 357 172 326 m 675 873 l 538 1037 l 489 1037 l 309 876 l 307 862 l 381 862 l 512 979 l 602 861 l 673 861 l 675 873 z "},"ģ":{"ha":815,"x_min":45,"x_max":735,"o":"m 99 372 l 97 357 q 92 274 92 317 q 102 190 93 231 q 126 113 110 149 q 170 48 143 76 q 234 4 197 20 q 321 -14 271 -13 q 392 -5 357 -14 q 458 20 427 3 q 506 51 483 33 q 548 91 528 69 l 532 9 q 500 -82 522 -39 q 446 -156 478 -125 q 371 -206 414 -188 q 275 -223 328 -224 q 171 -194 216 -222 q 94 -117 126 -165 l 45 -166 q 146 -258 85 -225 q 278 -292 207 -292 q 403 -270 347 -294 q 503 -205 460 -246 q 573 -107 545 -163 q 612 13 601 -52 l 735 734 l 660 734 l 637 631 q 606 676 624 656 q 566 711 588 696 q 507 738 539 729 q 440 748 475 747 q 345 733 388 749 q 266 691 302 718 q 202 628 230 665 q 153 549 174 591 q 119 462 133 507 q 99 372 106 416 m 176 357 l 179 372 q 208 480 188 425 q 262 578 229 534 q 342 650 295 623 q 452 676 389 677 q 515 665 486 676 q 566 633 544 653 q 600 589 586 614 q 621 534 614 564 l 560 189 q 517 135 542 159 q 465 92 493 110 q 405 67 437 76 q 338 58 373 58 q 270 73 298 59 q 221 109 241 86 q 190 162 201 132 q 175 224 179 192 q 171 292 170 258 q 176 357 172 326 m 450 944 l 437 857 l 517 857 l 532 943 q 555 1012 539 980 q 591 1075 570 1044 l 541 1110 q 509 1074 524 1093 q 483 1034 494 1055 q 463 991 471 1014 q 450 944 455 968 z "},"ħ":{"ha":815,"x_min":67,"x_max":718,"o":"m 487 853 l 498 922 l 305 922 l 327 1042 l 248 1042 l 227 922 l 95 922 l 83 853 l 214 853 l 67 0 l 147 0 l 235 505 q 278 571 251 540 q 340 625 305 602 q 411 663 373 649 q 490 676 450 676 q 567 659 536 675 q 613 614 597 642 q 634 547 630 585 q 632 469 637 510 l 552 0 l 632 0 l 711 469 q 711 573 718 523 q 680 663 704 624 q 614 724 656 701 q 511 747 573 747 q 431 736 469 748 q 359 703 393 724 q 297 653 326 682 q 245 591 268 624 l 292 853 l 487 853 z "},"ĥ":{"ha":815,"x_min":57,"x_max":708,"o":"m 235 591 l 317 1042 l 237 1042 l 57 0 l 137 0 l 224 505 q 268 571 241 540 q 329 625 295 602 q 401 663 363 649 q 479 676 439 676 q 556 659 526 675 q 603 613 587 642 q 624 547 620 585 q 622 469 627 510 l 542 0 l 622 0 l 701 469 q 701 573 708 523 q 669 662 694 624 q 604 724 646 701 q 501 747 563 747 q 421 736 459 748 q 349 703 382 724 q 287 653 315 682 q 235 591 258 624 m 561 1104 l 425 1267 l 375 1267 l 195 1106 l 193 1093 l 267 1093 l 398 1209 l 488 1092 l 559 1092 l 561 1104 z "},"í":{"ha":815,"x_min":75,"x_max":722,"o":"m 201 734 l 190 661 l 441 661 l 338 73 l 87 73 l 75 0 l 648 0 l 661 73 l 418 73 l 533 734 l 201 734 m 621 1029 l 472 850 l 543 850 l 722 1029 l 621 1029 z "},"ĭ":{"ha":815,"x_min":75,"x_max":725,"o":"m 201 734 l 190 661 l 441 661 l 338 73 l 87 73 l 75 0 l 648 0 l 661 73 l 418 73 l 533 734 l 201 734 m 725 1036 l 657 1035 q 640 990 651 1010 q 612 955 629 970 q 570 929 594 939 q 517 920 547 920 q 471 928 490 920 q 438 949 452 935 q 418 986 425 964 q 413 1036 412 1008 l 345 1036 q 356 964 345 996 q 390 909 368 932 q 445 874 413 887 q 517 861 477 861 q 593 873 558 861 q 655 908 628 885 q 700 963 682 930 q 725 1036 718 996 z "},"î":{"ha":815,"x_min":75,"x_max":699,"o":"m 201 734 l 190 661 l 441 661 l 338 73 l 87 73 l 75 0 l 648 0 l 661 73 l 418 73 l 533 734 l 201 734 m 699 880 l 563 1044 l 513 1044 l 333 882 l 332 869 l 406 869 l 536 985 l 626 868 l 698 868 l 699 880 z "},"ï":{"ha":815,"x_min":75,"x_max":728,"o":"m 201 734 l 190 661 l 441 661 l 338 73 l 87 73 l 75 0 l 648 0 l 661 73 l 418 73 l 533 734 l 201 734 m 330 962 q 344 923 329 939 q 382 907 359 907 q 421 924 404 908 q 439 962 438 940 q 425 1001 440 985 q 387 1017 410 1017 q 347 1000 363 1017 q 330 962 331 984 m 617 961 q 632 922 616 938 q 669 907 647 907 q 709 923 692 907 q 727 962 726 939 q 712 1001 728 985 q 674 1017 697 1017 q 635 1000 652 1016 q 617 961 618 983 z "},"ì":{"ha":815,"x_min":75,"x_max":661,"o":"m 201 734 l 190 661 l 441 661 l 338 73 l 87 73 l 75 0 l 648 0 l 661 73 l 418 73 l 533 734 l 201 734 m 553 850 l 463 1031 l 373 1031 l 490 850 l 553 850 z "},"ī":{"ha":815,"x_min":75,"x_max":756,"o":"m 201 734 l 190 661 l 441 661 l 338 73 l 87 73 l 75 0 l 648 0 l 661 73 l 418 73 l 533 734 l 201 734 m 746 934 l 756 1000 l 314 1000 l 304 934 l 746 934 z "},"į":{"ha":815,"x_min":75,"x_max":661,"o":"m 201 734 l 190 661 l 441 661 l 338 73 l 87 73 l 75 0 l 318 0 q 273 -33 296 -15 q 233 -71 251 -50 q 202 -116 214 -92 q 188 -168 190 -140 q 192 -213 186 -193 q 212 -248 199 -233 q 245 -272 225 -263 q 290 -280 265 -280 q 343 -273 317 -281 q 391 -252 368 -265 l 381 -193 q 345 -209 363 -202 q 307 -214 326 -216 q 269 -199 281 -214 q 260 -160 257 -185 q 279 -109 264 -132 q 315 -66 294 -85 q 360 -31 336 -47 q 406 -1 385 -15 l 403 0 l 648 0 l 661 73 l 418 73 l 533 734 l 201 734 m 465 934 q 468 911 465 922 q 477 893 471 901 q 496 880 484 884 q 522 875 507 875 q 548 880 536 875 q 568 894 560 885 q 580 912 576 902 q 585 935 585 923 q 583 960 587 949 q 572 980 579 972 q 553 993 564 988 q 529 997 543 998 q 505 992 515 997 q 486 980 494 987 q 472 960 477 972 q 465 934 467 948 z "},"ĩ":{"ha":815,"x_min":75,"x_max":756,"o":"m 201 734 l 190 661 l 441 661 l 338 73 l 87 73 l 75 0 l 648 0 l 661 73 l 418 73 l 533 734 l 201 734 m 756 1026 l 705 1036 q 692 1007 700 1021 q 673 978 685 992 q 649 960 662 966 q 622 953 637 953 q 575 965 596 952 q 534 993 555 978 q 492 1018 513 1006 q 443 1029 471 1029 q 390 1018 414 1029 q 349 987 366 1006 q 320 942 331 967 q 304 890 309 917 l 357 883 q 369 912 361 898 q 387 938 376 926 q 411 956 397 949 q 443 962 425 962 q 488 951 467 963 q 530 924 509 939 q 570 899 549 910 q 617 887 591 887 q 671 899 647 887 q 712 930 694 911 q 740 975 729 949 q 756 1026 751 1000 z "},"ĵ":{"ha":815,"x_min":2,"x_max":743,"o":"m 231 734 l 219 661 l 490 661 l 376 -1 q 349 -90 368 -49 q 300 -161 330 -131 q 230 -209 271 -191 q 138 -227 189 -227 q 76 -224 107 -227 q 15 -217 45 -222 l 2 -286 q 72 -294 37 -291 q 141 -297 106 -297 q 262 -274 208 -296 q 355 -212 316 -251 q 421 -118 395 -172 q 456 0 446 -64 l 582 734 l 231 734 m 743 892 l 607 1056 l 557 1056 l 377 895 l 376 881 l 450 881 l 581 998 l 670 880 l 742 880 l 743 892 z "},"ķ":{"ha":815,"x_min":72,"x_max":758,"o":"m 321 370 l 561 0 l 657 0 l 381 421 l 758 734 l 648 734 l 313 460 l 218 378 l 332 1042 l 252 1042 l 72 0 l 152 0 l 199 275 l 321 370 m 312 -57 l 319 -7 l 242 -7 l 234 -59 q 207 -142 226 -104 q 161 -218 188 -181 l 206 -254 q 276 -165 249 -215 q 312 -57 303 -115 z "},"ĺ":{"ha":815,"x_min":75,"x_max":752,"o":"m 255 1042 l 243 969 l 496 969 l 340 73 l 87 73 l 75 0 l 648 0 l 661 73 l 420 73 l 588 1042 l 255 1042 m 650 1288 l 502 1109 l 573 1108 l 752 1288 l 650 1288 z "},"ľ":{"ha":815,"x_min":27,"x_max":823,"o":"m 208 1042 l 195 969 l 448 969 l 292 73 l 40 73 l 27 0 l 601 0 l 613 73 l 372 73 l 541 1042 l 208 1042 m 810 960 l 823 1044 l 745 1044 l 730 958 q 696 859 720 904 q 638 771 672 813 l 682 734 q 730 784 708 758 q 768 840 751 810 q 793 898 783 867 q 810 960 804 928 z "},"ļ":{"ha":815,"x_min":75,"x_max":661,"o":"m 255 1042 l 243 969 l 496 969 l 340 73 l 87 73 l 75 0 l 648 0 l 661 73 l 420 73 l 588 1042 l 255 1042 m 393 -94 l 401 -45 l 323 -45 l 315 -96 q 288 -180 307 -141 q 242 -255 269 -218 l 288 -292 q 357 -202 330 -252 q 393 -94 385 -152 z "},"ŀ":{"ha":815,"x_min":27,"x_max":663,"o":"m 208 1042 l 195 969 l 448 969 l 292 73 l 40 73 l 27 0 l 601 0 l 613 73 l 372 73 l 541 1042 l 208 1042 m 547 558 q 562 518 546 534 q 602 503 578 503 q 643 519 625 503 q 661 559 660 535 q 647 600 663 583 q 607 616 631 616 q 566 598 583 615 q 547 558 549 582 z "},"ł":{"ha":815,"x_min":75,"x_max":752,"o":"m 255 1042 l 243 969 l 496 969 l 429 585 l 173 503 l 158 425 l 415 507 l 340 73 l 87 73 l 75 0 l 648 0 l 661 73 l 420 73 l 500 540 l 739 614 l 752 691 l 514 617 l 588 1042 l 255 1042 z "},"ń":{"ha":815,"x_min":56,"x_max":707,"o":"m 56 0 l 136 0 l 223 502 q 266 569 239 537 q 327 625 293 601 q 399 662 360 648 q 477 676 437 676 q 555 659 524 676 q 602 614 585 642 q 622 548 618 586 q 620 469 625 511 l 540 0 l 620 0 l 699 467 q 699 573 707 522 q 667 663 692 625 q 602 724 644 701 q 500 747 561 747 q 419 736 457 748 q 347 703 381 724 q 284 653 313 682 q 232 591 256 625 l 256 734 l 183 734 l 56 0 m 581 1023 l 433 844 l 504 843 l 683 1023 l 581 1023 z "},"ň":{"ha":815,"x_min":56,"x_max":707,"o":"m 56 0 l 136 0 l 223 502 q 266 569 239 537 q 327 625 293 601 q 399 662 360 648 q 477 676 437 676 q 555 659 524 676 q 602 614 585 642 q 622 548 618 586 q 620 469 625 511 l 540 0 l 620 0 l 699 467 q 699 573 707 522 q 667 663 692 625 q 602 724 644 701 q 500 747 561 747 q 419 736 457 748 q 347 703 381 724 q 284 653 313 682 q 232 591 256 625 l 256 734 l 183 734 l 56 0 m 484 913 l 393 1038 l 323 1038 l 323 1027 l 453 859 l 511 859 l 691 1027 l 692 1038 l 619 1038 l 484 913 z "},"ņ":{"ha":815,"x_min":56,"x_max":707,"o":"m 56 0 l 136 0 l 223 502 q 266 569 239 537 q 327 625 293 601 q 399 662 360 648 q 477 676 437 676 q 555 659 524 676 q 602 614 585 642 q 622 548 618 586 q 620 469 625 511 l 540 0 l 620 0 l 699 467 q 699 573 707 522 q 667 663 692 625 q 602 724 644 701 q 500 747 561 747 q 419 736 457 748 q 347 703 381 724 q 284 653 313 682 q 232 591 256 625 l 256 734 l 183 734 l 56 0 m 355 -95 l 363 -45 l 286 -45 l 277 -97 q 250 -180 269 -142 q 204 -256 231 -219 l 250 -292 q 319 -203 292 -253 q 355 -95 347 -153 z "},"ñ":{"ha":815,"x_min":56,"x_max":717,"o":"m 56 0 l 136 0 l 223 502 q 266 569 239 537 q 327 625 293 601 q 399 662 360 648 q 477 676 437 676 q 555 659 524 676 q 602 614 585 642 q 622 548 618 586 q 620 469 625 511 l 540 0 l 620 0 l 699 467 q 699 573 707 522 q 667 663 692 625 q 602 724 644 701 q 500 747 561 747 q 419 736 457 748 q 347 703 381 724 q 284 653 313 682 q 232 591 256 625 l 256 734 l 183 734 l 56 0 m 717 1019 l 665 1029 q 653 1000 661 1015 q 633 971 646 985 q 610 953 623 960 q 583 946 597 946 q 536 958 557 945 q 494 986 515 971 q 453 1011 474 1000 q 404 1023 431 1023 q 351 1011 374 1023 q 309 980 327 1000 q 280 935 292 960 q 264 884 269 910 l 317 876 q 330 905 322 891 q 348 931 337 920 q 372 949 358 942 q 404 956 386 956 q 449 944 428 956 q 490 918 470 932 q 530 892 509 903 q 578 880 551 880 q 631 892 608 880 q 673 924 655 904 q 701 968 690 943 q 717 1019 712 993 z "},"ó":{"ha":815,"x_min":72,"x_max":723,"o":"m 81 375 l 78 353 q 76 260 72 307 q 93 173 79 214 q 123 107 104 138 q 167 51 142 76 q 242 4 199 22 q 340 -14 285 -13 q 481 17 417 -14 q 593 100 545 47 q 672 218 642 151 q 714 357 703 286 l 717 378 q 720 471 723 425 q 703 559 716 517 q 671 630 691 597 q 623 687 650 663 q 550 731 593 715 q 456 747 508 747 q 315 718 378 749 q 205 637 252 688 q 124 517 155 585 q 81 375 92 448 m 157 353 l 161 375 q 194 484 171 430 q 255 582 218 538 q 341 652 292 625 q 453 678 391 679 q 543 653 507 677 q 602 592 580 629 q 637 490 630 548 q 637 378 645 433 l 634 357 q 602 251 626 307 q 541 151 577 194 q 454 81 503 108 q 342 56 404 54 q 246 82 285 56 q 186 149 207 109 q 156 248 163 193 q 157 353 150 302 m 587 1023 l 439 844 l 510 843 l 689 1023 l 587 1023 z "},"ŏ":{"ha":815,"x_min":72,"x_max":723,"o":"m 81 375 l 78 353 q 76 260 72 307 q 93 173 79 214 q 123 107 104 138 q 167 51 142 76 q 242 4 199 22 q 340 -14 285 -13 q 481 17 417 -14 q 593 100 545 47 q 672 218 642 151 q 714 357 703 286 l 717 378 q 720 471 723 425 q 703 559 716 517 q 671 630 691 597 q 623 687 650 663 q 550 731 593 715 q 456 747 508 747 q 315 718 378 749 q 205 637 252 688 q 124 517 155 585 q 81 375 92 448 m 157 353 l 161 375 q 194 484 171 430 q 255 582 218 538 q 341 652 292 625 q 453 678 391 679 q 543 653 507 677 q 602 592 580 629 q 637 490 630 548 q 637 378 645 433 l 634 357 q 602 251 626 307 q 541 151 577 194 q 454 81 503 108 q 342 56 404 54 q 246 82 285 56 q 186 149 207 109 q 156 248 163 193 q 157 353 150 302 m 699 1028 l 631 1027 q 613 983 625 1003 q 586 947 602 962 q 544 922 568 931 q 491 913 520 913 q 445 920 464 913 q 412 942 425 928 q 392 979 398 957 q 387 1028 385 1001 l 319 1029 q 330 957 318 989 q 363 902 341 925 q 418 867 387 880 q 490 854 450 854 q 567 865 532 853 q 629 901 602 878 q 674 956 656 923 q 699 1028 692 988 z "},"ô":{"ha":815,"x_min":72,"x_max":723,"o":"m 81 375 l 78 353 q 76 260 72 307 q 93 173 79 214 q 123 107 104 138 q 167 51 142 76 q 242 4 199 22 q 340 -14 285 -13 q 481 17 417 -14 q 593 100 545 47 q 672 218 642 151 q 714 357 703 286 l 717 378 q 720 471 723 425 q 703 559 716 517 q 671 630 691 597 q 623 687 650 663 q 550 731 593 715 q 456 747 508 747 q 315 718 378 749 q 205 637 252 688 q 124 517 155 585 q 81 375 92 448 m 157 353 l 161 375 q 194 484 171 430 q 255 582 218 538 q 341 652 292 625 q 453 678 391 679 q 543 653 507 677 q 602 592 580 629 q 637 490 630 548 q 637 378 645 433 l 634 357 q 602 251 626 307 q 541 151 577 194 q 454 81 503 108 q 342 56 404 54 q 246 82 285 56 q 186 149 207 109 q 156 248 163 193 q 157 353 150 302 m 672 873 l 536 1037 l 486 1037 l 306 876 l 304 862 l 378 862 l 509 979 l 599 861 l 671 861 l 672 873 z "},"ö":{"ha":815,"x_min":72,"x_max":723,"o":"m 81 375 l 78 353 q 76 260 72 307 q 93 173 79 214 q 123 107 104 138 q 167 51 142 76 q 242 4 199 22 q 340 -14 285 -13 q 481 17 417 -14 q 593 100 545 47 q 672 218 642 151 q 714 357 703 286 l 717 378 q 720 471 723 425 q 703 559 716 517 q 671 630 691 597 q 623 687 650 663 q 550 731 593 715 q 456 747 508 747 q 315 718 378 749 q 205 637 252 688 q 124 517 155 585 q 81 375 92 448 m 157 353 l 161 375 q 194 484 171 430 q 255 582 218 538 q 341 652 292 625 q 453 678 391 679 q 543 653 507 677 q 602 592 580 629 q 637 490 630 548 q 637 378 645 433 l 634 357 q 602 251 626 307 q 541 151 577 194 q 454 81 503 108 q 342 56 404 54 q 246 82 285 56 q 186 149 207 109 q 156 248 163 193 q 157 353 150 302 m 296 955 q 311 916 296 932 q 349 901 326 901 q 388 917 371 901 q 406 956 405 933 q 392 994 407 978 q 353 1010 376 1010 q 314 994 330 1010 q 296 955 298 977 m 584 954 q 598 916 583 931 q 636 900 614 900 q 676 917 659 901 q 694 955 692 932 q 679 994 694 978 q 641 1010 664 1010 q 602 993 618 1009 q 584 954 585 977 z "},"ò":{"ha":815,"x_min":72,"x_max":723,"o":"m 81 375 l 78 353 q 76 260 72 307 q 93 173 79 214 q 123 107 104 138 q 167 51 142 76 q 242 4 199 22 q 340 -14 285 -13 q 481 17 417 -14 q 593 100 545 47 q 672 218 642 151 q 714 357 703 286 l 717 378 q 720 471 723 425 q 703 559 716 517 q 671 630 691 597 q 623 687 650 663 q 550 731 593 715 q 456 747 508 747 q 315 718 378 749 q 205 637 252 688 q 124 517 155 585 q 81 375 92 448 m 157 353 l 161 375 q 194 484 171 430 q 255 582 218 538 q 341 652 292 625 q 453 678 391 679 q 543 653 507 677 q 602 592 580 629 q 637 490 630 548 q 637 378 645 433 l 634 357 q 602 251 626 307 q 541 151 577 194 q 454 81 503 108 q 342 56 404 54 q 246 82 285 56 q 186 149 207 109 q 156 248 163 193 q 157 353 150 302 m 521 843 l 431 1024 l 340 1024 l 457 843 l 521 843 z "},"ơ":{"ha":815,"x_min":61,"x_max":854,"o":"m 740 707 q 700 674 724 688 q 640 657 676 661 q 559 722 608 698 q 446 747 511 747 q 345 733 392 748 q 258 691 298 718 q 192 634 222 667 q 139 564 162 602 q 96 473 113 521 q 71 375 79 425 l 68 353 q 68 242 61 297 q 98 142 76 188 q 134 80 113 109 q 186 31 156 51 q 250 -1 214 10 q 330 -14 286 -13 q 472 17 408 -14 q 584 100 536 47 q 662 218 631 151 q 704 357 693 286 l 707 378 q 707 493 715 437 q 677 599 700 550 q 747 625 717 607 q 799 669 777 642 q 834 731 821 696 q 854 811 848 767 l 783 810 q 766 753 776 779 q 740 707 756 727 m 627 378 l 624 359 q 591 248 614 302 q 530 151 568 194 q 444 81 494 108 q 332 56 394 54 q 245 77 281 56 q 187 132 210 98 q 148 236 157 176 q 148 353 140 296 l 151 375 q 184 484 161 430 q 245 582 208 538 q 331 652 281 625 q 443 678 381 679 q 507 667 479 677 q 557 637 536 656 q 592 595 578 619 q 615 543 607 570 q 631 461 629 505 q 627 378 633 418 z "},"ő":{"ha":815,"x_min":72,"x_max":816,"o":"m 81 375 l 78 353 q 76 260 72 307 q 93 173 79 214 q 123 107 104 138 q 167 51 142 76 q 242 4 199 22 q 340 -14 285 -13 q 481 17 417 -14 q 593 100 545 47 q 672 218 642 151 q 714 357 703 286 l 717 378 q 720 471 723 425 q 703 559 716 517 q 671 630 691 597 q 623 687 650 663 q 550 731 593 715 q 456 747 508 747 q 315 718 378 749 q 205 637 252 688 q 124 517 155 585 q 81 375 92 448 m 157 353 l 161 375 q 194 484 171 430 q 255 582 218 538 q 341 652 292 625 q 453 678 391 679 q 543 653 507 677 q 602 592 580 629 q 637 490 630 548 q 637 378 645 433 l 634 357 q 602 251 626 307 q 541 151 577 194 q 454 81 503 108 q 342 56 404 54 q 246 82 285 56 q 186 149 207 109 q 156 248 163 193 q 157 353 150 302 m 706 1044 l 496 850 l 584 850 l 816 1044 l 706 1044 m 506 1044 l 332 850 l 410 850 l 607 1044 l 506 1044 z "},"ō":{"ha":815,"x_min":72,"x_max":723,"o":"m 81 375 l 78 353 q 76 260 72 307 q 93 173 79 214 q 123 107 104 138 q 167 51 142 76 q 242 4 199 22 q 340 -14 285 -13 q 481 17 417 -14 q 593 100 545 47 q 672 218 642 151 q 714 357 703 286 l 717 378 q 720 471 723 425 q 703 559 716 517 q 671 630 691 597 q 623 687 650 663 q 550 731 593 715 q 456 747 508 747 q 315 718 378 749 q 205 637 252 688 q 124 517 155 585 q 81 375 92 448 m 157 353 l 161 375 q 194 484 171 430 q 255 582 218 538 q 341 652 292 625 q 453 678 391 679 q 543 653 507 677 q 602 592 580 629 q 637 490 630 548 q 637 378 645 433 l 634 357 q 602 251 626 307 q 541 151 577 194 q 454 81 503 108 q 342 56 404 54 q 246 82 285 56 q 186 149 207 109 q 156 248 163 193 q 157 353 150 302 m 713 926 l 723 993 l 281 993 l 271 926 l 713 926 z "},"ø":{"ha":815,"x_min":54,"x_max":722,"o":"m 81 375 l 78 353 q 75 272 73 313 q 86 194 77 231 q 113 123 96 157 q 156 63 130 90 l 54 -94 l 120 -94 l 199 28 q 262 -2 227 9 q 340 -14 297 -13 q 481 17 417 -14 q 593 100 545 47 q 672 218 642 151 q 714 357 703 286 l 717 378 q 720 465 722 422 q 706 549 718 509 q 674 624 694 589 q 625 684 654 659 l 715 823 l 649 823 l 580 717 q 523 739 553 731 q 456 747 492 747 q 313 718 376 749 q 201 634 249 687 q 123 514 154 581 q 81 375 92 446 m 157 353 l 161 375 q 194 484 171 430 q 254 582 218 538 q 341 652 292 625 q 453 678 391 679 q 500 672 478 677 q 540 656 522 666 l 199 129 q 173 178 183 151 q 158 235 163 205 q 153 294 153 264 q 157 353 153 324 m 637 378 l 634 357 q 601 248 624 302 q 541 151 577 194 q 454 81 503 108 q 342 56 404 54 q 285 64 311 56 q 239 88 259 73 l 581 616 q 614 567 601 595 q 633 507 627 538 q 641 443 640 475 q 637 378 642 410 z "},"ǿ":{"ha":815,"x_min":54,"x_max":722,"o":"m 81 375 l 78 353 q 75 272 73 313 q 86 194 77 231 q 113 123 96 157 q 156 63 130 90 l 54 -94 l 120 -94 l 199 28 q 262 -2 227 9 q 340 -14 297 -13 q 481 17 417 -14 q 593 100 545 47 q 672 218 642 151 q 714 357 703 286 l 717 378 q 720 465 722 422 q 706 549 718 509 q 674 624 694 589 q 625 684 654 659 l 715 823 l 649 823 l 580 717 q 523 739 553 731 q 456 747 492 747 q 313 718 376 749 q 201 634 249 687 q 123 514 154 581 q 81 375 92 446 m 157 353 l 161 375 q 194 484 171 430 q 254 582 218 538 q 341 652 292 625 q 453 678 391 679 q 500 672 478 677 q 540 656 522 666 l 199 129 q 173 178 183 151 q 158 235 163 205 q 153 294 153 264 q 157 353 153 324 m 637 378 l 634 357 q 601 248 624 302 q 541 151 577 194 q 454 81 503 108 q 342 56 404 54 q 285 64 311 56 q 239 88 259 73 l 581 616 q 614 567 601 595 q 633 507 627 538 q 641 443 640 475 q 637 378 642 410 m 572 1022 l 424 843 l 495 842 l 674 1022 l 572 1022 z "},"õ":{"ha":815,"x_min":72,"x_max":723,"o":"m 81 375 l 78 353 q 76 260 72 307 q 93 173 79 214 q 123 107 104 138 q 167 51 142 76 q 242 4 199 22 q 340 -14 285 -13 q 481 17 417 -14 q 593 100 545 47 q 672 218 642 151 q 714 357 703 286 l 717 378 q 720 471 723 425 q 703 559 716 517 q 671 630 691 597 q 623 687 650 663 q 550 731 593 715 q 456 747 508 747 q 315 718 378 749 q 205 637 252 688 q 124 517 155 585 q 81 375 92 448 m 157 353 l 161 375 q 194 484 171 430 q 255 582 218 538 q 341 652 292 625 q 453 678 391 679 q 543 653 507 677 q 602 592 580 629 q 637 490 630 548 q 637 378 645 433 l 634 357 q 602 251 626 307 q 541 151 577 194 q 454 81 503 108 q 342 56 404 54 q 246 82 285 56 q 186 149 207 109 q 156 248 163 193 q 157 353 150 302 m 723 1019 l 671 1029 q 659 1000 667 1015 q 640 971 652 985 q 616 953 629 960 q 589 946 604 946 q 542 958 563 945 q 500 986 522 971 q 459 1011 480 1000 q 410 1023 437 1023 q 357 1011 380 1023 q 315 980 333 1000 q 287 935 298 960 q 271 884 275 910 l 323 876 q 336 905 328 891 q 354 931 343 920 q 378 949 364 942 q 410 956 392 956 q 455 944 434 956 q 496 918 476 932 q 536 892 515 903 q 584 880 557 880 q 637 892 614 880 q 679 924 661 904 q 707 968 696 943 q 723 1019 718 993 z "},"ŕ":{"ha":815,"x_min":166,"x_max":763,"o":"m 652 748 q 561 738 604 748 q 478 707 517 727 q 406 656 439 686 q 345 589 372 626 l 351 623 l 369 734 l 293 734 l 166 0 l 248 0 l 329 470 q 382 558 349 519 q 457 621 415 596 q 542 656 496 644 q 635 668 587 668 q 689 664 662 668 q 743 655 716 661 l 763 733 q 708 744 736 741 q 652 748 680 748 m 566 1023 l 418 844 l 489 843 l 668 1023 l 566 1023 z "},"ř":{"ha":815,"x_min":166,"x_max":763,"o":"m 652 748 q 561 738 604 748 q 478 707 517 727 q 406 656 439 686 q 345 589 372 626 l 351 623 l 369 734 l 293 734 l 166 0 l 248 0 l 329 470 q 382 558 349 519 q 457 621 415 596 q 542 656 496 644 q 635 668 587 668 q 689 664 662 668 q 743 655 716 661 l 763 733 q 708 744 736 741 q 652 748 680 748 m 475 913 l 384 1038 l 315 1038 l 314 1027 l 444 859 l 502 859 l 682 1027 l 683 1038 l 610 1038 l 475 913 z "},"ŗ":{"ha":815,"x_min":81,"x_max":763,"o":"m 652 748 q 561 738 604 748 q 478 707 517 727 q 406 656 439 686 q 345 589 372 626 l 351 623 l 369 734 l 293 734 l 166 0 l 248 0 l 329 470 q 382 558 349 519 q 457 621 415 596 q 542 656 496 644 q 635 668 587 668 q 689 664 662 668 q 743 655 716 661 l 763 733 q 708 744 736 741 q 652 748 680 748 m 233 -92 l 240 -42 l 163 -42 l 155 -94 q 127 -177 146 -138 q 81 -252 109 -216 l 127 -289 q 197 -199 170 -250 q 233 -92 224 -149 z "},"ś":{"ha":815,"x_min":91,"x_max":720,"o":"m 589 190 q 559 127 583 153 q 503 85 536 101 q 434 63 471 70 q 365 56 397 56 q 294 64 328 56 q 232 90 259 73 q 189 137 205 108 q 172 206 172 165 l 92 207 q 114 109 91 150 q 176 41 138 67 q 263 0 214 13 q 363 -14 312 -13 q 464 -3 412 -14 q 559 35 516 9 q 633 99 604 59 q 669 194 663 138 q 657 271 674 237 q 609 330 641 305 q 549 365 581 351 q 485 389 517 378 q 432 406 460 398 q 378 421 404 413 q 330 437 354 428 q 286 461 305 447 q 257 496 267 475 q 251 548 246 517 q 279 609 257 584 q 332 649 301 633 q 396 671 361 664 q 463 677 431 677 q 529 668 496 677 q 587 641 562 659 q 627 594 612 622 q 640 528 641 566 l 719 528 q 700 624 720 583 q 644 692 679 665 q 562 733 608 720 q 465 747 515 747 q 374 738 420 748 q 287 705 328 727 q 209 641 242 682 q 172 545 176 600 q 184 471 168 503 q 226 418 199 440 q 281 383 250 397 q 345 359 313 368 q 397 343 370 351 q 450 328 424 336 q 499 311 473 321 q 548 286 526 301 q 584 245 572 268 q 589 190 595 222 m 595 1023 l 447 844 l 518 843 l 697 1023 l 595 1023 z "},"š":{"ha":815,"x_min":91,"x_max":720,"o":"m 589 190 q 559 127 583 153 q 503 85 536 101 q 434 63 471 70 q 365 56 397 56 q 294 64 328 56 q 232 90 259 73 q 189 137 205 108 q 172 206 172 165 l 92 207 q 114 109 91 150 q 176 41 138 67 q 263 0 214 13 q 363 -14 312 -13 q 464 -3 412 -14 q 559 35 516 9 q 633 99 604 59 q 669 194 663 138 q 657 271 674 237 q 609 330 641 305 q 549 365 581 351 q 485 389 517 378 q 432 406 460 398 q 378 421 404 413 q 330 437 354 428 q 286 461 305 447 q 257 496 267 475 q 251 548 246 517 q 279 609 257 584 q 332 649 301 633 q 396 671 361 664 q 463 677 431 677 q 529 668 496 677 q 587 641 562 659 q 627 594 612 622 q 640 528 641 566 l 719 528 q 700 624 720 583 q 644 692 679 665 q 562 733 608 720 q 465 747 515 747 q 374 738 420 748 q 287 705 328 727 q 209 641 242 682 q 172 545 176 600 q 184 471 168 503 q 226 418 199 440 q 281 383 250 397 q 345 359 313 368 q 397 343 370 351 q 450 328 424 336 q 499 311 473 321 q 548 286 526 301 q 584 245 572 268 q 589 190 595 222 m 496 913 l 406 1038 l 336 1038 l 336 1027 l 466 859 l 524 859 l 704 1027 l 705 1038 l 632 1038 l 496 913 z "},"ş":{"ha":815,"x_min":91,"x_max":720,"o":"m 589 190 q 559 127 583 153 q 503 85 536 101 q 434 63 471 70 q 365 56 397 56 q 294 64 328 56 q 232 90 259 73 q 189 137 205 108 q 172 206 172 165 l 92 207 q 114 109 91 150 q 176 41 138 67 q 263 0 214 13 q 363 -14 312 -13 q 464 -3 412 -14 q 559 35 516 9 q 633 99 604 59 q 669 194 663 138 q 657 271 674 237 q 609 330 641 305 q 549 365 581 351 q 485 389 517 378 q 432 406 460 398 q 378 421 404 413 q 330 437 354 428 q 286 461 305 447 q 257 496 267 475 q 251 548 246 517 q 279 609 257 584 q 332 649 301 633 q 396 671 361 664 q 463 677 431 677 q 529 668 496 677 q 587 641 562 659 q 627 594 612 622 q 640 528 641 566 l 719 528 q 700 624 720 583 q 644 692 679 665 q 562 733 608 720 q 465 747 515 747 q 374 738 420 748 q 287 705 328 727 q 209 641 242 682 q 172 545 176 600 q 184 471 168 503 q 226 418 199 440 q 281 383 250 397 q 345 359 313 368 q 397 343 370 351 q 450 328 424 336 q 499 311 473 321 q 548 286 526 301 q 584 245 572 268 q 589 190 595 222 m 380 -4 l 317 -4 l 287 -90 q 323 -95 303 -92 q 359 -105 342 -98 q 384 -126 374 -113 q 389 -162 393 -140 q 368 -203 384 -187 q 331 -228 352 -219 q 286 -241 309 -237 q 241 -246 262 -245 l 239 -300 q 286 -295 261 -298 q 333 -286 310 -292 q 378 -269 356 -279 q 417 -242 400 -258 q 443 -207 433 -227 q 455 -161 453 -187 q 450 -116 457 -136 q 430 -81 444 -96 q 401 -61 418 -69 q 363 -49 384 -53 l 380 -4 z "},"ŝ":{"ha":815,"x_min":91,"x_max":720,"o":"m 589 190 q 559 127 583 153 q 503 85 536 101 q 434 63 471 70 q 365 56 397 56 q 294 64 328 56 q 232 90 259 73 q 189 137 205 108 q 172 206 172 165 l 92 207 q 114 109 91 150 q 176 41 138 67 q 263 0 214 13 q 363 -14 312 -13 q 464 -3 412 -14 q 559 35 516 9 q 633 99 604 59 q 669 194 663 138 q 657 271 674 237 q 609 330 641 305 q 549 365 581 351 q 485 389 517 378 q 432 406 460 398 q 378 421 404 413 q 330 437 354 428 q 286 461 305 447 q 257 496 267 475 q 251 548 246 517 q 279 609 257 584 q 332 649 301 633 q 396 671 361 664 q 463 677 431 677 q 529 668 496 677 q 587 641 562 659 q 627 594 612 622 q 640 528 641 566 l 719 528 q 700 624 720 583 q 644 692 679 665 q 562 733 608 720 q 465 747 515 747 q 374 738 420 748 q 287 705 328 727 q 209 641 242 682 q 172 545 176 600 q 184 471 168 503 q 226 418 199 440 q 281 383 250 397 q 345 359 313 368 q 397 343 370 351 q 450 328 424 336 q 499 311 473 321 q 548 286 526 301 q 584 245 572 268 q 589 190 595 222 m 680 873 l 543 1037 l 494 1037 l 313 876 l 312 862 l 386 862 l 517 979 l 606 861 l 678 861 l 680 873 z "},"ŧ":{"ha":815,"x_min":157,"x_max":711,"o":"m 564 419 l 576 489 l 405 489 l 435 667 l 699 667 l 711 734 l 447 734 l 479 922 l 399 922 l 366 734 l 168 734 l 157 667 l 355 667 l 324 489 l 172 489 l 161 419 l 313 419 l 277 213 q 280 119 269 161 q 315 48 291 77 q 377 4 340 20 q 465 -13 415 -12 q 505 -13 485 -14 q 546 -9 526 -12 q 582 -2 564 -7 q 617 9 600 3 l 610 72 q 546 62 578 66 q 481 59 514 58 q 421 70 447 60 q 380 99 396 80 q 358 145 364 118 q 357 207 351 172 l 393 419 l 564 419 z "},"ť":{"ha":815,"x_min":145,"x_max":812,"o":"m 468 922 l 387 922 l 354 734 l 156 734 l 145 667 l 343 667 l 264 207 q 269 117 259 157 q 304 48 279 77 q 366 4 328 20 q 454 -13 404 -12 q 531 -9 492 -14 q 606 9 570 -5 l 598 72 q 534 62 566 66 q 470 59 503 58 q 410 70 435 60 q 368 99 385 80 q 347 145 353 118 q 345 207 340 172 l 424 667 l 688 667 l 699 734 l 435 734 l 468 922 m 799 1026 l 812 1110 l 734 1110 l 719 1024 q 685 925 709 970 q 627 838 661 880 l 671 801 q 719 850 697 824 q 757 907 741 877 q 782 964 772 934 q 799 1026 793 994 z "},"ú":{"ha":815,"x_min":103,"x_max":740,"o":"m 307 -14 q 450 20 386 -14 q 559 116 513 55 l 538 0 l 613 0 l 740 734 l 659 734 l 570 216 q 529 150 554 180 q 471 100 503 121 q 399 68 438 79 q 320 58 361 58 q 243 79 272 59 q 201 131 215 99 q 185 202 187 163 q 190 281 184 242 l 267 734 l 186 734 l 110 283 q 109 175 103 228 q 138 80 115 122 q 202 13 161 39 q 307 -14 244 -13 m 574 1017 l 426 838 l 497 837 l 676 1017 l 574 1017 z "},"ŭ":{"ha":815,"x_min":103,"x_max":740,"o":"m 307 -14 q 450 20 386 -14 q 559 116 513 55 l 538 0 l 613 0 l 740 734 l 659 734 l 570 216 q 529 150 554 180 q 471 100 503 121 q 399 68 438 79 q 320 58 361 58 q 243 79 272 59 q 201 131 215 99 q 185 202 187 163 q 190 281 184 242 l 267 734 l 186 734 l 110 283 q 109 175 103 228 q 138 80 115 122 q 202 13 161 39 q 307 -14 244 -13 m 686 1023 l 618 1022 q 601 977 612 998 q 574 942 590 957 q 532 917 555 926 q 479 907 508 907 q 432 915 452 907 q 399 937 413 922 q 379 974 386 951 q 374 1023 373 996 l 307 1023 q 317 951 306 983 q 351 897 329 920 q 406 861 374 874 q 478 848 438 848 q 554 860 519 848 q 616 895 589 872 q 662 950 644 918 q 686 1023 680 983 z "},"û":{"ha":815,"x_min":103,"x_max":740,"o":"m 307 -14 q 450 20 386 -14 q 559 116 513 55 l 538 0 l 613 0 l 740 734 l 659 734 l 570 216 q 529 150 554 180 q 471 100 503 121 q 399 68 438 79 q 320 58 361 58 q 243 79 272 59 q 201 131 215 99 q 185 202 187 163 q 190 281 184 242 l 267 734 l 186 734 l 110 283 q 109 175 103 228 q 138 80 115 122 q 202 13 161 39 q 307 -14 244 -13 m 659 867 l 523 1031 l 473 1031 l 293 869 l 292 856 l 366 856 l 496 972 l 586 855 l 658 855 l 659 867 z "},"ü":{"ha":815,"x_min":103,"x_max":740,"o":"m 307 -14 q 450 20 386 -14 q 559 116 513 55 l 538 0 l 613 0 l 740 734 l 659 734 l 570 216 q 529 150 554 180 q 471 100 503 121 q 399 68 438 79 q 320 58 361 58 q 243 79 272 59 q 201 131 215 99 q 185 202 187 163 q 190 281 184 242 l 267 734 l 186 734 l 110 283 q 109 175 103 228 q 138 80 115 122 q 202 13 161 39 q 307 -14 244 -13 m 284 949 q 298 910 283 926 q 336 895 313 895 q 376 911 359 895 q 394 949 393 927 q 379 988 395 972 q 341 1004 364 1004 q 302 987 318 1004 q 284 949 286 971 m 572 948 q 586 909 571 925 q 624 894 602 894 q 664 910 647 895 q 682 949 680 926 q 667 988 682 972 q 629 1004 652 1004 q 590 987 606 1003 q 572 948 573 970 z "},"ù":{"ha":815,"x_min":103,"x_max":740,"o":"m 307 -14 q 450 20 386 -14 q 559 116 513 55 l 538 0 l 613 0 l 740 734 l 659 734 l 570 216 q 529 150 554 180 q 471 100 503 121 q 399 68 438 79 q 320 58 361 58 q 243 79 272 59 q 201 131 215 99 q 185 202 187 163 q 190 281 184 242 l 267 734 l 186 734 l 110 283 q 109 175 103 228 q 138 80 115 122 q 202 13 161 39 q 307 -14 244 -13 m 508 837 l 418 1018 l 328 1018 l 444 837 l 508 837 z "},"ư":{"ha":815,"x_min":105,"x_max":926,"o":"m 538 0 l 613 0 l 712 574 q 859 643 807 587 q 926 801 911 700 l 852 801 q 836 740 846 768 q 809 692 825 713 q 773 661 794 673 q 724 642 752 648 l 740 734 l 659 734 l 570 216 q 527 149 553 178 q 467 98 500 119 q 397 68 435 78 q 320 58 359 58 q 243 79 272 59 q 201 131 215 99 q 185 202 187 163 q 190 281 184 242 l 267 734 l 186 734 l 110 283 q 106 207 105 245 q 117 135 108 169 q 140 77 124 104 q 179 29 155 50 q 234 -2 202 9 q 307 -14 266 -13 q 397 -1 355 -14 q 475 35 439 12 q 520 72 498 51 q 559 116 541 92 l 538 0 z "},"ű":{"ha":815,"x_min":103,"x_max":803,"o":"m 307 -14 q 450 20 386 -14 q 559 116 513 55 l 538 0 l 613 0 l 740 734 l 659 734 l 570 216 q 529 150 554 180 q 471 100 503 121 q 399 68 438 79 q 320 58 361 58 q 243 79 272 59 q 201 131 215 99 q 185 202 187 163 q 190 281 184 242 l 267 734 l 186 734 l 110 283 q 109 175 103 228 q 138 80 115 122 q 202 13 161 39 q 307 -14 244 -13 m 693 1038 l 484 844 l 571 844 l 803 1038 l 693 1038 m 493 1038 l 319 844 l 397 844 l 594 1038 l 493 1038 z "},"ū":{"ha":815,"x_min":103,"x_max":740,"o":"m 307 -14 q 450 20 386 -14 q 559 116 513 55 l 538 0 l 613 0 l 740 734 l 659 734 l 570 216 q 529 150 554 180 q 471 100 503 121 q 399 68 438 79 q 320 58 361 58 q 243 79 272 59 q 201 131 215 99 q 185 202 187 163 q 190 281 184 242 l 267 734 l 186 734 l 110 283 q 109 175 103 228 q 138 80 115 122 q 202 13 161 39 q 307 -14 244 -13 m 701 921 l 711 987 l 269 987 l 258 921 l 701 921 z "},"ų":{"ha":815,"x_min":103,"x_max":740,"o":"m 609 0 l 613 0 l 740 734 l 659 734 l 570 216 q 527 148 553 178 q 466 98 500 118 q 396 68 433 78 q 320 58 359 58 q 243 79 272 59 q 201 131 215 99 q 185 202 187 163 q 190 281 184 242 l 267 734 l 186 734 l 110 283 q 109 175 103 228 q 138 80 115 122 q 202 13 161 39 q 307 -14 244 -13 q 397 -1 355 -14 q 474 35 439 11 q 519 71 498 51 q 559 116 541 92 l 540 10 q 491 -24 516 -5 q 446 -64 466 -42 q 410 -112 425 -86 q 394 -168 396 -138 q 399 -214 392 -193 q 420 -250 406 -235 q 452 -272 433 -264 q 496 -280 472 -280 q 549 -273 524 -281 q 597 -252 574 -265 l 587 -193 q 551 -209 570 -202 q 513 -214 532 -216 q 475 -199 488 -214 q 467 -160 463 -185 q 485 -109 470 -132 q 522 -66 500 -85 q 567 -31 543 -47 q 612 -1 591 -15 l 609 0 z "},"ů":{"ha":815,"x_min":103,"x_max":740,"o":"m 307 -14 q 450 20 386 -14 q 559 116 513 55 l 538 0 l 613 0 l 740 734 l 659 734 l 570 216 q 529 150 554 180 q 471 100 503 121 q 399 68 438 79 q 320 58 361 58 q 243 79 272 59 q 201 131 215 99 q 185 202 187 163 q 190 281 184 242 l 267 734 l 186 734 l 110 283 q 109 175 103 228 q 138 80 115 122 q 202 13 161 39 q 307 -14 244 -13 m 364 937 q 369 891 362 913 q 391 852 376 869 q 426 826 406 836 q 472 817 447 817 q 522 827 498 817 q 564 854 545 837 q 593 894 582 871 q 607 943 605 917 q 602 989 609 967 q 581 1029 595 1012 q 546 1057 567 1046 q 500 1067 525 1067 q 450 1056 473 1067 q 408 1028 427 1046 q 378 987 390 1010 q 364 937 366 963 m 416 939 q 425 968 418 954 q 444 993 433 982 q 469 1011 455 1004 q 500 1017 484 1017 q 526 1011 515 1017 q 545 994 538 1004 q 555 969 553 983 q 556 942 558 956 q 546 913 553 927 q 528 889 538 899 q 503 872 517 878 q 473 865 488 865 q 447 871 458 865 q 427 888 435 878 q 417 911 420 898 q 416 939 414 924 z "},"ũ":{"ha":815,"x_min":103,"x_max":740,"o":"m 307 -14 q 450 20 386 -14 q 559 116 513 55 l 538 0 l 613 0 l 740 734 l 659 734 l 570 216 q 529 150 554 180 q 471 100 503 121 q 399 68 438 79 q 320 58 361 58 q 243 79 272 59 q 201 131 215 99 q 185 202 187 163 q 190 281 184 242 l 267 734 l 186 734 l 110 283 q 109 175 103 228 q 138 80 115 122 q 202 13 161 39 q 307 -14 244 -13 m 715 1013 l 663 1023 q 651 994 659 1008 q 631 965 644 979 q 608 947 621 954 q 581 940 595 940 q 534 952 555 939 q 492 980 513 965 q 451 1005 472 994 q 401 1017 429 1017 q 349 1005 372 1017 q 307 974 325 994 q 278 929 290 954 q 262 878 267 904 l 315 870 q 328 899 320 885 q 346 925 335 913 q 370 943 356 936 q 401 949 384 949 q 447 938 426 950 q 488 911 468 926 q 528 886 507 897 q 576 874 549 874 q 629 886 606 874 q 671 918 653 898 q 699 962 688 937 q 715 1013 710 987 z "},"ẃ":{"ha":815,"x_min":98,"x_max":834,"o":"m 130 0 l 195 0 l 404 496 l 446 613 l 446 506 l 486 0 l 550 0 l 834 734 l 759 734 l 576 238 l 531 112 l 528 233 l 492 734 l 436 734 l 232 244 l 183 118 l 184 234 l 170 734 l 98 734 l 130 0 m 591 1017 l 442 838 l 513 837 l 692 1017 l 591 1017 z "},"ŵ":{"ha":815,"x_min":98,"x_max":834,"o":"m 130 0 l 195 0 l 404 496 l 446 613 l 446 506 l 486 0 l 550 0 l 834 734 l 759 734 l 576 238 l 531 112 l 528 233 l 492 734 l 436 734 l 232 244 l 183 118 l 184 234 l 170 734 l 98 734 l 130 0 m 675 867 l 538 1031 l 489 1031 l 309 869 l 307 856 l 381 856 l 512 972 l 602 855 l 673 855 l 675 867 z "},"ẅ":{"ha":815,"x_min":98,"x_max":834,"o":"m 130 0 l 195 0 l 404 496 l 446 613 l 446 506 l 486 0 l 550 0 l 834 734 l 759 734 l 576 238 l 531 112 l 528 233 l 492 734 l 436 734 l 232 244 l 183 118 l 184 234 l 170 734 l 98 734 l 130 0 m 300 949 q 314 910 299 926 q 352 895 329 895 q 391 911 374 895 q 410 949 408 927 q 395 988 410 972 q 357 1004 380 1004 q 317 987 334 1004 q 300 949 301 971 m 587 948 q 602 909 587 925 q 640 894 617 894 q 679 910 663 895 q 697 949 696 926 q 683 988 698 972 q 644 1004 667 1004 q 605 987 622 1003 q 587 948 589 970 z "},"ẁ":{"ha":815,"x_min":98,"x_max":834,"o":"m 130 0 l 195 0 l 404 496 l 446 613 l 446 506 l 486 0 l 550 0 l 834 734 l 759 734 l 576 238 l 531 112 l 528 233 l 492 734 l 436 734 l 232 244 l 183 118 l 184 234 l 170 734 l 98 734 l 130 0 m 524 837 l 433 1018 l 343 1018 l 460 837 l 524 837 z "},"ý":{"ha":815,"x_min":-20,"x_max":815,"o":"m 348 153 l 194 734 l 108 734 l 304 24 l 233 -90 q 199 -138 218 -114 q 158 -182 180 -162 q 109 -213 136 -201 q 51 -224 82 -224 q 23 -222 37 -224 q -5 -219 9 -220 l -20 -288 q 15 -294 -3 -292 q 50 -297 32 -297 q 130 -282 93 -297 q 198 -243 167 -267 q 255 -185 229 -218 q 301 -118 280 -153 l 815 734 l 721 734 l 361 122 l 348 153 m 597 1017 l 448 838 l 519 837 l 699 1017 l 597 1017 z "},"ŷ":{"ha":815,"x_min":-20,"x_max":815,"o":"m 348 153 l 194 734 l 108 734 l 304 24 l 233 -90 q 199 -138 218 -114 q 158 -182 180 -162 q 109 -213 136 -201 q 51 -224 82 -224 q 23 -222 37 -224 q -5 -219 9 -220 l -20 -288 q 15 -294 -3 -292 q 50 -297 32 -297 q 130 -282 93 -297 q 198 -243 167 -267 q 255 -185 229 -218 q 301 -118 280 -153 l 815 734 l 721 734 l 361 122 l 348 153 m 681 867 l 545 1031 l 495 1031 l 315 869 l 313 856 l 387 856 l 518 972 l 608 855 l 680 855 l 681 867 z "},"ÿ":{"ha":815,"x_min":-20,"x_max":815,"o":"m 348 153 l 194 734 l 108 734 l 304 24 l 233 -90 q 199 -138 218 -114 q 158 -182 180 -162 q 109 -213 136 -201 q 51 -224 82 -224 q 23 -222 37 -224 q -5 -219 9 -220 l -20 -288 q 15 -294 -3 -292 q 50 -297 32 -297 q 130 -282 93 -297 q 198 -243 167 -267 q 255 -185 229 -218 q 301 -118 280 -153 l 815 734 l 721 734 l 361 122 l 348 153 m 306 949 q 320 910 305 926 q 358 895 335 895 q 397 911 380 895 q 416 949 414 927 q 401 988 416 972 q 363 1004 386 1004 q 323 987 340 1004 q 306 949 307 971 m 593 948 q 608 909 593 925 q 646 894 623 894 q 685 910 669 895 q 703 949 702 926 q 689 988 704 972 q 650 1004 673 1004 q 611 987 628 1003 q 593 948 595 970 z "},"ỳ":{"ha":815,"x_min":-20,"x_max":815,"o":"m 348 153 l 194 734 l 108 734 l 304 24 l 233 -90 q 199 -138 218 -114 q 158 -182 180 -162 q 109 -213 136 -201 q 51 -224 82 -224 q 23 -222 37 -224 q -5 -219 9 -220 l -20 -288 q 15 -294 -3 -292 q 50 -297 32 -297 q 130 -282 93 -297 q 198 -243 167 -267 q 255 -185 229 -218 q 301 -118 280 -153 l 815 734 l 721 734 l 361 122 l 348 153 m 530 837 l 439 1018 l 349 1018 l 466 837 l 530 837 z "},"ź":{"ha":815,"x_min":35,"x_max":740,"o":"m 153 70 l 730 671 l 740 734 l 163 734 l 153 663 l 619 663 l 45 64 l 35 0 l 660 0 l 670 70 l 153 70 m 599 1017 l 450 838 l 522 837 l 701 1017 l 599 1017 z "},"ž":{"ha":815,"x_min":35,"x_max":740,"o":"m 153 70 l 730 671 l 740 734 l 163 734 l 153 663 l 619 663 l 45 64 l 35 0 l 660 0 l 670 70 l 153 70 m 500 908 l 410 1033 l 340 1033 l 340 1021 l 470 853 l 528 853 l 708 1021 l 709 1033 l 636 1032 l 500 908 z "},"ż":{"ha":815,"x_min":35,"x_max":740,"o":"m 153 70 l 730 671 l 740 734 l 163 734 l 153 663 l 619 663 l 45 64 l 35 0 l 660 0 l 670 70 l 153 70 m 452 936 q 466 896 450 911 q 506 880 482 880 q 547 897 530 881 q 566 937 564 913 q 552 978 568 961 q 511 994 536 994 q 470 976 487 993 q 452 936 453 960 z "},"`":{"ha":815,"x_min":395,"x_max":576,"o":"m 576 836 l 486 1017 l 395 1017 l 512 836 l 576 836 z "},"´":{"ha":815,"x_min":361,"x_max":611,"o":"m 509 1016 l 361 837 l 432 836 l 611 1016 l 509 1016 z "},"ˆ":{"ha":815,"x_min":269,"x_max":636,"o":"m 636 865 l 500 1029 l 450 1029 l 270 867 l 269 854 l 342 854 l 473 970 l 563 853 l 635 853 l 636 865 z "},"˜":{"ha":815,"x_min":169,"x_max":621,"o":"m 621 1004 l 570 1015 q 557 985 565 1000 q 538 956 550 970 q 514 938 527 945 q 487 931 502 931 q 440 943 461 930 q 399 971 420 956 q 357 996 378 985 q 308 1008 336 1008 q 255 996 279 1008 q 214 965 231 985 q 185 920 196 945 q 169 869 174 895 l 222 861 q 234 890 227 876 q 252 916 241 905 q 276 934 262 927 q 308 941 290 941 q 353 929 332 941 q 395 903 374 917 q 435 877 414 888 q 482 865 456 865 q 536 877 512 865 q 577 909 559 889 q 605 953 594 928 q 621 1004 616 978 z "},"¯":{"ha":815,"x_min":264,"x_max":716,"o":"m 706 921 l 716 987 l 274 987 l 264 921 l 706 921 z "},"ˉ":{"ha":815,"x_min":264,"x_max":716,"o":"m 706 921 l 716 987 l 274 987 l 264 921 l 706 921 z "}}}
